<?xml version="1.0" standalone="no"?>
<!DOCTYPE svg PUBLIC "-//W3C//DTD SVG 20010904//EN"
 "http://www.w3.org/TR/2001/REC-SVG-20010904/DTD/svg10.dtd">
<svg version="1.0" xmlns="http://www.w3.org/2000/svg"
 width="512.000000pt" height="512.000000pt" viewBox="0 0 512.000000 512.000000"
 preserveAspectRatio="xMidYMid meet">
<metadata>
Created by potrace 1.14, written by Peter Selinger 2001-2017
</metadata>
<g transform="translate(0.000000,512.000000) scale(0.100000,-0.100000)"
fill="#000000" stroke="none">
<path d="M1040 5110 c-25 -4 -61 -10 -81 -14 -116 -18 -301 -97 -433 -183 -90
-59 -258 -227 -318 -318 -98 -148 -165 -317 -192 -481 -22 -133 -22 -2989 0
-3109 48 -264 154 -466 338 -650 187 -185 403 -298 652 -339 134 -22 2988 -22
3112 0 306 55 577 220 763 467 99 131 190 338 225 512 11 55 15 3029 4 3085
-4 25 -11 63 -14 84 -18 113 -98 301 -183 429 -61 93 -228 260 -318 319 -129
85 -318 166 -426 183 -19 3 -59 10 -89 15 -67 11 -2975 11 -3040 0z m3050
-245 c272 -53 497 -206 644 -438 46 -72 88 -168 118 -273 l23 -79 0 -1490 c0
-820 -3 -1513 -7 -1541 -12 -77 -45 -180 -89 -269 -120 -244 -336 -422 -609
-502 l-95 -28 -1490 -2 c-1428 -2 -1494 -2 -1575 16 -368 82 -636 335 -737
697 l-28 99 0 1490 c0 820 4 1513 8 1540 14 86 72 242 123 327 57 95 199 245
289 305 107 71 212 114 345 143 80 17 167 19 1545 19 1235 0 1472 -2 1535 -14z"/>
<path d="M1698 3913 c-10 -3 -18 -9 -18 -14 0 -8 20 -65 40 -114 57 -139 104
-274 101 -290 -1 -11 -46 -135 -98 -275 -52 -140 -137 -372 -189 -515 -52
-143 -104 -282 -114 -310 -10 -27 -73 -196 -140 -375 -149 -399 -183 -482
-221 -542 -40 -62 -121 -134 -186 -165 -36 -17 -53 -32 -58 -50 -3 -14 -3 -28
0 -32 4 -3 179 -6 389 -6 l382 -1 -1 23 c0 33 -14 42 -91 57 -92 17 -153 45
-197 91 -46 47 -57 86 -57 199 0 83 4 98 56 240 31 83 136 370 234 637 210
572 278 752 315 834 l26 60 16 -29 c18 -33 191 -474 377 -961 70 -181 140
-364 156 -405 16 -41 52 -136 80 -210 29 -74 88 -226 131 -336 l79 -201 33 3
c69 8 69 8 150 166 296 585 435 848 446 848 7 0 27 -40 84 -170 10 -25 32 -72
47 -105 81 -180 143 -350 147 -409 12 -144 -52 -226 -199 -257 -61 -13 -77
-23 -74 -47 3 -16 40 -17 489 -20 l487 -2 0 25 c0 20 -10 30 -51 50 -70 36
-134 97 -188 180 -57 87 -54 81 -257 575 -91 223 -173 421 -181 440 -8 19 -19
44 -23 55 -10 24 -33 81 -47 115 -9 22 -3 40 47 135 32 61 101 196 155 300 54
105 118 228 143 275 25 47 57 108 71 135 88 171 231 315 312 315 16 0 19 8 19
45 l0 45 -303 0 -303 0 -2 -32 c-3 -45 6 -55 58 -62 68 -9 132 -46 152 -87 16
-32 17 -40 3 -92 -8 -32 -40 -112 -71 -180 -84 -186 -317 -657 -325 -657 -9 0
-53 99 -219 500 -169 409 -214 518 -238 573 l-16 38 -181 -2 c-190 -2 -205 -4
-205 -24 0 -10 272 -677 310 -760 5 -11 16 -38 25 -60 9 -22 37 -89 62 -150
122 -296 223 -550 223 -562 0 -25 -261 -528 -337 -652 l-15 -24 -25 54 c-14
30 -47 110 -73 179 -132 347 -163 427 -175 455 -7 17 -62 156 -121 310 -59
154 -115 300 -124 325 -10 25 -43 113 -74 195 -31 83 -61 159 -66 170 -9 19
-56 141 -106 277 -14 36 -42 111 -63 165 l-38 98 -179 1 c-99 1 -187 -1 -196
-3z"/>
<path d="M1586 2378 c-7 -18 -10 -36 -6 -41 7 -9 586 -11 600 -2 11 7 -6 56
-22 66 -6 4 -134 8 -284 8 l-274 2 -14 -33z"/>
</g>
</svg>
