<svg width="36" height="1021" viewBox="0 0 36 1021" fill="none" xmlns="http://www.w3.org/2000/svg">
<rect x="12" width="12" height="4" fill="#D9D9D9"/>
<rect x="12" y="42" width="12" height="4" fill="#D9D9D9"/>
<rect y="84" width="36" height="4" fill="#D9D9D9"/>
<rect x="12" y="126" width="12" height="4" fill="#D9D9D9"/>
<rect x="12" y="168" width="12" height="4" fill="#D9D9D9"/>
<rect x="12" y="210" width="12" height="4" fill="#D9D9D9"/>
<rect x="12" y="252" width="12" height="4" fill="#D9D9D9"/>
<rect y="294" width="36" height="4" fill="#D9D9D9"/>
<rect x="12" y="336" width="12" height="4" fill="#D9D9D9"/>
<rect x="12" y="378" width="12" height="4" fill="#D9D9D9"/>
<rect x="12" y="420" width="12" height="4" fill="#D9D9D9"/>
<rect x="12" y="462" width="12" height="4" fill="#D9D9D9"/>
<rect x="12" y="549" width="12" height="4" fill="#D9D9D9"/>
<rect x="12" y="591" width="12" height="4" fill="#D9D9D9"/>
<rect x="12" y="633" width="12" height="4" fill="#D9D9D9"/>
<rect x="12" y="675" width="12" height="4" fill="#D9D9D9"/>
<rect y="717" width="36" height="4" fill="#D9D9D9"/>
<rect x="12" y="759" width="12" height="4" fill="#D9D9D9"/>
<rect x="12" y="801" width="12" height="4" fill="#D9D9D9"/>
<rect x="12" y="843" width="12" height="4" fill="#D9D9D9"/>
<rect x="12" y="885" width="12" height="4" fill="#D9D9D9"/>
<rect y="927" width="36" height="4" fill="#D9D9D9"/>
<rect x="12" y="969" width="12" height="4" fill="#D9D9D9"/>
<rect x="12" y="1011" width="12" height="4" fill="#D9D9D9"/>
</svg>
