<svg width="238" height="120" viewBox="0 0 238 120" fill="none" xmlns="http://www.w3.org/2000/svg">
<mask id="mask0_12_612" style="mask-type:alpha" maskUnits="userSpaceOnUse" x="0" y="0" width="238" height="120">
<g clip-path="url(#clip0_12_612)">
<path d="M54.4465 89.6796L59.3488 102.495L59.7968 103.704H49.1326L54.4465 89.6796ZM51.5499 82.0891L53.5088 87.205L43.1831 114.426C41.5786 117.551 39.7083 117.692 39.6354 117.697H39.2603V119.26H50.0026V117.656H49.5859H49.5494C49.1639 117.656 46.1162 117.656 45.5067 115.504C45.3139 114.624 45.3608 113.712 45.6473 112.858L48.4397 105.444H60.4897L63.3863 113.066C63.5478 113.451 63.6572 113.858 63.7093 114.269C63.9177 115.124 63.725 116.03 63.1884 116.728C62.2923 117.713 60.646 117.645 60.646 117.656H60.2293V119.26H73.2535V117.749L72.6908 117.63C72.472 117.588 72.2584 117.499 72.0709 117.38C70.2787 116.301 69.466 114.212 68.6481 112.17L57.2337 82.2922L57.1347 82.0422L51.5499 82.0891Z" fill="white"/>
<path d="M184.684 89.6222L189.586 102.438L190.034 103.647H179.375L184.684 89.6222ZM181.792 82.0369L183.746 87.1528L173.42 114.389C171.821 117.515 169.951 117.656 169.872 117.661H169.497V119.224H180.245V117.619H179.828H179.786C179.396 117.619 176.358 117.619 175.749 115.467C175.556 114.587 175.603 113.675 175.884 112.821L178.682 105.408H190.732L193.629 113.029C193.785 113.415 193.894 113.821 193.946 114.233C194.16 115.092 193.967 115.999 193.425 116.697C192.535 117.682 190.883 117.614 190.883 117.619H190.472V119.224H203.496V117.713L202.928 117.598C202.709 117.551 202.501 117.463 202.308 117.348C200.521 116.265 199.703 114.181 198.885 112.139L187.471 82.2661L187.372 82.0109L181.792 82.0369Z" fill="white"/>
<path d="M88.8722 86.809C88.8618 86.6058 88.8774 86.3975 88.9295 86.1995C89.289 83.5946 92.1855 83.5946 93.1337 83.6624H93.2692C95.1551 83.5738 96.9941 84.2563 98.3642 85.5587C100.011 87.2258 100.87 89.9557 100.844 93.4618V93.5764C100.844 102.402 94.0715 102.652 93.3004 102.652H88.8722V86.809ZM79.3489 81.964V83.4696L79.7657 83.4384C79.7969 83.4384 82.8029 83.355 83.4697 85.7515C83.5531 86.0432 83.6 86.3401 83.6104 86.6423V114.629L88.8722 119.187V104.433H93.2692C93.4671 104.407 99.5208 104.491 103.402 100.646C105.486 98.6142 106.528 95.8009 106.528 92.3782C106.528 82.6621 96.1449 81.9953 94.0246 81.9588L79.3489 81.964Z" fill="white"/>
<path d="M117.698 93.2013C117.698 100.297 117.724 107.398 117.724 114.499C117.713 114.795 117.682 115.092 117.64 115.389C116.942 117.786 114.02 117.697 113.884 117.697L113.493 117.671V119.177H127.273V117.671L126.856 117.697C126.856 117.697 123.793 117.812 123.126 115.389C123.058 115.098 123.027 114.795 123.043 114.499L122.965 86.5381L117.698 81.9796V93.2013Z" fill="white"/>
<path d="M134.197 81.9641V93.5505H136.192V93.1597C136.192 86.731 138.276 83.751 142.704 83.751H146.268V114.634L151.529 119.193V83.7667H155.041C159.495 83.7667 161.553 86.7466 161.553 93.1754V93.5505H163.559V81.9641H134.197Z" fill="white"/>
<path d="M214.692 114.389C214.494 117.645 210.962 117.515 210.795 117.562L210.404 117.536V119.036H237.604V107.413H235.624V107.799C235.624 114.233 233.541 117.239 229.086 117.239H223.767C222.96 117.239 220.344 117.181 219.98 114.816C219.954 114.681 219.948 114.54 219.954 114.399V86.3557L214.692 81.7972V114.389Z" fill="white"/>
<path d="M16.3691 81.2661C16.2076 81.2661 0.39624 81.7871 0.39624 101.282C0.39624 109.914 4.78801 120 17.1714 120H17.3225C20.7609 119.948 24.0743 118.703 26.7 116.478C27.174 116.109 27.5543 115.989 27.82 116.114C28.4452 116.411 28.7265 117.932 28.7526 118.823V119.203H30.6281L30.5239 112.337V106.054H28.4035V106.434C28.4035 106.497 28.1222 112.873 24.8088 115.666C24.1733 116.155 23.4856 116.572 22.7562 116.9L22.6208 116.994C21.8185 117.343 20.9901 117.635 20.1462 117.869C18.5781 118.286 16.9266 118.271 15.3689 117.823C14.1134 117.437 12.9568 116.786 11.9722 115.911C11.0188 115.051 10.2113 114.045 9.57571 112.931C8.94534 111.816 8.40874 110.649 7.97113 109.445C7.94508 109.326 7.9034 109.211 7.85131 109.101C7.81484 109.029 7.78358 108.95 7.76274 108.867C6.59577 105.345 6.179 101.62 6.53846 97.9267C7.5804 86.4654 12.7901 83.9387 14.3061 83.4386C17.0151 82.73 19.8857 83.0009 22.4124 84.2096C24.0118 84.8921 25.3767 86.0226 26.3405 87.4708C26.5801 87.8407 26.7989 88.221 27.0021 88.6118C27.5179 89.6798 27.893 90.8103 28.1118 91.9772C28.2108 92.6545 28.3098 93.3526 28.3619 94.009V94.556H30.3936L30.3415 88.8931L30.503 82.0111H28.6223V82.3914C28.5911 83.251 28.3202 84.741 27.7211 85.0692C27.6481 85.1161 27.4189 85.2411 26.8458 84.9181C26.7468 84.8816 26.6531 84.8191 26.5801 84.741C24.0118 82.5321 20.7505 81.3026 17.3642 81.2661H16.3691Z" fill="white"/>
<path d="M97.9841 35.8896L97.2808 37.687H112.097L111.404 35.8896H97.9841Z" fill="white"/>
<path d="M112.097 35.8896H97.2808V37.687H112.097V35.8896Z" fill="white"/>
<path d="M162.068 0.0104194H148.414V1.78171L149.716 1.84944C151.279 2.07346 152.373 2.51628 153.014 3.31336C153.467 3.94374 153.702 4.70435 153.681 5.48059C153.681 6.91847 149.206 16.0875 143.756 26.8403C140.552 19.0623 136.812 9.9974 132.696 0H123.272C123.84 1.36494 124.407 2.72988 124.97 4.06877C125.533 5.40766 126.064 6.70487 126.616 8.02292C130.628 17.6556 134.561 27.2988 138.547 36.9627L138.026 38.0047C135.082 43.652 132.206 49.1586 129.789 53.7432C125.231 41.589 121.803 32.7794 119.125 25.8296C116.754 19.6353 113.394 10.8466 109.252 0H99.7604C101 3.20917 102.235 6.41834 103.47 9.6223L95.0613 32.4928L86.5122 55.8635C83.303 62.3496 79.3489 62.5267 79.3489 62.5267V64.0583H97.713V62.5267C97.713 62.5267 90.831 62.907 89.4609 57.8797C89.0649 56.0511 89.1587 54.1495 89.737 52.3678L93.8631 41.0367L96.9889 32.4928L104.449 12.175C107.064 18.9529 109.68 25.7255 112.295 32.4928L113.535 35.8166L114.311 37.7182L115.525 41.0367C118.468 48.7158 121.401 56.3897 124.314 64.0583L126.705 64.0323L128.789 59.9844C129.43 58.7445 130.07 57.4837 130.716 56.2438C130.716 56.2438 130.716 56.2438 130.716 56.2021C133.462 50.8674 136.181 45.5327 138.927 40.1771L139.448 39.1352C141.443 43.9437 143.444 48.7471 145.491 53.5348C145.757 54.2798 145.944 55.0508 146.059 55.8375C146.528 58.6976 145.538 60.3751 144.189 61.3128C142.219 62.7403 139.443 62.6205 139.443 62.6205V64.0479H162.834V62.6205L162.266 62.558C161.777 62.4538 161.302 62.2766 160.86 62.037C159.531 61.193 158.375 60.1042 157.453 58.833C156.494 57.6088 155.728 56.2438 155.181 54.7903C154.389 52.7064 150.492 43.2561 144.652 29.0232C147.888 22.7142 151.118 16.4053 154.342 10.1016C156.869 5.20969 159.234 2.28705 162.068 1.76609C162.199 1.76609 162.339 1.73483 162.485 1.72962H162.834V0.00520969L162.068 0.0104194Z" fill="white"/>
<path d="M79.3491 35.9001H0.39624V37.6766H79.3491V35.9001Z" fill="white"/>
<path d="M79.3491 35.9H0.39624V37.6765H79.3491V35.9Z" fill="white"/>
<path d="M237.604 35.9001H162.834V37.6766H237.604V35.9001Z" fill="white"/>
<path d="M237.604 35.9001H162.834V37.6766H237.604V35.9001Z" fill="white"/>
</g>
</mask>
<g mask="url(#mask0_12_612)">
<rect width="296" height="176" transform="matrix(-1 0 0 1 258 -28)" fill="#D9D9D9"/>
</g>
<defs>
<clipPath id="clip0_12_612">
<rect width="237.208" height="120" fill="white" transform="translate(0.39624)"/>
</clipPath>
</defs>
</svg>
