<svg width="167" height="31" viewBox="0 0 167 31" fill="none" xmlns="http://www.w3.org/2000/svg">
<path d="M2.16049 6.98824V13.154H0V0.296875H2.16049V6.15248H8.62092V0.296875H10.7814V13.154H8.62092V6.98824H2.16049Z" fill="white"/>
<path d="M19.3133 0.0078125L25.3637 13.154H23.1611L21.2004 8.87006H15.6862L13.6623 13.154H12.5742L18.7718 0.0078125H19.3133ZM16.0646 8.0343H20.8061L18.4669 2.94613L16.0646 8.0343Z" fill="white"/>
<path d="M27.1445 0.296875H31.6022C32.3696 0.296875 33.0478 0.380977 33.626 0.543925C34.2042 0.706872 34.6931 0.938153 35.0821 1.23777C35.4711 1.53738 35.7602 1.88956 35.96 2.29955C36.1597 2.70955 36.2543 3.15634 36.2543 3.63993C36.2543 4.03941 36.1807 4.41787 36.0283 4.76479C35.8758 5.11171 35.6656 5.4271 35.387 5.71094C35.1136 5.99478 34.7825 6.23658 34.3935 6.43632C34.0045 6.64132 33.5787 6.79901 33.1161 6.91465L37.7998 13.1487H35.2871L30.8189 7.10914H29.305V13.1487H27.1445V0.296875ZM29.305 6.4626H30.5561C31.0397 6.4626 31.4865 6.39952 31.8966 6.26812C32.3066 6.13671 32.664 5.95799 32.9637 5.72145C33.2633 5.48492 33.4998 5.20107 33.668 4.86466C33.8363 4.52826 33.9204 4.1498 33.9204 3.72929C33.9204 3.34032 33.852 2.98814 33.7206 2.66224C33.5892 2.33635 33.4 2.06302 33.1582 1.83174C32.9163 1.60046 32.6272 1.42174 32.2961 1.29559C31.9649 1.16418 31.5969 1.1011 31.2079 1.1011H29.305V6.4626Z" fill="white"/>
<path d="M39.5586 0.296875H44.7364C45.4198 0.296875 46.0506 0.370464 46.6235 0.522899C47.1965 0.675334 47.6854 0.890845 48.0954 1.16943C48.5054 1.44802 48.8261 1.77917 49.0521 2.16814C49.2782 2.55712 49.3938 2.98288 49.3938 3.44544C49.3938 3.80288 49.357 4.11826 49.2887 4.39685C49.2203 4.67543 49.0889 4.933 48.9102 5.16953C48.7315 5.40607 48.4897 5.62684 48.19 5.83709C47.8904 6.04735 47.5119 6.26286 47.0493 6.48363V6.52042C47.5067 6.59401 47.9219 6.71491 48.2899 6.88837C48.6579 7.06183 48.9733 7.2826 49.2361 7.55067C49.4989 7.81875 49.6987 8.13413 49.8406 8.49156C49.9825 8.849 50.0561 9.24322 50.0561 9.66899C50.0561 10.1526 49.951 10.6099 49.7407 11.0304C49.5305 11.4509 49.2308 11.8241 48.8419 12.1342C48.4529 12.4496 47.9798 12.6967 47.4278 12.8754C46.8759 13.0541 46.2556 13.1487 45.5722 13.1487H39.5586V0.296875ZM41.7191 6.08414H44.4736C44.9046 6.08414 45.2936 6.02107 45.6248 5.90017C45.9612 5.77927 46.2451 5.60581 46.4764 5.3903C46.7077 5.17479 46.8864 4.91723 47.0073 4.61236C47.1282 4.31274 47.186 3.98685 47.186 3.63993C47.186 3.26673 47.1124 2.92506 46.9705 2.61494C46.8286 2.31007 46.6078 2.04725 46.3081 1.82648C46.0085 1.60571 45.6248 1.43751 45.1622 1.32187C44.6996 1.20623 44.1477 1.14841 43.5011 1.14841H41.7191V6.08414ZM41.7191 12.2131H44.053C44.6786 12.2131 45.2253 12.1553 45.6879 12.0344C46.1504 11.9135 46.5289 11.7453 46.8338 11.5297C47.1334 11.3142 47.3595 11.0514 47.5014 10.7465C47.6486 10.4417 47.7222 10.1105 47.7222 9.74784C47.7222 9.34309 47.6591 8.96464 47.5277 8.61246C47.3963 8.26554 47.186 7.96067 46.8916 7.70836C46.5973 7.45606 46.2135 7.25106 45.7352 7.10388C45.2621 6.9567 44.6786 6.88311 43.9847 6.88311H41.7138V12.2131H41.7191Z" fill="white"/>
<path d="M59.1954 13.4536C58.2018 13.4536 57.2714 13.2749 56.4093 12.9227C55.5472 12.5653 54.7955 12.0817 54.1595 11.4615C53.5234 10.8465 53.024 10.1263 52.6561 9.30108C52.2934 8.47583 52.1094 7.59802 52.1094 6.65713C52.1094 6.04213 52.1935 5.45342 52.3564 4.88047C52.5194 4.30753 52.7559 3.78189 53.0608 3.28779C53.3657 2.79895 53.7337 2.3469 54.1595 1.94741C54.5905 1.54267 55.0636 1.19575 55.5893 0.911909C56.115 0.628065 56.6827 0.402041 57.2924 0.244349C57.9022 0.0866581 58.5383 0.0078125 59.1954 0.0078125C59.8629 0.0078125 60.499 0.0866581 61.1035 0.244349C61.7133 0.402041 62.2758 0.628065 62.8067 0.911909C63.3323 1.20101 63.8107 1.54793 64.2365 1.94741C64.6623 2.3469 65.0302 2.79895 65.3351 3.28779C65.64 3.77663 65.8766 4.30753 66.0448 4.88047C66.213 5.45342 66.2918 6.04213 66.2918 6.65713C66.2918 7.28263 66.2077 7.88712 66.0448 8.46006C65.8818 9.03301 65.6453 9.57441 65.3351 10.079C65.025 10.5836 64.6623 11.0409 64.2365 11.4562C63.8107 11.8714 63.3323 12.2236 62.8067 12.5232C62.281 12.8229 61.7133 13.0489 61.1035 13.2118C60.499 13.3748 59.8629 13.4536 59.1954 13.4536ZM59.1954 12.8123C59.9313 12.8123 60.5831 12.6599 61.1508 12.3498C61.7185 12.0397 62.1916 11.6139 62.5806 11.0672C62.9696 10.5206 63.2587 9.86877 63.4585 9.11711C63.6583 8.36545 63.7529 7.54545 63.7529 6.65713C63.7529 5.77405 63.653 4.95932 63.4585 4.22342C63.2587 3.48753 62.9696 2.85151 62.5806 2.32062C62.1916 1.78972 61.7185 1.37447 61.1508 1.08011C60.5831 0.785756 59.9365 0.638577 59.1954 0.638577C58.4437 0.638577 57.7866 0.785756 57.2241 1.08011C56.6564 1.37447 56.1833 1.78972 55.7996 2.32062C55.4158 2.85151 55.1267 3.48753 54.9322 4.22342C54.7377 4.95932 54.6431 5.77405 54.6431 6.65713C54.6431 7.55071 54.7377 8.3707 54.9322 9.11711C55.1267 9.86877 55.4158 10.5153 55.7996 11.0672C56.1833 11.6191 56.6616 12.0449 57.2241 12.3498C57.7866 12.6599 58.4437 12.8123 59.1954 12.8123Z" fill="white"/>
<path d="M69.0039 0.296875H71.1644V8.644C71.1644 9.19592 71.259 9.71104 71.4482 10.1894C71.6375 10.673 71.9056 11.0935 72.2525 11.4562C72.5995 11.8188 73.0252 12.1027 73.5194 12.3129C74.0135 12.5232 74.5654 12.6283 75.17 12.6283C75.785 12.6283 76.3369 12.5232 76.8258 12.3129C77.3147 12.1027 77.7352 11.8188 78.0822 11.4562C78.4291 11.0935 78.6919 10.673 78.8759 10.1894C79.0599 9.70578 79.1545 9.19066 79.1545 8.644V0.296875H80.106V8.644C80.106 9.30104 80.0008 9.9213 79.7853 10.5048C79.5698 11.0882 79.2386 11.5981 78.7813 12.0344C78.324 12.4706 77.7405 12.8176 77.0308 13.0699C76.3212 13.3274 75.4643 13.4536 74.4708 13.4536C73.5877 13.4536 72.7992 13.3274 72.1211 13.0699C71.4377 12.8123 70.8648 12.4654 70.4074 12.0291C69.9448 11.5876 69.5979 11.0724 69.3614 10.4837C69.1248 9.89501 69.0092 9.25899 69.0092 8.58618V0.296875H69.0039Z" fill="white"/>
<path d="M83.3906 0.296875H87.8483C88.6157 0.296875 89.2939 0.380977 89.8721 0.543925C90.4503 0.706872 90.9392 0.938153 91.3282 1.23777C91.7172 1.53738 92.0063 1.88956 92.206 2.29955C92.4058 2.70955 92.5004 3.15634 92.5004 3.63993C92.5004 4.03941 92.4268 4.41787 92.2744 4.76479C92.1219 5.11171 91.9117 5.4271 91.6331 5.71094C91.3597 5.99478 91.0285 6.23658 90.6396 6.43632C90.2506 6.64132 89.8248 6.79901 89.3622 6.91465L94.0459 13.1487H91.5332L87.065 7.10914H85.5511V13.1487H83.3906V0.296875ZM85.5564 6.4626H86.8075C87.2911 6.4626 87.7379 6.39952 88.1479 6.26812C88.5579 6.13671 88.9154 5.95799 89.215 5.72145C89.5146 5.48492 89.7512 5.20107 89.9194 4.86466C90.0876 4.52826 90.1717 4.1498 90.1717 3.72929C90.1717 3.34032 90.1034 2.98814 89.972 2.66224C89.8405 2.33635 89.6513 2.06302 89.4095 1.83174C89.1677 1.60046 88.8786 1.42174 88.5474 1.29559C88.2162 1.16418 87.8483 1.1011 87.454 1.1011H85.5564V6.4626Z" fill="white"/>
<path d="M99.8789 0.296875H102.039V12.3182H108.516V13.154H99.8789V0.296875Z" fill="white"/>
<path d="M110.445 0.296875H112.606V13.154H110.445V0.296875Z" fill="white"/>
<path d="M123.411 0.925122C122.633 0.925122 121.918 1.06179 121.266 1.33512C120.614 1.60845 120.047 2.00268 119.568 2.5178C119.09 3.03293 118.722 3.65318 118.459 4.37856C118.196 5.10394 118.06 5.91868 118.06 6.81752C118.06 7.72161 118.202 8.53635 118.491 9.26699C118.78 9.99237 119.174 10.6126 119.674 11.1225C120.173 11.6324 120.762 12.0266 121.445 12.2999C122.128 12.5732 122.849 12.7099 123.627 12.7099C124.189 12.7099 124.694 12.6363 125.151 12.4839C125.603 12.3315 126.008 12.1159 126.37 11.8321V7.32213H123.937V6.5547H128.531V12.2053C128.158 12.405 127.779 12.5838 127.396 12.7362C127.012 12.8886 126.602 13.02 126.16 13.1252C125.719 13.2303 125.23 13.3091 124.699 13.3617C124.168 13.4143 123.569 13.4458 122.896 13.4458C122.186 13.4458 121.508 13.367 120.872 13.2093C120.231 13.0516 119.637 12.8256 119.095 12.5365C118.549 12.2474 118.054 11.9004 117.618 11.4957C117.177 11.0909 116.803 10.6442 116.498 10.1553C116.194 9.66647 115.952 9.13558 115.784 8.57315C115.615 8.00546 115.531 7.422 115.531 6.82277C115.531 6.22355 115.61 5.63483 115.768 5.06189C115.925 4.48894 116.152 3.95279 116.451 3.44292C116.751 2.93831 117.108 2.4705 117.539 2.04999C117.965 1.62948 118.449 1.26679 118.985 0.961916C119.521 0.657047 120.105 0.42051 120.741 0.252306C121.371 0.084102 122.044 0 122.759 0C123.437 0 124.068 0.0946147 124.646 0.278588C125.225 0.462561 125.75 0.70961 126.229 1.00922C126.702 1.31409 127.127 1.66627 127.495 2.0605C127.863 2.45998 128.179 2.87524 128.447 3.30626L127.516 3.92651C126.975 2.88575 126.37 2.12357 125.708 1.64524C125.035 1.16691 124.273 0.925122 123.411 0.925122Z" fill="white"/>
<path d="M133.989 6.98824V13.154H131.828V0.296875H133.989V6.15248H140.444V0.296875H142.604V13.154H140.444V6.98824H133.989Z" fill="white"/>
<path d="M156.215 0.296875V1.13264H151.563V13.154H149.402V1.13264H144.75V0.296875H156.215Z" fill="white"/>
<path d="M162.531 12.6363C162.847 12.6363 163.162 12.5943 163.472 12.5049C163.783 12.4156 164.061 12.2894 164.308 12.1159C164.555 11.9425 164.75 11.7322 164.897 11.4852C165.044 11.2381 165.118 10.949 165.118 10.6179C165.118 10.2236 165.018 9.87147 164.813 9.5666C164.608 9.26173 164.345 8.97789 164.014 8.72558C163.683 8.47328 163.309 8.23148 162.884 8.00546C162.458 7.77943 162.027 7.55341 161.591 7.32739C161.149 7.10136 160.718 6.86482 160.297 6.61252C159.872 6.36547 159.498 6.08688 159.167 5.77675C158.836 5.47189 158.573 5.12496 158.368 4.74651C158.163 4.36805 158.063 3.93177 158.063 3.44292C158.063 2.95408 158.158 2.49678 158.342 2.07627C158.526 1.65576 158.794 1.29307 159.151 0.982942C159.509 0.678072 159.945 0.436279 160.466 0.262819C160.986 0.0893584 161.58 0 162.253 0C162.863 0 163.404 0.0630765 163.882 0.194486C164.361 0.325895 164.781 0.515125 165.144 0.767431C165.507 1.01974 165.812 1.32986 166.064 1.69781C166.316 2.06575 166.521 2.49152 166.674 2.97511L165.57 3.47972C165.438 3.08549 165.275 2.7228 165.076 2.39691C164.876 2.07101 164.634 1.79242 164.356 1.56114C164.077 1.32986 163.756 1.15115 163.394 1.02499C163.031 0.89884 162.616 0.835763 162.158 0.835763C161.754 0.835763 161.396 0.893584 161.091 1.00397C160.786 1.11435 160.534 1.26679 160.329 1.45076C160.124 1.63473 159.971 1.83973 159.872 2.07101C159.772 2.30229 159.719 2.53357 159.719 2.77537C159.719 3.11177 159.824 3.4219 160.029 3.70049C160.234 3.97908 160.513 4.24715 160.855 4.4942C161.196 4.74125 161.585 4.98304 162.022 5.21432C162.458 5.4456 162.905 5.68214 163.357 5.92393C163.809 6.16573 164.256 6.41278 164.692 6.67034C165.128 6.9279 165.517 7.21175 165.859 7.51661C166.201 7.82148 166.474 8.15789 166.684 8.52584C166.889 8.89378 166.994 9.29853 166.994 9.75057C166.994 10.2604 166.9 10.7388 166.705 11.1908C166.511 11.6376 166.222 12.0318 165.833 12.363C165.444 12.6941 164.965 12.957 164.387 13.1514C163.814 13.3459 163.141 13.4405 162.379 13.4405C161.759 13.4405 161.207 13.3722 160.723 13.2355C160.24 13.0989 159.809 12.9044 159.441 12.6468C159.073 12.3893 158.752 12.0739 158.484 11.7007C158.221 11.3275 158 10.9017 157.832 10.4234L158.989 9.95032C159.125 10.3708 159.309 10.744 159.535 11.0752C159.766 11.4063 160.029 11.6849 160.334 11.9162C160.639 12.1475 160.976 12.3209 161.349 12.4418C161.717 12.5785 162.111 12.6363 162.531 12.6363Z" fill="white"/>
<path d="M78.9867 28.0057C78.9762 27.8901 79.0078 27.806 78.8921 27.7639C78.7292 27.6956 78.5136 27.6641 78.3402 27.6641C77.6778 27.6641 77.0312 28.1582 77.0312 28.8783C77.0312 29.2199 77.1784 29.5038 77.4308 29.7193C77.6726 29.9243 77.9617 29.9979 78.2718 29.9979C78.5241 29.9979 78.7922 29.9453 79.0078 29.7981C79.0866 29.7456 79.0708 29.7035 79.0708 29.6089V29.1989C79.0708 29.1464 79.0656 29.0412 79.1076 29.0044C79.1339 28.9782 79.1812 28.9782 79.2128 28.9782L79.2758 28.9729C79.3074 28.9729 79.3389 28.9676 79.3389 28.9256C79.3389 28.8888 79.3074 28.8835 79.2811 28.8835C79.1602 28.8835 79.0446 28.8993 78.9289 28.8993C78.8027 28.8993 78.6818 28.8835 78.5557 28.8835C78.5241 28.8835 78.4768 28.8835 78.4768 28.9308C78.4768 28.9782 78.5241 28.9729 78.5609 28.9729C78.7607 28.9729 78.7975 29.0044 78.7975 29.2042V29.5038C78.7975 29.5879 78.8027 29.7456 78.7344 29.8034C78.6398 29.8875 78.4611 29.9033 78.3402 29.9033C78.0458 29.9033 77.7935 29.8192 77.5937 29.5826C77.4202 29.3724 77.3467 29.1253 77.3467 28.852C77.3467 28.5944 77.4308 28.2896 77.5937 28.0846C77.7672 27.8585 78.0142 27.7692 78.2876 27.7692C78.8974 27.7692 78.8343 28.2318 78.9499 28.2318C78.9867 28.2318 79.0025 28.195 79.0025 28.1582L78.9867 28.0057Z" fill="white"/>
<path d="M80.0157 28.0051C80.0157 27.9421 80.0052 27.8632 80.0683 27.8422C80.1261 27.8212 80.2733 27.8212 80.3311 27.8212C80.4468 27.8212 80.594 27.8212 80.7096 27.858C80.8253 27.8948 80.8726 27.9578 80.9251 28.0682L80.9777 28.1681C80.9882 28.1944 81.004 28.2417 81.0355 28.2417C81.0723 28.2417 81.0671 28.1891 81.0671 28.1681V27.858C81.0671 27.8107 81.0828 27.7266 81.0198 27.7266C80.7254 27.7266 80.4363 27.7423 80.1419 27.7423C79.9264 27.7423 79.7108 27.7266 79.4953 27.7266C79.4638 27.7266 79.4375 27.7423 79.4375 27.7791C79.4375 27.8212 79.4901 27.8212 79.5269 27.8212C79.7634 27.8212 79.7529 27.8948 79.7529 28.1155V29.5768C79.7529 29.8081 79.7687 29.8764 79.5269 29.8764C79.4901 29.8764 79.4375 29.8817 79.4375 29.9185C79.4375 29.9553 79.4638 29.971 79.4953 29.971C79.5637 29.971 79.6373 29.9553 79.7108 29.9553H81.0566C81.0828 29.9553 81.0934 29.9605 81.0934 29.9342L81.1459 29.5558C81.1512 29.5295 81.1617 29.498 81.1617 29.4717C81.1617 29.4454 81.1512 29.4349 81.1249 29.4349C81.0828 29.4349 81.0618 29.5295 81.046 29.5558C80.9304 29.8712 80.7412 29.8764 80.4415 29.8764C80.1682 29.8764 80.0157 29.8712 80.0157 29.5453V28.9198C80.0157 28.7989 80.0473 28.7989 80.1892 28.7989C80.2943 28.7989 80.4731 28.7989 80.6045 28.8304C80.6781 28.8462 80.7096 28.9566 80.7254 29.0617C80.7306 29.0827 80.7412 29.1248 80.7727 29.1248C80.7885 29.1248 80.8095 29.1195 80.8095 29.0617C80.8042 28.946 80.799 28.8409 80.7937 28.7253C80.799 28.6254 80.8095 28.515 80.8095 28.4151C80.8095 28.3889 80.7885 28.3784 80.7727 28.3784C80.7412 28.3784 80.7306 28.4151 80.7254 28.4414C80.7096 28.5466 80.6886 28.678 80.6045 28.6885C80.4678 28.7042 80.2891 28.7042 80.1892 28.7042C80.0473 28.7042 80.0157 28.7042 80.0157 28.536V28.0051Z" fill="white"/>
<path d="M84.6134 28.0051C84.6134 27.9421 84.6029 27.8632 84.666 27.8422C84.7238 27.8212 84.871 27.8212 84.9288 27.8212C85.0444 27.8212 85.1916 27.8212 85.3073 27.858C85.4229 27.8948 85.4702 27.9578 85.5228 28.0682L85.5754 28.1681C85.5859 28.1944 85.6016 28.2417 85.6332 28.2417C85.67 28.2417 85.6647 28.1891 85.6647 28.1681V27.858C85.6647 27.8107 85.6805 27.7266 85.6174 27.7266C85.323 27.7266 85.0339 27.7423 84.7396 27.7423C84.524 27.7423 84.3085 27.7266 84.093 27.7266C84.0614 27.7266 84.0352 27.7423 84.0352 27.7791C84.0352 27.8212 84.093 27.8212 84.1245 27.8212C84.3611 27.8212 84.3506 27.8948 84.3506 28.1155V29.5768C84.3506 29.8081 84.3663 29.8764 84.1245 29.8764C84.0877 29.8764 84.0352 29.8817 84.0352 29.9185C84.0352 29.9553 84.0614 29.971 84.093 29.971C84.1613 29.971 84.2402 29.9553 84.3085 29.9553H85.6542C85.6805 29.9553 85.691 29.9605 85.691 29.9342L85.7436 29.5558C85.7488 29.5295 85.7593 29.498 85.7593 29.4717C85.7593 29.4454 85.7488 29.4349 85.7225 29.4349C85.6805 29.4349 85.6595 29.5295 85.649 29.5558C85.5333 29.8712 85.3441 29.8764 85.0444 29.8764C84.7711 29.8764 84.6186 29.8712 84.6186 29.5453V28.9198C84.6186 28.7989 84.6554 28.7989 84.7921 28.7989C84.8972 28.7989 85.076 28.7989 85.2074 28.8304C85.281 28.8462 85.3125 28.9566 85.3283 29.0617C85.3336 29.0827 85.3441 29.1248 85.3756 29.1248C85.3914 29.1248 85.4124 29.1195 85.4124 29.0617C85.4071 28.946 85.4019 28.8409 85.3966 28.7253C85.4019 28.6254 85.4124 28.515 85.4124 28.4151C85.4124 28.3889 85.3914 28.3784 85.3756 28.3784C85.3441 28.3784 85.3336 28.4151 85.3283 28.4414C85.3125 28.5466 85.2915 28.678 85.2074 28.6885C85.0707 28.7042 84.892 28.7042 84.7921 28.7042C84.6502 28.7042 84.6186 28.7042 84.6186 28.536V28.0051H84.6134Z" fill="white"/>
<path d="M87.1793 29.5402L86.5642 28.0158C86.5485 27.9738 86.5222 27.9212 86.5222 27.8739C86.5222 27.8108 86.6694 27.8161 86.6957 27.8108C86.7219 27.8056 86.764 27.8056 86.764 27.7582C86.764 27.7162 86.7272 27.7162 86.7009 27.7162C86.5958 27.7162 86.4907 27.732 86.3855 27.732C86.2594 27.732 86.1437 27.7162 86.0228 27.7162C85.9913 27.7162 85.9492 27.7215 85.9492 27.7582C85.9492 27.8108 86.007 27.8108 86.0438 27.8108C86.2015 27.8108 86.2436 27.9212 86.2962 28.0526L87.0374 29.8923C87.0479 29.9134 87.0636 29.9922 87.1004 29.9922C87.1267 29.9922 87.1477 29.9134 87.1583 29.8923L87.8626 28.0947C87.8889 28.0211 87.9362 27.9107 87.9941 27.8581C88.0361 27.8213 88.0887 27.8108 88.136 27.8108C88.1675 27.8108 88.2201 27.8056 88.2201 27.7582C88.2201 27.7267 88.1991 27.7109 88.1728 27.7109C88.0782 27.7109 87.9783 27.7267 87.8837 27.7267C87.789 27.7267 87.6839 27.7109 87.5893 27.7109C87.5525 27.7109 87.5157 27.7215 87.5157 27.7635C87.5157 27.8161 87.6366 27.8056 87.6681 27.8056C87.7312 27.8056 87.8153 27.8213 87.8153 27.9054C87.8153 27.958 87.7838 28.0368 87.768 28.0894L87.1793 29.5402Z" fill="white"/>
<path d="M88.8282 28.0051C88.8282 27.9421 88.8177 27.8632 88.8808 27.8422C88.9386 27.8212 89.0858 27.8212 89.1436 27.8212C89.2593 27.8212 89.4065 27.8212 89.5221 27.858C89.6378 27.8948 89.6851 27.9578 89.7376 28.0682L89.7902 28.1681C89.8007 28.1944 89.8165 28.2417 89.848 28.2417C89.8848 28.2417 89.8796 28.1891 89.8796 28.1681V27.858C89.8796 27.8107 89.8953 27.7266 89.8323 27.7266C89.5379 27.7266 89.2488 27.7423 88.9544 27.7423C88.7389 27.7423 88.5181 27.7266 88.3078 27.7266C88.2763 27.7266 88.25 27.7423 88.25 27.7791C88.25 27.8212 88.3078 27.8212 88.3394 27.8212C88.5759 27.8212 88.5654 27.8948 88.5654 28.1155V29.5768C88.5654 29.8081 88.5812 29.8764 88.3394 29.8764C88.3026 29.8764 88.25 29.8817 88.25 29.9185C88.25 29.9553 88.2763 29.971 88.3078 29.971C88.3762 29.971 88.455 29.9553 88.5233 29.9553H89.8691C89.8953 29.9553 89.9058 29.9605 89.9058 29.9342L89.9584 29.5558C89.9637 29.5295 89.9742 29.498 89.9742 29.4717C89.9742 29.4454 89.9637 29.4349 89.9374 29.4349C89.8953 29.4349 89.8743 29.5295 89.8585 29.5558C89.7429 29.8712 89.5536 29.8764 89.254 29.8764C88.9807 29.8764 88.8282 29.8712 88.8282 29.5453V28.9198C88.8282 28.7989 88.865 28.7989 89.0017 28.7989C89.1068 28.7989 89.2856 28.7989 89.417 28.8304C89.4906 28.8462 89.5221 28.9566 89.5379 29.0617C89.5431 29.0827 89.5536 29.1248 89.5852 29.1248C89.601 29.1248 89.622 29.1195 89.622 29.0617C89.6167 28.946 89.6115 28.8409 89.6062 28.7253C89.6115 28.6254 89.622 28.515 89.622 28.4151C89.622 28.3889 89.601 28.3784 89.5852 28.3784C89.5536 28.3784 89.5431 28.4151 89.5379 28.4414C89.5221 28.5466 89.5011 28.678 89.417 28.6885C89.2803 28.7042 89.1016 28.7042 89.0017 28.7042C88.8598 28.7042 88.8282 28.7042 88.8282 28.536V28.0051Z" fill="white"/>
<path d="M83.3868 29.4954L82.0937 27.8502C82.0516 27.7923 82.0201 27.745 81.9412 27.724H81.4892C81.4471 27.724 81.3998 27.7293 81.3998 27.7818C81.3998 27.8239 81.4576 27.8239 81.4892 27.8239C81.7467 27.8239 81.7257 27.8975 81.7257 28.1235V29.5848C81.7257 29.8055 81.7467 29.8844 81.4892 29.8844C81.4576 29.8844 81.3945 29.8739 81.3945 29.9212C81.3945 29.9632 81.4261 29.9737 81.4576 29.9737C81.5627 29.9737 81.6731 29.958 81.7783 29.958C81.8887 29.958 81.9885 29.9737 82.0989 29.9737C82.1357 29.9737 82.162 29.958 82.162 29.9212C82.162 29.8739 82.1042 29.8844 82.0726 29.8844C81.8151 29.8844 81.8361 29.8108 81.8361 29.5848V27.9658L83.371 29.9212C83.3921 29.9527 83.4236 30.0053 83.4604 30.0053C83.4919 30.0053 83.4867 29.9527 83.4867 29.9369V28.1182C83.4867 27.8975 83.4709 27.8186 83.7232 27.8186C83.76 27.8186 83.8179 27.8186 83.8179 27.7766C83.8179 27.7398 83.7863 27.7188 83.7548 27.7188C83.6496 27.7188 83.5445 27.7345 83.4341 27.7345C83.3237 27.7345 83.2239 27.7188 83.1135 27.7188C83.0767 27.7188 83.0504 27.7345 83.0504 27.7766C83.0504 27.8186 83.1082 27.8186 83.1397 27.8186C83.3973 27.8186 83.3815 27.8922 83.3815 28.1182V29.4954H83.3868Z" fill="white"/>
<path d="M68.4183 20.3701C68.392 20.0495 68.4919 19.876 68.1765 19.7499C67.7297 19.5659 67.1515 19.4766 66.6784 19.4766C64.8911 19.4766 63.1406 20.8117 63.1406 22.7513C63.1406 23.6817 63.5296 24.4386 64.2182 25.0273C64.8701 25.5792 65.6533 25.7842 66.4891 25.7842C67.1672 25.7842 67.8926 25.637 68.4709 25.2533C68.6864 25.1061 68.6391 25.001 68.6391 24.7487V23.6291C68.6391 23.4819 68.6181 23.2033 68.739 23.0982C68.802 23.0299 68.944 23.0299 69.0281 23.0194L69.2068 22.9983C69.2909 22.9983 69.3855 22.9878 69.3855 22.8722C69.3855 22.7776 69.3014 22.7565 69.2278 22.7565H67.2618C67.1777 22.7565 67.0463 22.7565 67.0463 22.8827C67.0463 23.0088 67.1777 22.9983 67.2671 22.9983C67.8085 22.9983 67.8979 23.0824 67.8979 23.6291V24.4333C67.8979 24.6646 67.9189 25.0851 67.7192 25.2481C67.4563 25.4688 66.9727 25.5214 66.6573 25.5214C65.8583 25.5214 65.175 25.3006 64.644 24.6593C64.1709 24.0969 63.9764 23.4188 63.9764 22.683C63.9764 21.9839 64.2077 21.1639 64.644 20.6119C65.1171 20.0022 65.7795 19.7604 66.5154 19.7604C68.1607 19.7604 67.9873 21.0114 68.3027 21.0114C68.4078 21.0114 68.4393 20.9168 68.4393 20.8169L68.4183 20.3701Z" fill="white"/>
<path d="M70.4217 24.6554C70.4217 25.2651 70.4691 25.4596 69.8172 25.4596C69.7331 25.4596 69.5859 25.4491 69.5859 25.5752C69.5859 25.6803 69.6595 25.7014 69.7436 25.7014C70.0958 25.7014 70.4533 25.6646 70.8055 25.6646C71.1577 25.6646 71.4941 25.7014 71.8463 25.7014C71.9304 25.7014 72.004 25.6803 72.004 25.5752C72.004 25.4491 71.8463 25.4596 71.7622 25.4596C71.1209 25.4491 71.1577 25.2756 71.1577 24.6554V23.1625C71.1577 23.0732 71.1472 22.8419 71.205 22.7736C71.2523 22.7157 71.3364 22.7263 71.41 22.7263C72.1196 22.7263 72.1091 22.8051 72.4456 23.4832L73.3602 25.3702C73.4338 25.5174 73.4916 25.7014 73.6756 25.7014H74.6639C74.7375 25.7014 74.8321 25.6909 74.8321 25.5962C74.8321 25.4596 74.6639 25.4596 74.5903 25.4596C74.1803 25.4596 74.0383 25.0916 73.8754 24.75L73.1237 23.2414C72.9923 22.9891 72.8556 22.6527 72.5559 22.6001C73.3287 22.495 74.0278 21.9799 74.0278 21.0968C74.0278 20.077 73.1499 19.625 72.2668 19.625C71.7359 19.625 71.2155 19.6618 70.6741 19.6618C70.3744 19.6618 70.059 19.625 69.7594 19.625C69.6595 19.625 69.5912 19.6618 69.5912 19.7722C69.5912 19.8878 69.7384 19.8878 69.8225 19.8878C70.4743 19.8878 70.427 20.0718 70.427 20.692V24.6554H70.4217ZM71.1577 20.6027C71.1577 19.9246 71.1734 19.83 71.8831 19.83C72.7084 19.83 73.2235 20.3136 73.2235 21.2072C73.2235 21.5961 73.1026 21.9536 72.7978 22.1954C72.4456 22.474 72.0618 22.516 71.636 22.516C71.4783 22.516 71.1629 22.5843 71.1629 22.3425V20.6027H71.1577Z" fill="white"/>
<path d="M76.3085 24.6554C76.3085 25.2651 76.3558 25.4596 75.704 25.4596C75.6198 25.4596 75.4727 25.4491 75.4727 25.5752C75.4727 25.6803 75.5463 25.7014 75.6304 25.7014H77.733C77.8171 25.7014 77.8907 25.6803 77.8907 25.5752C77.8907 25.4491 77.733 25.4596 77.6489 25.4596C77.0076 25.4491 77.0444 25.2756 77.0444 24.6554V20.6815C77.0444 20.0718 76.9971 19.8878 77.6489 19.8878C77.733 19.8878 77.8907 19.8878 77.8907 19.7617C77.8907 19.6565 77.8171 19.625 77.733 19.625H75.6304C75.5357 19.625 75.4727 19.6513 75.4727 19.7617C75.4727 19.8878 75.6198 19.8878 75.704 19.8878C76.3558 19.8878 76.3085 20.0718 76.3085 20.6815V24.6554Z" fill="white"/>
<path d="M80.0943 22.8906C80.7251 23.1797 81.2297 23.5582 81.2297 24.3362C81.2297 25.1036 80.5411 25.5977 79.8419 25.5977C78.9956 25.5977 78.5646 25.0773 78.4752 24.2415C78.4647 24.1627 78.4647 23.9209 78.3438 23.9209C78.2387 23.9209 78.2124 24.0365 78.2019 24.1154C78.1756 24.3677 78.2071 24.6358 78.2071 24.8881C78.2071 25.0615 78.1493 25.2981 78.307 25.4032C78.696 25.645 79.2585 25.7817 79.7105 25.7817C80.252 25.7817 80.7829 25.6345 81.1982 25.277C81.5977 24.9301 81.85 24.4465 81.85 23.8999C81.85 23.4846 81.6713 23.0589 81.4032 22.7487C81.1824 22.4964 80.7881 22.2914 80.4833 22.1495C79.8787 21.8762 78.8537 21.5398 78.8537 20.704C78.8537 19.9944 79.4372 19.6685 80.0522 19.6685C80.7776 19.6685 81.0562 20.0259 81.2612 20.6935C81.2875 20.7618 81.3085 20.9143 81.4084 20.9143C81.4715 20.9143 81.5083 20.8669 81.5083 20.7986C81.4978 20.5463 81.5241 20.3098 81.5136 20.0575C81.503 19.884 81.482 19.7526 81.3033 19.6843C80.9616 19.5371 80.4202 19.4688 80.0575 19.4688C79.1428 19.4688 78.2597 20.089 78.2597 21.1035C78.2597 21.9655 78.9273 22.365 79.6106 22.6751L80.0943 22.8906Z" fill="white"/>
<path d="M82.2656 22.6251C82.2656 24.386 83.8374 25.7842 85.5142 25.7842C87.2805 25.7842 88.7523 24.4964 88.7523 22.6251C88.7523 20.7539 87.2805 19.4766 85.5142 19.4766C83.8374 19.4766 82.2656 20.859 82.2656 22.6251ZM87.906 22.6251C87.906 23.3505 87.7641 24.0023 87.3278 24.5805C86.881 25.1534 86.2502 25.5109 85.53 25.5109C84.8204 25.5109 84.1738 25.2113 83.727 24.6488C83.2696 24.0864 83.1014 23.3505 83.1014 22.6251C83.1014 21.926 83.2591 21.2007 83.6902 20.6487C84.137 20.06 84.8046 19.7394 85.5353 19.7394C86.2344 19.7394 86.8494 20.0705 87.2963 20.6225C87.7588 21.2112 87.906 21.8787 87.906 22.6251Z" fill="white"/>
<path d="M94.3588 20.4017C94.3325 20.081 94.3903 19.876 94.0749 19.7499C93.6281 19.5659 93.0499 19.4766 92.5768 19.4766C90.7895 19.4766 89.0391 20.8117 89.0391 22.7513C89.0391 23.6817 89.428 24.4386 90.1167 25.0273C90.7685 25.5792 91.5517 25.7842 92.3876 25.7842C93.0657 25.7842 93.7911 25.637 94.3693 25.2533C94.5848 25.1061 94.5375 25.001 94.5375 24.7487V23.6291C94.5375 23.4819 94.5165 23.2033 94.6374 23.0982C94.7005 23.0299 94.8424 23.0299 94.9265 23.0194L95.1052 22.9983C95.1893 22.9983 95.284 22.9878 95.284 22.8722C95.284 22.7723 95.1999 22.7565 95.1263 22.7565H93.1603C93.0762 22.7565 92.9448 22.7565 92.9448 22.8827C92.9448 23.0088 93.0762 22.9983 93.1708 22.9983C93.7122 22.9983 93.8016 23.0877 93.8016 23.6291V24.4333C93.8016 24.6646 93.8226 25.0851 93.6229 25.2481C93.36 25.4688 92.8764 25.5214 92.561 25.5214C91.762 25.5214 91.0786 25.3006 90.5477 24.6593C90.0746 24.0969 89.8801 23.4188 89.8801 22.683C89.8801 21.9839 90.1114 21.1639 90.5477 20.6119C91.0208 20.0022 91.6832 19.7604 92.4191 19.7604C94.0697 19.7604 93.891 21.0114 94.2064 21.0114C94.3115 21.0114 94.3483 20.9168 94.3483 20.8169L94.3588 20.4017Z" fill="white"/>
<path d="M95.5977 22.6251C95.5977 24.386 97.1694 25.7842 98.8463 25.7842C100.618 25.7842 102.084 24.4964 102.084 22.6251C102.084 20.7539 100.613 19.4766 98.8463 19.4766C97.1694 19.4766 95.5977 20.859 95.5977 22.6251ZM101.238 22.6251C101.238 23.3505 101.096 24.0023 100.66 24.5805C100.213 25.1534 99.5822 25.5109 98.862 25.5109C98.1524 25.5109 97.5006 25.2113 97.059 24.6488C96.6017 24.0864 96.4335 23.3505 96.4335 22.6251C96.4335 21.926 96.5912 21.2007 97.0222 20.6487C97.469 20.06 98.1419 19.7394 98.8673 19.7394C99.5664 19.7394 100.181 20.0705 100.628 20.6225C101.086 21.2112 101.238 21.8787 101.238 22.6251Z" fill="white"/>
<path d="M107.12 24.4136L103.824 19.9667C103.713 19.8142 103.64 19.6776 103.44 19.625H102.283C102.178 19.625 102.057 19.6355 102.057 19.7827C102.057 19.8878 102.205 19.8878 102.289 19.8878C102.941 19.8878 102.893 20.0823 102.893 20.692V24.6554C102.893 25.2546 102.941 25.4596 102.289 25.4596C102.205 25.4596 102.047 25.428 102.047 25.5594C102.047 25.6646 102.12 25.7066 102.215 25.7066H103.845C103.939 25.7066 104.002 25.6698 104.002 25.5594C104.002 25.4333 103.855 25.4596 103.771 25.4596C103.119 25.4596 103.167 25.2546 103.167 24.6554V20.2768L107.077 25.5647C107.125 25.6435 107.209 25.796 107.309 25.796C107.393 25.796 107.372 25.6593 107.372 25.612V20.692C107.372 20.0928 107.335 19.8878 107.976 19.8878C108.071 19.8878 108.218 19.8878 108.218 19.7827C108.218 19.6776 108.145 19.625 108.06 19.625H106.431C106.336 19.625 106.263 19.6723 106.263 19.7827C106.263 19.8878 106.41 19.8878 106.494 19.8878C107.146 19.8878 107.109 20.0823 107.109 20.692V24.4136H107.12Z" fill="white"/>
<path d="M107.891 22.6251C107.891 24.386 109.462 25.7842 111.139 25.7842C112.905 25.7842 114.377 24.4964 114.377 22.6251C114.377 20.7539 112.905 19.4766 111.139 19.4766C109.462 19.4766 107.891 20.859 107.891 22.6251ZM113.531 22.6251C113.531 23.3505 113.389 24.0023 112.953 24.5805C112.506 25.1534 111.875 25.5109 111.155 25.5109C110.445 25.5109 109.799 25.2113 109.352 24.6488C108.895 24.0864 108.726 23.3505 108.726 22.6251C108.726 21.926 108.884 21.2007 109.315 20.6487C109.762 20.06 110.43 19.7394 111.16 19.7394C111.859 19.7394 112.474 20.0705 112.921 20.6225C113.384 21.2112 113.531 21.8787 113.531 22.6251Z" fill="white"/>
<path d="M60.8581 23.2989C60.9475 23.2989 60.9633 23.2148 60.9633 23.1412C60.9633 22.8364 60.8319 22.4421 60.6531 22.2161C60.343 21.8219 59.8594 21.6484 59.3863 21.6484C58.787 21.6484 58.2403 21.8587 57.804 22.2634C57.3362 22.6839 57.168 23.1728 57.168 23.793C57.168 24.9389 58.0195 25.9008 59.176 25.9008C59.7227 25.9008 60.1538 25.7537 60.569 25.3857C60.6321 25.3332 60.9107 25.0808 60.9107 24.9757C60.9107 24.9389 60.8844 24.9021 60.8424 24.9021C60.7267 24.9021 60.4008 25.4961 59.5387 25.4961C58.4716 25.4961 57.8303 24.6078 57.8303 23.5828C57.8303 23.2779 57.9197 23.2989 58.193 23.2989H60.8581ZM58.1983 23.0834C58.1037 23.0834 57.8986 23.1097 57.8986 22.9625C57.8986 22.8154 58.0406 22.5315 58.1194 22.4316C58.3823 22.0479 58.8133 21.8166 59.2654 21.8166C59.5492 21.8166 59.8383 21.8902 60.0328 22.1005C60.159 22.2371 60.2641 22.4474 60.2641 22.6419C60.2641 22.8627 60.1327 22.9625 59.9382 23.0098C59.6806 23.0729 59.1918 23.0834 58.9184 23.0834H58.1983Z" fill="white"/>
<path d="M55.9092 24.6196C55.9092 24.8035 55.9355 24.9297 55.8198 25.0769C55.5728 25.3817 55.1417 25.5079 54.779 25.5079C53.8013 25.5079 53.2546 24.5617 53.2546 23.6471C53.2546 22.7325 53.8276 21.9073 54.7843 21.8127C55.0734 21.7864 55.4782 21.8968 55.6937 22.107C55.925 22.3278 55.904 22.6747 55.904 22.9585V24.6196H55.9092ZM56.5085 19.626C56.5085 19.5524 56.5085 19.5367 56.4191 19.5367C56.356 19.5367 55.5623 19.4893 55.3152 19.5367C55.2626 19.5472 55.2258 19.626 55.2258 19.6891C55.2258 19.81 55.3257 19.852 55.4046 19.8415C56.0301 19.7784 55.9092 20.3514 55.9092 20.6878V21.5604C55.9092 21.6129 55.946 21.902 55.8409 21.902C55.7988 21.902 55.7147 21.8652 55.6727 21.8495C55.3835 21.7286 55.0576 21.676 54.7317 21.655C54.1693 21.6287 53.6226 21.923 53.2283 22.312C52.8341 22.7062 52.6133 23.2109 52.6133 23.7891C52.6133 24.8876 53.3965 25.9074 54.5162 25.9074C55.2311 25.9074 55.7988 25.4711 55.8724 25.2924C55.9092 25.2083 55.9197 25.5605 55.9197 25.5972C55.9302 25.6498 55.9618 25.8443 56.0564 25.8443C56.109 25.8443 57.0972 25.8706 57.1445 25.8443C57.1445 25.8443 57.2234 25.7497 57.2339 25.6288C57.2339 25.6288 57.1182 25.5026 57.0552 25.5026H56.6662C56.498 25.5026 56.5242 25.0453 56.5242 24.9455L56.5085 19.626Z" fill="white"/>
</svg>
