<svg width="1920" height="1080" viewBox="0 0 1920 1080" fill="none" xmlns="http://www.w3.org/2000/svg">
<path fill-rule="evenodd" clip-rule="evenodd" d="M0 0H1920V1080H0V0ZM813.881 611.314V623.067H810V598.559H813.881V609.721H825.487V598.559H829.368V623.067H825.487V611.314H813.881ZM855.565 623.07L844.695 598.011H843.723L832.589 623.07H834.544L838.18 614.904H848.086L851.608 623.07H855.565ZM847.377 613.311H838.859L843.175 603.612L847.377 613.311ZM858.768 598.559H866.776C868.155 598.559 869.373 598.72 870.412 599.03C871.451 599.341 872.329 599.782 873.028 600.353C873.727 600.924 874.246 601.595 874.605 602.377C874.964 603.158 875.134 604.01 875.134 604.932C875.134 605.693 875.002 606.415 874.728 607.076C874.454 607.737 874.076 608.338 873.576 608.879C873.085 609.42 872.49 609.881 871.791 610.262C871.092 610.653 870.327 610.953 869.496 611.174L877.91 623.057H873.396L865.369 611.545H862.65V623.057H858.768V598.559ZM862.65 610.312H864.897C865.766 610.312 866.569 610.192 867.305 609.941C868.042 609.691 868.684 609.35 869.222 608.899C869.761 608.449 870.186 607.907 870.488 607.266C870.79 606.625 870.941 605.904 870.941 605.102C870.941 604.361 870.818 603.689 870.582 603.068C870.346 602.447 870.006 601.926 869.572 601.485C869.137 601.044 868.618 600.703 868.023 600.463C867.428 600.213 866.767 600.092 866.068 600.092H862.65V610.312ZM890.365 598.559H881.063V623.057H891.866C893.094 623.057 894.208 622.877 895.2 622.536C896.191 622.195 897.041 621.724 897.74 621.123C898.439 620.532 898.977 619.821 899.355 619.019C899.732 618.218 899.921 617.346 899.921 616.424C899.921 615.612 899.789 614.861 899.534 614.18C899.279 613.498 898.92 612.897 898.448 612.386C897.976 611.875 897.409 611.454 896.748 611.124C896.087 610.793 895.341 610.563 894.52 610.422V610.352C895.351 609.931 896.031 609.521 896.569 609.12C897.107 608.719 897.542 608.298 897.863 607.847C898.184 607.396 898.42 606.906 898.543 606.375C898.665 605.843 898.731 605.242 898.731 604.561C898.731 603.679 898.524 602.868 898.118 602.126C897.712 601.385 897.135 600.754 896.399 600.223C895.662 599.691 894.784 599.281 893.755 598.99C892.725 598.7 891.592 598.559 890.365 598.559ZM889.892 609.591H884.944V600.182H888.145C889.307 600.182 890.298 600.293 891.13 600.513C891.961 600.734 892.65 601.054 893.188 601.475C893.726 601.896 894.123 602.397 894.378 602.978C894.633 603.569 894.765 604.22 894.765 604.932C894.765 605.593 894.661 606.214 894.444 606.785C894.227 607.366 893.906 607.857 893.49 608.268C893.075 608.679 892.565 609.01 891.961 609.24C891.366 609.471 890.667 609.591 889.892 609.591ZM889.137 621.273H884.944H884.935V611.114H889.014C890.261 611.114 891.309 611.254 892.159 611.535C893.018 611.815 893.708 612.206 894.236 612.687C894.765 613.168 895.143 613.749 895.379 614.41C895.615 615.081 895.728 615.803 895.728 616.574C895.728 617.266 895.596 617.897 895.332 618.478C895.077 619.059 894.671 619.56 894.133 619.971C893.585 620.382 892.905 620.702 892.074 620.933C891.243 621.163 890.261 621.273 889.137 621.273ZM916.34 623.641C914.555 623.641 912.883 623.3 911.335 622.629C909.786 621.948 908.435 621.026 907.293 619.844C906.15 618.671 905.253 617.299 904.592 615.726C903.94 614.153 903.61 612.479 903.61 610.686C903.61 609.513 903.761 608.391 904.054 607.299C904.346 606.207 904.771 605.205 905.319 604.263C905.867 603.331 906.528 602.47 907.293 601.708C908.067 600.937 908.917 600.276 909.861 599.734C910.806 599.193 911.826 598.763 912.921 598.462C914.016 598.161 915.159 598.011 916.34 598.011C917.539 598.011 918.682 598.161 919.768 598.462C920.863 598.763 921.873 599.193 922.827 599.734C923.772 600.286 924.631 600.947 925.396 601.708C926.161 602.47 926.822 603.331 927.369 604.263C927.917 605.195 928.342 606.207 928.644 607.299C928.947 608.391 929.088 609.513 929.088 610.686C929.088 611.878 928.937 613.03 928.644 614.122C928.352 615.215 927.927 616.247 927.369 617.208C926.812 618.17 926.161 619.042 925.396 619.834C924.631 620.625 923.772 621.296 922.827 621.868C921.883 622.439 920.863 622.87 919.768 623.18C918.682 623.491 917.539 623.641 916.34 623.641ZM916.34 622.419C917.662 622.419 918.833 622.128 919.852 621.537C920.872 620.946 921.722 620.134 922.421 619.092C923.12 618.05 923.639 616.808 923.998 615.375C924.357 613.942 924.527 612.379 924.527 610.686C924.527 609.003 924.348 607.449 923.998 606.047C923.639 604.644 923.12 603.432 922.421 602.42C921.722 601.408 920.872 600.616 919.852 600.055C918.833 599.494 917.671 599.214 916.34 599.214C914.989 599.214 913.809 599.494 912.798 600.055C911.778 600.616 910.928 601.408 910.239 602.42C909.55 603.432 909.03 604.644 908.681 606.047C908.332 607.449 908.162 609.003 908.162 610.686C908.162 612.389 908.332 613.952 908.681 615.375C909.03 616.808 909.55 618.04 910.239 619.092C910.928 620.144 911.788 620.956 912.798 621.537C913.809 622.128 914.989 622.419 916.34 622.419ZM937.848 598.559H933.976V614.36C933.976 615.643 934.184 616.855 934.609 617.977C935.034 619.099 935.657 620.081 936.488 620.923C937.31 621.754 938.339 622.416 939.567 622.907C940.785 623.398 942.201 623.638 943.788 623.638C945.573 623.638 947.112 623.398 948.387 622.907C949.662 622.426 950.71 621.764 951.531 620.933C952.353 620.101 952.948 619.129 953.335 618.017C953.722 616.905 953.911 615.723 953.911 614.47V598.559H952.202V614.47C952.202 615.512 952.032 616.494 951.701 617.416C951.371 618.338 950.899 619.139 950.276 619.831C949.652 620.522 948.897 621.063 948.019 621.464C947.14 621.865 946.149 622.065 945.044 622.065C943.958 622.065 942.966 621.865 942.079 621.464C941.191 621.063 940.426 620.522 939.803 619.831C939.18 619.139 938.698 618.338 938.358 617.416C938.018 616.504 937.848 615.522 937.848 614.47V598.559ZM959.809 598.559H967.817C969.196 598.559 970.414 598.72 971.453 599.03C972.492 599.341 973.37 599.782 974.069 600.353C974.768 600.924 975.287 601.595 975.646 602.377C976.005 603.158 976.175 604.01 976.175 604.932C976.175 605.693 976.042 606.415 975.769 607.076C975.495 607.737 975.117 608.338 974.617 608.879C974.125 609.42 973.53 609.881 972.832 610.262C972.133 610.653 971.368 610.953 970.537 611.174L978.951 623.057H974.437L966.41 611.545H963.69V623.057H959.809V598.559ZM963.7 610.312H965.947C966.816 610.312 967.619 610.192 968.355 609.941C969.092 609.691 969.734 609.35 970.273 608.899C970.811 608.449 971.236 607.907 971.538 607.266C971.84 606.625 971.991 605.904 971.991 605.102C971.991 604.361 971.868 603.689 971.632 603.068C971.396 602.447 971.056 601.926 970.622 601.485C970.188 601.044 969.668 600.703 969.073 600.463C968.478 600.213 967.817 600.092 967.109 600.092H963.7V610.312ZM993.307 598.559H989.425V623.067H1004.94V621.474H993.307V598.559ZM1008.41 598.559H1012.29V623.067H1008.41V598.559ZM1027.85 600.545C1029.02 600.024 1030.31 599.763 1031.7 599.763C1033.25 599.763 1034.62 600.224 1035.83 601.136C1037.02 602.048 1038.11 603.501 1039.08 605.485L1040.75 604.302C1040.27 603.481 1039.7 602.689 1039.04 601.928C1038.38 601.176 1037.62 600.505 1036.77 599.924C1035.91 599.353 1034.96 598.882 1033.92 598.531C1032.88 598.18 1031.75 598 1030.53 598C1029.25 598 1028.04 598.16 1026.91 598.481C1025.76 598.802 1024.72 599.252 1023.75 599.834C1022.79 600.415 1021.92 601.106 1021.16 601.908C1020.38 602.709 1019.74 603.601 1019.2 604.563C1018.66 605.535 1018.26 606.557 1017.97 607.649C1017.69 608.741 1017.55 609.863 1017.55 611.005C1017.55 612.148 1017.7 613.26 1018 614.342C1018.3 615.414 1018.74 616.426 1019.29 617.358C1019.83 618.289 1020.5 619.141 1021.3 619.913C1022.08 620.684 1022.97 621.345 1023.95 621.896C1024.92 622.448 1025.99 622.878 1027.14 623.179C1028.29 623.48 1029.5 623.63 1030.78 623.63C1031.99 623.63 1033.06 623.57 1034.02 623.47C1034.97 623.369 1035.85 623.219 1036.64 623.019C1037.44 622.818 1038.17 622.568 1038.86 622.277C1039.55 621.987 1040.23 621.646 1040.9 621.265V610.494H1032.65V611.957H1037.02V620.554C1036.37 621.095 1035.64 621.506 1034.83 621.796C1034.01 622.087 1033.1 622.227 1032.09 622.227C1030.69 622.227 1029.4 621.967 1028.17 621.446C1026.95 620.925 1025.89 620.173 1024.99 619.201C1024.09 618.229 1023.38 617.047 1022.87 615.664C1022.35 614.272 1022.09 612.719 1022.09 610.995C1022.09 609.282 1022.34 607.729 1022.81 606.346C1023.28 604.964 1023.94 603.781 1024.8 602.799C1025.66 601.817 1026.68 601.066 1027.85 600.545ZM1050.71 611.314V623.067H1046.83V598.559H1050.71V609.721H1062.31V598.559H1066.19V623.067H1062.31V611.314H1050.71ZM1090.63 600.152V598.559H1070.04V600.152H1078.39V623.067H1082.27V600.152H1090.63ZM1101.98 622.087C1102.55 622.087 1103.12 622.007 1103.67 621.836C1104.23 621.666 1104.73 621.426 1105.17 621.095C1105.62 620.764 1105.97 620.364 1106.23 619.893C1106.5 619.422 1106.63 618.871 1106.63 618.239C1106.63 617.488 1106.45 616.817 1106.08 616.235C1105.71 615.654 1105.24 615.113 1104.65 614.632C1104.05 614.151 1103.38 613.69 1102.62 613.26C1102.29 613.078 1101.97 612.897 1101.64 612.716C1101.2 612.466 1100.75 612.217 1100.29 611.967C1099.5 611.536 1098.72 611.085 1097.97 610.604C1097.2 610.134 1096.53 609.603 1095.94 609.011C1095.34 608.43 1094.87 607.769 1094.5 607.048C1094.14 606.326 1093.96 605.495 1093.96 604.563C1093.96 603.631 1094.13 602.759 1094.46 601.958C1094.79 601.156 1095.27 600.465 1095.91 599.874C1096.55 599.293 1097.34 598.832 1098.27 598.501C1099.21 598.17 1100.27 598 1101.48 598C1102.58 598 1103.55 598.12 1104.41 598.371C1105.27 598.621 1106.02 598.982 1106.68 599.463C1107.33 599.944 1107.88 600.535 1108.33 601.236C1108.78 601.938 1109.15 602.749 1109.42 603.671L1107.44 604.633C1107.2 603.881 1106.91 603.19 1106.55 602.569C1106.19 601.948 1105.76 601.417 1105.26 600.976C1104.76 600.535 1104.18 600.194 1103.53 599.954C1102.88 599.713 1102.13 599.593 1101.31 599.593C1100.58 599.593 1099.94 599.703 1099.4 599.914C1098.85 600.124 1098.39 600.415 1098.03 600.765C1097.66 601.116 1097.38 601.507 1097.2 601.948C1097.02 602.389 1096.93 602.829 1096.93 603.29C1096.93 603.932 1097.12 604.523 1097.49 605.054C1097.86 605.585 1098.36 606.096 1098.97 606.567C1099.58 607.038 1100.28 607.498 1101.07 607.939C1101.85 608.38 1102.65 608.831 1103.47 609.292C1104.28 609.753 1105.08 610.224 1105.86 610.715C1106.65 611.206 1107.35 611.747 1107.96 612.328C1108.57 612.909 1109.07 613.55 1109.44 614.252C1109.81 614.953 1110 615.724 1110 616.586C1110 617.558 1109.83 618.47 1109.48 619.331C1109.13 620.183 1108.61 620.935 1107.91 621.566C1107.21 622.197 1106.35 622.698 1105.32 623.069C1104.29 623.439 1103.08 623.62 1101.71 623.62C1100.59 623.62 1099.6 623.49 1098.73 623.229C1097.87 622.969 1097.09 622.598 1096.43 622.107C1095.77 621.616 1095.19 621.015 1094.71 620.303C1094.24 619.592 1093.84 618.78 1093.54 617.869L1095.62 616.967C1095.86 617.768 1096.19 618.48 1096.6 619.111C1097.02 619.742 1097.49 620.273 1098.04 620.714C1098.58 621.155 1099.19 621.486 1099.86 621.716C1100.52 621.977 1101.23 622.087 1101.98 622.087ZM955.385 660.578C955.385 660.626 955.385 660.677 955.39 660.732L955.417 661.059C955.417 661.137 955.39 661.216 955.326 661.216C955.265 661.216 955.233 661.125 955.188 660.998C955.084 660.706 954.914 660.225 954.178 660.225C953.704 660.225 953.276 660.417 952.975 660.901C952.693 661.34 952.547 661.993 952.547 662.545C952.547 663.131 952.674 663.66 952.975 664.11C953.321 664.617 953.759 664.797 954.269 664.797C954.478 664.797 954.788 664.763 954.952 664.583C955.063 664.468 955.062 664.165 955.062 663.979V663.978L955.062 663.941V663.3C955.062 662.872 954.998 662.804 954.651 662.804C954.588 662.804 954.506 662.815 954.506 662.714C954.506 662.613 954.588 662.613 954.642 662.613C954.861 662.613 955.071 662.646 955.289 662.646C955.31 662.646 955.331 662.646 955.352 662.645L955.388 662.644C955.407 662.643 955.425 662.642 955.443 662.641C955.466 662.639 955.489 662.638 955.512 662.636L955.584 662.63L955.588 662.63C955.69 662.621 955.794 662.613 955.9 662.613C955.918 662.613 955.937 662.614 955.954 662.621C955.98 662.632 956 662.655 956 662.703C956 662.793 955.945 662.804 955.891 662.804L955.781 662.815C955.727 662.815 955.645 662.815 955.599 662.872C955.588 662.884 955.579 662.899 955.571 662.917C955.545 662.978 955.538 663.066 955.536 663.148C955.535 663.174 955.535 663.199 955.535 663.222L955.535 663.288V664.167C955.535 664.187 955.536 664.207 955.536 664.225L955.537 664.253C955.54 664.398 955.542 664.477 955.426 664.572C955.052 664.887 954.588 665 954.15 665C953.613 665 953.112 664.842 952.693 664.403C952.255 663.941 952 663.333 952 662.601C952 661.059 953.121 660 954.269 660C954.569 660 954.943 660.068 955.226 660.214C955.382 660.284 955.383 660.409 955.385 660.578ZM958.005 660.508C958.005 660.47 958.006 660.433 958.011 660.399C958.015 660.373 958.021 660.349 958.03 660.328C958.035 660.318 958.04 660.308 958.047 660.299C958.049 660.296 958.05 660.294 958.052 660.291C958.055 660.288 958.058 660.285 958.06 660.282C958.071 660.272 958.083 660.264 958.098 660.258C958.132 660.242 958.183 660.231 958.241 660.224C958.354 660.211 958.488 660.211 958.555 660.211C958.756 660.211 959.012 660.211 959.213 660.293C959.415 660.375 959.497 660.515 959.588 660.761L959.68 660.984L959.684 660.998C959.703 661.058 959.73 661.148 959.781 661.148C959.813 661.148 959.827 661.118 959.832 661.082C959.836 661.055 959.836 661.024 959.836 661V661L959.835 660.984V660.293C959.835 660.283 959.836 660.273 959.836 660.262L959.837 660.238C959.841 660.133 959.845 660 959.753 660C959.406 660 959.062 660.016 958.717 660.027L958.616 660.029L958.521 660.032C958.423 660.034 958.324 660.035 958.226 660.035C958.038 660.035 957.851 660.026 957.663 660.018C957.576 660.013 957.489 660.009 957.402 660.006C957.301 660.003 957.201 660 957.101 660C957.077 660 957.055 660.007 957.037 660.021C957.026 660.03 957.016 660.043 957.01 660.06C957.003 660.075 957 660.094 957 660.117C957 660.211 957.091 660.211 957.155 660.211C957.55 660.211 957.55 660.361 957.549 660.806L957.549 660.867V664.122L957.549 664.211C957.55 664.655 957.551 664.789 957.155 664.789C957.091 664.789 957 664.801 957 664.883C957 664.965 957.046 665 957.101 665C957.133 665 957.165 664.997 957.199 664.994C957.226 664.991 957.253 664.987 957.281 664.983C957.322 664.977 957.363 664.971 957.404 664.968C957.428 664.966 957.452 664.965 957.476 664.965H959.817C959.822 664.965 959.827 664.965 959.832 664.965L959.833 664.965H959.835H959.837C959.849 664.966 959.858 664.966 959.865 664.964C959.876 664.96 959.881 664.948 959.881 664.918L959.973 664.075C959.982 664.016 960 663.946 960 663.888C960 663.829 959.982 663.806 959.936 663.806C959.882 663.806 959.848 663.919 959.823 664.002L959.823 664.003C959.814 664.033 959.806 664.059 959.799 664.075C959.598 664.778 959.268 664.789 958.747 664.789C958.271 664.789 958.006 664.778 958.006 664.052V662.658C958.006 662.389 958.061 662.389 958.308 662.389C958.491 662.389 958.802 662.389 959.031 662.459C959.159 662.494 959.213 662.74 959.241 662.974C959.25 663.021 959.268 663.115 959.323 663.115C959.329 663.115 959.335 663.114 959.341 663.112C959.347 663.11 959.353 663.107 959.359 663.101C959.361 663.099 959.363 663.096 959.366 663.093C959.368 663.089 959.371 663.084 959.373 663.078C959.374 663.075 959.376 663.071 959.377 663.067C959.383 663.046 959.387 663.017 959.387 662.974C959.383 662.845 959.378 662.722 959.373 662.599L959.368 662.445L959.36 662.225C959.363 662.154 959.366 662.081 959.37 662.008L959.374 661.929C959.377 661.879 959.379 661.828 959.381 661.778C959.385 661.695 959.387 661.613 959.387 661.534C959.387 661.514 959.383 661.498 959.376 661.486C959.363 661.462 959.341 661.452 959.323 661.452C959.268 661.452 959.25 661.534 959.241 661.593C959.213 661.827 959.177 662.119 959.031 662.143C958.92 662.159 958.793 662.168 958.672 662.173C958.533 662.178 958.401 662.178 958.308 662.178C958.061 662.178 958.006 662.178 958.006 661.803V660.621L958.006 660.605C958.006 660.593 958.006 660.581 958.005 660.568V660.567C958.005 660.548 958.005 660.528 958.005 660.508ZM968.463 660.258C968.317 660.304 968.341 660.48 968.341 660.621H968.354V661.803C968.354 662.178 968.427 662.178 968.756 662.178C968.988 662.178 969.402 662.178 969.72 662.143C969.915 662.119 969.963 661.827 970 661.593C970.007 661.56 970.017 661.52 970.038 661.491C970.048 661.477 970.061 661.466 970.076 661.459C970.079 661.458 970.081 661.457 970.084 661.456L970.087 661.455L970.091 661.454C970.097 661.453 970.103 661.452 970.11 661.452C970.146 661.452 970.195 661.475 970.195 661.534C970.195 661.685 970.184 661.848 970.173 662.006V662.007V662.008L970.164 662.136C970.162 662.166 970.16 662.195 970.159 662.225C970.171 662.482 970.183 662.717 970.195 662.974C970.195 663.103 970.146 663.115 970.11 663.115C970.082 663.115 970.061 663.101 970.046 663.082C970.02 663.051 970.008 663.003 970 662.974C969.963 662.74 969.89 662.494 969.72 662.459C969.415 662.389 969 662.389 968.756 662.389C968.439 662.389 968.354 662.389 968.354 662.658V664.052C968.354 664.778 968.707 664.789 969.341 664.789C970.037 664.789 970.476 664.778 970.744 664.075C970.746 664.07 970.748 664.064 970.751 664.056L970.759 664.031L970.76 664.03C970.779 663.971 970.809 663.884 970.852 663.838C970.87 663.818 970.891 663.806 970.915 663.806C970.976 663.806 971 663.829 971 663.888C971 663.896 970.999 663.905 970.998 663.915L970.997 663.923C970.996 663.933 970.995 663.942 970.993 663.952C970.988 663.974 970.982 663.997 970.977 664.019C970.972 664.039 970.967 664.057 970.963 664.075L970.841 664.918C970.841 664.967 970.824 664.967 970.782 664.965H970.78H970.778L970.765 664.965L970.756 664.965H967.634C967.555 664.965 967.469 664.974 967.384 664.982L967.334 664.987L967.29 664.992C967.237 664.997 967.184 665 967.134 665C967.087 665 967.045 664.986 967.021 664.954C967.008 664.936 967 664.912 967 664.883C967 664.801 967.122 664.789 967.207 664.789C967.735 664.789 967.734 664.655 967.732 664.211L967.732 664.122V660.867L967.732 660.806C967.733 660.361 967.733 660.211 967.207 660.211C967.16 660.211 967.088 660.211 967.042 660.186C967.017 660.172 967 660.15 967 660.117C967 660.035 967.061 660 967.134 660C967.384 660 967.634 660.009 967.884 660.018C968.134 660.026 968.384 660.035 968.634 660.035C968.976 660.035 969.314 660.026 969.652 660.018L969.845 660.013C969.939 660.01 970.032 660.008 970.125 660.006C970.262 660.003 970.398 660.001 970.535 660C970.58 660 970.626 660 970.671 660C970.794 660 970.788 660.133 970.782 660.238C970.781 660.257 970.781 660.276 970.781 660.293V660.984L970.781 661C970.782 661.053 970.784 661.148 970.707 661.148C970.7 661.148 970.692 661.146 970.686 661.144C970.682 661.143 970.678 661.142 970.675 661.14C970.628 661.117 970.599 661.048 970.579 660.998L970.573 660.984L970.451 660.761C970.329 660.515 970.219 660.375 969.951 660.293C969.683 660.211 969.341 660.211 969.073 660.211C969.017 660.211 968.924 660.211 968.825 660.214C968.781 660.216 968.736 660.218 968.693 660.221C968.629 660.226 968.569 660.233 968.52 660.243C968.513 660.244 968.505 660.246 968.498 660.248C968.485 660.251 968.474 660.254 968.463 660.258ZM973.167 664.009L972.083 660.668C972.056 660.576 972.009 660.461 972.009 660.357C972.009 660.245 972.179 660.232 972.268 660.224C972.289 660.222 972.306 660.221 972.315 660.219C972.361 660.207 972.435 660.207 972.435 660.104C972.435 660.012 972.37 660.012 972.324 660.012C972.139 660.012 971.954 660.046 971.768 660.046C971.658 660.046 971.552 660.037 971.447 660.029L971.446 660.029L971.442 660.029C971.396 660.025 971.35 660.021 971.304 660.018C971.246 660.014 971.188 660.012 971.13 660.012C971.097 660.012 971.058 660.016 971.031 660.035L971.028 660.038L971.025 660.04C971.023 660.042 971.021 660.044 971.02 660.046C971.015 660.051 971.011 660.056 971.008 660.062C971.003 660.074 971 660.087 971 660.104C971 660.219 971.102 660.219 971.167 660.219C971.441 660.219 971.516 660.455 971.607 660.737L971.611 660.749L972.917 664.781C972.935 664.827 972.963 665 973.028 665C973.033 665 973.038 664.998 973.042 664.994L973.046 664.991L973.049 664.988L973.053 664.984C973.055 664.98 973.058 664.977 973.06 664.973L973.066 664.963C973.069 664.958 973.071 664.953 973.074 664.947C973.089 664.913 973.102 664.869 973.113 664.833L973.113 664.831L973.119 664.813C973.123 664.8 973.127 664.789 973.13 664.781L974.37 660.841C974.417 660.68 974.5 660.438 974.602 660.323C974.676 660.242 974.768 660.219 974.852 660.219C974.907 660.219 975 660.207 975 660.104C975 660.035 974.963 660 974.917 660C974.834 660 974.749 660.009 974.664 660.017L974.662 660.017L974.66 660.017C974.575 660.026 974.49 660.035 974.407 660.035C974.394 660.035 974.38 660.034 974.367 660.034L974.349 660.033L974.328 660.032C974.299 660.031 974.271 660.029 974.242 660.026C974.211 660.023 974.181 660.02 974.15 660.017L974.148 660.017L974.146 660.017C974.115 660.014 974.084 660.011 974.053 660.008C973.997 660.004 973.942 660 973.889 660C973.824 660 973.759 660.023 973.759 660.115C973.759 660.23 973.972 660.207 974.028 660.207C974.139 660.207 974.287 660.242 974.287 660.426C974.287 660.514 974.255 660.636 974.227 660.739L974.227 660.74L974.212 660.797L974.204 660.829L973.167 664.009ZM976.341 660.567V660.568V660.569L976.341 660.594L976.341 660.621V661.803C976.341 662.178 976.415 662.178 976.744 662.178C976.868 662.178 977.044 662.178 977.23 662.173C977.392 662.168 977.56 662.159 977.707 662.143C977.902 662.119 977.951 661.827 977.988 661.593C977.993 661.568 978 661.539 978.012 661.515C978.029 661.48 978.055 661.452 978.098 661.452C978.134 661.452 978.183 661.475 978.183 661.534C978.183 661.601 978.181 661.67 978.177 661.74C978.173 661.829 978.167 661.919 978.16 662.008C978.155 662.082 978.15 662.154 978.146 662.225C978.152 662.354 978.159 662.477 978.165 662.599L978.176 662.825L978.183 662.974C978.183 663.103 978.134 663.115 978.098 663.115C978.024 663.115 978 663.021 977.988 662.974C977.951 662.74 977.878 662.494 977.707 662.459C977.402 662.389 976.988 662.389 976.744 662.389C976.427 662.389 976.341 662.389 976.341 662.658V664.052C976.341 664.778 976.695 664.789 977.329 664.789C978.024 664.789 978.463 664.778 978.732 664.075C978.742 664.059 978.752 664.033 978.765 664.002C978.798 663.918 978.843 663.806 978.915 663.806C978.95 663.806 978.973 663.814 978.987 663.832L978.989 663.836L978.991 663.839L978.993 663.843C978.995 663.847 978.996 663.853 978.997 663.858L978.999 663.866L978.999 663.869C979 663.875 979 663.881 979 663.888C979 663.928 978.988 663.975 978.977 664.019C978.972 664.039 978.967 664.057 978.963 664.075L978.841 664.918C978.841 664.977 978.817 664.965 978.756 664.965H975.634C975.555 664.965 975.469 664.974 975.384 664.982C975.352 664.986 975.32 664.989 975.289 664.992C975.269 664.994 975.25 664.995 975.23 664.996C975.21 664.998 975.19 664.999 975.171 664.999C975.159 665 975.146 665 975.134 665C975.061 665 975 664.965 975 664.883C975 664.801 975.122 664.789 975.207 664.789C975.735 664.789 975.734 664.655 975.732 664.211L975.732 664.122V660.867L975.732 660.806C975.733 660.361 975.733 660.211 975.207 660.211C975.193 660.211 975.177 660.211 975.16 660.21C975.119 660.208 975.074 660.203 975.042 660.186C975.017 660.172 975 660.15 975 660.117C975 660.035 975.061 660 975.134 660C975.253 660 975.373 660.002 975.494 660.005C975.62 660.009 975.747 660.013 975.875 660.017C976.036 660.023 976.199 660.029 976.36 660.032C976.452 660.034 976.543 660.035 976.634 660.035C976.976 660.035 977.314 660.026 977.652 660.018C977.991 660.009 978.329 660 978.671 660C978.794 660 978.787 660.133 978.782 660.238L978.781 660.26C978.781 660.271 978.78 660.282 978.78 660.293V660.984L978.781 661C978.782 661.053 978.784 661.148 978.707 661.148C978.689 661.148 978.672 661.141 978.658 661.129C978.653 661.125 978.648 661.121 978.643 661.116C978.638 661.111 978.634 661.105 978.63 661.099C978.619 661.083 978.609 661.066 978.601 661.048C978.59 661.025 978.581 661.002 978.573 660.984L978.451 660.761C978.329 660.515 978.219 660.375 977.951 660.293C977.683 660.211 977.341 660.211 977.073 660.211C976.939 660.211 976.598 660.211 976.463 660.258C976.335 660.299 976.338 660.439 976.341 660.567ZM962.443 660.287L965.1 663.87V660.874L965.1 660.793C965.102 660.362 965.102 660.218 964.601 660.218C964.536 660.218 964.417 660.218 964.417 660.126C964.417 660.034 964.471 660 964.547 660C964.774 660 964.98 660.034 965.208 660.034C965.324 660.034 965.436 660.026 965.547 660.017L965.549 660.017L965.553 660.016C965.614 660.012 965.676 660.007 965.737 660.004C965.781 660.001 965.825 660 965.87 660C965.935 660 966 660.046 966 660.126C966 660.218 965.881 660.218 965.805 660.218C965.314 660.218 965.315 660.372 965.316 660.793L965.317 660.874V664.851C965.317 664.885 965.328 665 965.262 665C965.192 665 965.131 664.902 965.088 664.833L965.078 664.816L961.911 660.54V664.08C961.911 664.117 961.911 664.151 961.911 664.184C961.908 664.598 961.907 664.736 962.399 664.736C962.409 664.736 962.419 664.735 962.43 664.735C962.496 664.732 962.583 664.728 962.583 664.816C962.583 664.897 962.529 664.931 962.453 664.931C962.339 664.931 962.231 664.922 962.123 664.914C962.014 664.905 961.906 664.897 961.792 664.897C961.575 664.897 961.347 664.931 961.13 664.931C961.092 664.931 961.053 664.923 961.028 664.898C961.02 664.889 961.014 664.879 961.009 664.867C961.005 664.859 961.003 664.85 961.002 664.84C961.001 664.833 961 664.825 961 664.816C961 664.727 961.096 664.732 961.164 664.735L961.167 664.735C961.177 664.735 961.187 664.736 961.195 664.736C961.688 664.736 961.687 664.588 961.684 664.182L961.683 664.128L961.683 664.08V660.885C961.683 660.849 961.684 660.814 961.684 660.781C961.687 660.368 961.688 660.23 961.195 660.23C961.13 660.23 961.011 660.23 961.011 660.138C961.011 660.023 961.108 660.011 961.195 660.011H962.128C962.284 660.056 962.35 660.152 962.432 660.272L962.443 660.287ZM933.821 641.641C933.82 641.785 933.818 641.945 933.832 642.125L933.879 643.188C933.879 643.425 933.808 643.65 933.572 643.65C933.357 643.65 933.243 643.374 933.085 642.99C932.724 642.114 932.131 640.675 929.566 640.675C927.916 640.675 926.431 641.25 925.37 642.7C924.392 644.013 923.874 645.963 923.874 647.625C923.874 649.375 924.31 650.987 925.37 652.325C926.561 653.85 928.093 654.375 929.884 654.375C930.591 654.375 931.675 654.25 932.264 653.725C932.675 653.37 932.669 652.498 932.666 651.932L932.665 651.852L932.665 651.787V649.875C932.665 648.575 932.465 648.375 931.251 648.375L931.208 648.375C931.011 648.377 930.756 648.379 930.756 648.1C930.756 647.8 931.05 647.8 931.239 647.8H935.646C935.811 647.8 936 647.85 936 648.075C936 648.35 935.788 648.375 935.599 648.375L935.199 648.425C935.01 648.45 934.692 648.45 934.551 648.612C934.312 648.833 934.32 649.372 934.325 649.737C934.326 649.786 934.327 649.833 934.327 649.875V652.537C934.327 652.637 934.329 652.726 934.332 652.808C934.346 653.223 934.353 653.445 933.949 653.737C932.653 654.65 931.027 655 929.507 655C927.633 655 925.877 654.513 924.416 653.2C922.872 651.8 922 650 922 647.787C922 643.175 925.924 640 929.931 640C930.992 640 932.288 640.213 933.29 640.65C933.83 640.879 933.827 641.174 933.821 641.641ZM937.753 652.418C937.753 652.518 937.753 652.613 937.753 652.704C937.759 653.985 937.761 654.403 936.485 654.403L936.447 654.403C936.268 654.401 936 654.399 936 654.689C936 654.948 936.154 655 936.331 655C936.877 655 937.43 654.95 937.98 654.924C938.11 654.918 938.24 654.914 938.369 654.911C938.405 654.91 938.44 654.91 938.476 654.91C938.503 654.909 938.53 654.909 938.557 654.909C938.926 654.909 939.287 654.932 939.648 654.955C940.009 654.977 940.37 655 940.739 655C940.916 655 941.07 654.948 941.07 654.689C941.07 654.398 940.783 654.401 940.601 654.403L940.563 654.403C939.29 654.379 939.291 653.994 939.295 652.654L939.295 652.614L939.296 652.418V648.733L939.295 648.678L939.295 648.642V648.641C939.292 648.383 939.288 647.921 939.395 647.773C939.481 647.649 939.625 647.652 939.763 647.655C939.783 647.655 939.804 647.656 939.825 647.656C941.216 647.656 941.287 647.826 941.867 649.217C941.907 649.313 941.95 649.416 941.996 649.524L943.914 654.182C943.935 654.231 943.955 654.282 943.975 654.333C944.106 654.66 944.241 655 944.575 655H946.647C946.802 655 947 654.974 947 654.74C947 654.403 946.647 654.403 946.493 654.403C945.694 654.403 945.38 653.618 945.066 652.83C945.042 652.771 945.018 652.711 944.994 652.651L943.418 648.927C943.388 648.86 943.358 648.79 943.327 648.719C943.076 648.133 942.788 647.46 942.227 647.344C943.848 647.085 945.314 645.813 945.314 643.633C945.314 641.116 943.473 640 941.621 640C941.067 640 940.519 640.022 939.968 640.045C939.411 640.068 938.852 640.091 938.282 640.091C937.967 640.091 937.645 640.068 937.323 640.045C937 640.023 936.678 640 936.364 640C936.154 640 936.011 640.091 936.011 640.363C936.011 640.649 936.32 640.649 936.496 640.649C937.772 640.649 937.77 641.045 937.764 642.343C937.764 642.436 937.763 642.532 937.763 642.634V652.418H937.753ZM939.296 642.414C939.296 640.74 939.329 640.506 940.817 640.506C942.547 640.506 943.627 641.7 943.627 643.906C943.627 644.866 943.374 645.748 942.734 646.345C941.996 647.033 941.191 647.137 940.299 647.137C940.286 647.137 940.272 647.137 940.258 647.137C940.213 647.139 940.163 647.142 940.111 647.146L940.109 647.146C939.765 647.172 939.307 647.205 939.307 646.708V642.414H939.296ZM949.729 652.704C949.729 652.613 949.728 652.518 949.728 652.418V642.608L949.728 642.51C949.729 642.446 949.729 642.383 949.729 642.322C949.735 641.045 949.737 640.649 948.478 640.649C948.304 640.649 948 640.649 948 640.337C948 640.065 948.13 640 948.326 640H952.674C952.848 640 953 640.078 953 640.337C953 640.649 952.674 640.649 952.5 640.649C951.242 640.649 951.243 641.045 951.249 642.322L951.25 642.456L951.25 642.608V652.418L951.25 652.614L951.25 652.654C951.246 653.994 951.245 654.379 952.5 654.403L952.538 654.403C952.717 654.401 953 654.398 953 654.689C953 654.948 952.848 655 952.674 655H948.326C948.152 655 948 654.948 948 654.689C948 654.399 948.264 654.401 948.441 654.403L948.478 654.403C949.737 654.403 949.735 653.985 949.729 652.704ZM958.161 648.131C959.54 648.818 960.644 649.717 960.644 651.565C960.644 653.389 959.138 654.563 957.609 654.563C955.759 654.563 954.816 653.326 954.621 651.341C954.617 651.313 954.614 651.277 954.611 651.235C954.592 650.996 954.558 650.579 954.333 650.579C954.103 650.579 954.046 650.853 954.023 651.041C953.986 651.43 954.002 651.835 954.017 652.236C954.026 652.452 954.034 652.667 954.034 652.877C954.034 652.931 954.032 652.989 954.029 653.048C954.027 653.08 954.025 653.113 954.023 653.147C954.002 653.507 953.979 653.902 954.253 654.101C955.103 654.675 956.333 655 957.322 655C958.506 655 959.667 654.65 960.575 653.801C961.448 652.977 962 651.828 962 650.529C962 649.542 961.609 648.53 961.023 647.794C960.54 647.194 959.678 646.707 959.011 646.37C958.864 646.297 958.706 646.223 958.54 646.146C957.218 645.527 955.448 644.7 955.448 642.935C955.448 641.249 956.724 640.475 958.069 640.475C959.655 640.475 960.264 641.324 960.713 642.91C960.724 642.942 960.735 642.982 960.746 643.024C960.795 643.201 960.859 643.435 961.034 643.435C961.172 643.435 961.253 643.322 961.253 643.16C961.241 642.86 961.25 642.57 961.259 642.279C961.267 641.989 961.276 641.699 961.264 641.399C961.241 640.987 961.195 640.674 960.805 640.512C960.057 640.162 958.874 640 958.08 640C956.08 640 954.149 641.474 954.149 643.884C954.149 645.933 955.609 646.882 957.103 647.619L958.161 648.131ZM970.011 655C966.392 655 963 651.675 963 647.487C963 643.287 966.392 640 970.011 640C973.823 640 977 643.037 977 647.487C977 651.938 973.823 655 970.011 655ZM973.925 652.138C974.867 650.763 975.173 649.213 975.173 647.487C975.173 645.713 974.856 644.125 973.857 642.725C972.893 641.412 971.566 640.625 970.057 640.625C968.48 640.625 967.039 641.388 966.075 642.787C965.144 644.1 964.804 645.825 964.804 647.487C964.804 649.213 965.167 650.963 966.154 652.3C967.118 653.638 968.514 654.35 970.045 654.35C971.6 654.35 972.961 653.5 973.925 652.138ZM988.907 641.828L988.907 641.825C988.887 641.273 988.873 640.898 988.29 640.65C987.288 640.213 985.992 640 984.931 640C980.924 640 977 643.175 977 647.787C977 650 977.872 651.8 979.416 653.2C980.877 654.513 982.633 655 984.507 655C986.027 655 987.653 654.65 988.95 653.737C989.353 653.445 989.346 653.223 989.332 652.808C989.331 652.775 989.33 652.739 989.329 652.703C989.328 652.651 989.327 652.596 989.327 652.537V649.875C989.327 649.852 989.326 649.827 989.326 649.801L989.325 649.737C989.32 649.372 989.312 648.833 989.551 648.612C989.692 648.45 990.01 648.45 990.199 648.425L990.599 648.375C990.788 648.375 991 648.35 991 648.075C991 647.838 990.811 647.8 990.646 647.8H986.239C986.051 647.8 985.756 647.8 985.756 648.1C985.756 648.379 986.011 648.377 986.217 648.375L986.263 648.375C987.476 648.375 987.677 648.588 987.677 649.875V651.787C987.677 651.833 987.677 651.881 987.677 651.932C987.681 652.499 987.687 653.37 987.276 653.725C986.687 654.25 985.603 654.375 984.896 654.375C983.104 654.375 981.572 653.85 980.382 652.325C979.322 650.987 978.885 649.375 978.885 647.625C978.885 645.963 979.404 644.013 980.382 642.7C981.443 641.25 982.928 640.675 984.577 640.675C987.152 640.675 987.741 642.115 988.1 642.992C988.257 643.375 988.369 643.65 988.584 643.65C988.82 643.65 988.902 643.425 988.902 643.188L988.926 642.2C988.916 642.069 988.911 641.946 988.907 641.831L988.907 641.828ZM998.011 655C994.392 655 991 651.675 991 647.487C991 643.287 994.392 640 998.011 640C1001.82 640 1005 643.037 1005 647.487C1005 651.938 1001.83 655 998.011 655ZM1001.93 652.138C1002.87 650.763 1003.17 649.213 1003.17 647.487C1003.17 645.713 1002.84 644.125 1001.86 642.725C1000.89 641.412 999.566 640.625 998.057 640.625C996.491 640.625 995.039 641.388 994.075 642.787C993.144 644.1 992.804 645.825 992.804 647.487C992.804 649.213 993.167 650.963 994.154 652.3C995.107 653.638 996.514 654.35 998.045 654.35C999.6 654.35 1000.96 653.5 1001.93 652.138ZM1008.74 640.831L1015.66 651.605V642.594L1015.66 642.407L1015.66 642.368C1015.67 641.063 1015.67 640.639 1014.37 640.639C1014.19 640.639 1013.88 640.639 1013.88 640.383C1013.88 640.115 1014.04 640 1014.24 640H1017.67C1017.84 640 1018 640.128 1018 640.383C1018 640.639 1017.69 640.639 1017.49 640.639C1016.21 640.639 1016.21 641.085 1016.22 642.369L1016.22 642.407L1016.22 642.594V654.553C1016.22 654.668 1016.26 655 1016.08 655C1015.89 655 1015.72 654.674 1015.62 654.475L1015.6 654.438L1007.36 641.584V652.227L1007.36 652.339L1007.36 652.504C1007.35 653.748 1007.35 654.182 1008.63 654.182C1008.66 654.182 1008.68 654.181 1008.71 654.18C1008.89 654.172 1009.12 654.161 1009.12 654.425C1009.12 654.693 1008.99 654.783 1008.79 654.783H1005.35C1005.16 654.783 1005 654.681 1005 654.425C1005 654.154 1005.24 654.168 1005.42 654.179L1005.44 654.18L1005.47 654.181L1005.49 654.182L1005.51 654.182C1006.79 654.182 1006.79 653.748 1006.78 652.504L1006.78 652.378L1006.78 652.227V642.594C1006.78 642.495 1006.78 642.402 1006.78 642.312C1006.79 641.051 1006.79 640.639 1005.51 640.639C1005.33 640.639 1005.02 640.639 1005.02 640.383C1005.02 640.026 1005.28 640 1005.5 640H1007.93C1008.3 640.112 1008.47 640.382 1008.66 640.697C1008.69 640.741 1008.71 640.785 1008.74 640.831ZM1024.51 655C1021.15 655 1018 651.675 1018 647.487C1018 643.287 1021.15 640 1024.51 640C1028.05 640 1031 643.037 1031 647.487C1031 651.938 1028.05 655 1024.51 655ZM1028.15 652.138C1029.02 650.763 1029.3 649.213 1029.3 647.487C1029.3 645.713 1029.01 644.125 1028.08 642.725C1027.19 641.412 1025.95 640.625 1024.55 640.625C1023.09 640.625 1021.75 641.388 1020.85 642.787C1019.99 644.1 1019.68 645.825 1019.68 647.487C1019.68 649.213 1020.01 650.963 1020.93 652.3C1021.82 653.638 1023.12 654.35 1024.54 654.35C1025.99 654.35 1027.25 653.5 1028.15 652.138ZM916.778 648.881C916.967 648.881 917 648.684 917 648.51C917 647.794 916.723 646.867 916.346 646.335C915.693 645.408 914.673 645 913.676 645C912.413 645 911.26 645.494 910.341 646.446C909.355 647.435 909 648.585 909 650.043C909 652.738 910.795 655 913.233 655C914.385 655 915.294 654.654 916.169 653.789C916.302 653.665 916.889 653.072 916.889 652.824C916.889 652.738 916.834 652.651 916.745 652.651C916.68 652.651 916.583 652.752 916.44 652.899C916.052 653.3 915.327 654.048 913.997 654.048C911.748 654.048 910.396 651.959 910.396 649.549C910.396 648.877 910.561 648.878 911.056 648.881L911.118 648.881L911.161 648.881H916.778ZM911.172 648.375C910.972 648.375 910.54 648.436 910.54 648.09C910.54 647.744 910.839 647.077 911.006 646.842C911.56 645.939 912.468 645.396 913.421 645.396C914.019 645.396 914.629 645.569 915.039 646.063C915.305 646.384 915.526 646.879 915.526 647.336C915.526 647.855 915.249 648.09 914.839 648.201C914.296 648.35 913.266 648.375 912.69 648.375H911.172ZM906.422 652.179C906.421 652.115 906.42 652.048 906.42 651.978H906.41V648.08C906.41 648.029 906.41 647.978 906.41 647.926C906.413 647.292 906.416 646.56 906 646.081C905.58 645.588 904.792 645.329 904.229 645.391C902.365 645.613 901.249 647.549 901.249 649.696C901.249 651.842 902.314 654.062 904.218 654.062C904.925 654.062 905.765 653.766 906.246 653.051C906.434 652.762 906.429 652.507 906.422 652.179ZM907.413 640.049C907.587 640.049 907.587 640.086 907.587 640.259L907.618 652.743C907.618 652.765 907.617 652.795 907.617 652.831C907.611 653.172 907.598 654.05 907.894 654.05H908.652C908.775 654.05 909 654.346 909 654.346C908.979 654.63 908.826 654.852 908.826 654.852C908.749 654.903 907.403 654.869 906.894 654.856C906.792 654.854 906.724 654.852 906.706 654.852C906.533 654.852 906.469 654.448 906.444 654.298L906.44 654.272C906.44 654.186 906.42 653.359 906.348 653.557C906.205 653.976 905.099 655 903.706 655C901.526 655 900 652.607 900 650.029C900 648.672 900.43 647.488 901.198 646.562C901.966 645.65 903.031 644.959 904.126 645.021C904.761 645.07 905.396 645.193 905.959 645.477C905.974 645.484 905.991 645.492 906.011 645.501C906.098 645.542 906.22 645.6 906.287 645.6C906.461 645.6 906.435 645.111 906.424 644.888C906.421 644.848 906.42 644.817 906.42 644.799V642.751C906.42 642.646 906.424 642.53 906.428 642.41C906.457 641.629 906.493 640.636 905.437 640.765C905.283 640.789 905.089 640.691 905.089 640.407C905.089 640.259 905.16 640.074 905.263 640.049C905.744 639.938 907.29 640.049 907.413 640.049Z" fill="white"/>
</svg>
