<svg width="131" height="30" viewBox="0 0 131 30" fill="none" xmlns="http://www.w3.org/2000/svg">
<path d="M39.2753 5.44888L47.043 6.59181L46.9042 4.76562H39.2753H39.1834H37.4805V22.8464H39.2753V14.0978L45.217 14.5366V13.106L39.2753 13.4273V5.44888Z" fill="white"/>
<path d="M57.3671 4.76562L57.7238 5.66719L50.7695 22.8464H52.5825L54.3379 17.402H62.3656L64.519 22.8464H66.4327L59.432 4.76562H57.3671ZM54.5975 16.5966L57.9428 6.22039L62.0467 16.5966H54.5975Z" fill="white"/>
<path d="M6.58733 12.4637C0.204513 9.28988 1.68258 5.88578 4.32371 5.35166C6.88547 5.18099 8.50506 7.4644 8.50506 7.4644L8.77639 7.46943V5.33585C8.77639 5.33585 7.20515 4.37916 4.24083 4.61022C2.12809 4.86072 -0.0324073 5.97147 0.000368282 8.41138C0.0334951 10.9131 2.69581 12.6391 4.90817 13.7125C9.39796 15.8909 9.7098 21.6379 5.16276 22.2873C1.86881 22.4902 0.807936 18.344 0.807936 18.344L0.604142 18.3354V21.5096C0.604142 21.5096 1.13054 23.2464 5.23452 23.051C9.04843 22.7618 10.7257 20.319 10.7542 18.5589C10.7736 17.3796 10.9501 14.6327 6.58733 12.4636V12.4637Z" fill="white"/>
<path d="M130.301 6.58837L130.162 4.76172H122.533H122.507H120.738V22.8429H122.441H122.533H130.003L130.301 20.7765L122.533 22.1248V14.0939L128.475 14.5328V13.1025L122.533 13.4237V5.43537L130.301 6.58837Z" fill="white"/>
<path d="M111.948 21.831L100.275 4.76562H98.112L97.6797 22.8443H99.3838L98.6699 5.59426L110.28 22.8443H112.497L112.86 4.76562H111.199L111.948 21.831Z" fill="white"/>
<path d="M83.1285 4.74158C80.9719 4.32872 79.1418 4.69195 78.9215 4.73912C78.7939 4.76979 77.7701 4.91798 76.3883 5.63565C74.8246 6.44825 73.0066 8.18384 72.1652 10.7343L68.0087 0L67.5859 0.103946L79.1614 30L79.5907 29.9122L76.6381 22.2871C77.2854 22.6068 77.9427 22.8324 78.5746 22.9708C80.8096 23.4616 82.6358 23.1659 82.6358 23.1659C82.6358 23.1659 84.084 22.9936 85.5396 22.3203C88.0773 21.1467 91.1454 18.3224 90.6772 13.3245C90.1273 7.46009 86.2793 5.34477 83.1286 4.74193L83.1285 4.74158ZM82.333 22.5019C81.7139 22.5379 79.4636 22.5652 77.521 21.2681C76.6738 20.702 75.9216 19.8933 75.3274 18.9015C75.3274 18.9015 74.8416 18.1536 74.5969 17.428C74.3516 16.702 74.179 15.9352 74.179 15.9352C74.0204 15.1955 73.9334 14.4116 73.9334 13.594C73.9334 6.28953 79.0578 5.41524 79.0578 5.41524C79.833 5.17913 82.4374 5.00847 84.6508 6.29725C86.909 7.61167 88.5477 10.8066 88.5477 14.2752C88.5477 21.6556 83.3592 22.4342 82.333 22.5018V22.5019Z" fill="white"/>
<path d="M21.9923 4.76562L22.3488 5.66719L15.3945 22.8464H17.2076L18.963 17.402H26.9907L29.1441 22.8464H31.0577L24.057 4.76562H21.9923ZM19.2226 16.5966L22.5678 6.22039L26.6718 16.5966H19.2226Z" fill="white"/>
</svg>
