<svg width="1920" height="1080" viewBox="0 0 1920 1080" fill="none" xmlns="http://www.w3.org/2000/svg">
<path fill-rule="evenodd" clip-rule="evenodd" d="M0 0H1920V1080H0V0ZM813.881 678.314V690.067H810V665.559H813.881V676.721H825.487V665.559H829.368V690.067H825.487V678.314H813.881ZM855.565 690.07L844.695 665.011H843.723L832.589 690.07H834.544L838.18 681.904H848.086L851.608 690.07H855.565ZM847.377 680.311H838.859L843.175 670.612L847.377 680.311ZM858.768 665.559H866.776C868.155 665.559 869.373 665.72 870.412 666.03C871.451 666.341 872.329 666.782 873.028 667.353C873.727 667.924 874.246 668.595 874.605 669.377C874.964 670.158 875.134 671.01 875.134 671.932C875.134 672.693 875.002 673.415 874.728 674.076C874.454 674.737 874.076 675.338 873.576 675.879C873.085 676.42 872.49 676.881 871.791 677.262C871.092 677.653 870.327 677.953 869.496 678.174L877.91 690.057H873.396L865.369 678.545H862.65V690.057H858.768V665.559ZM862.65 677.312H864.897C865.766 677.312 866.569 677.192 867.305 676.941C868.042 676.691 868.684 676.35 869.222 675.899C869.761 675.449 870.186 674.907 870.488 674.266C870.79 673.625 870.941 672.904 870.941 672.102C870.941 671.361 870.818 670.689 870.582 670.068C870.346 669.447 870.006 668.926 869.572 668.485C869.137 668.044 868.618 667.703 868.023 667.463C867.428 667.213 866.767 667.092 866.068 667.092H862.65V677.312ZM890.365 665.559H881.063V690.057H891.866C893.094 690.057 894.208 689.877 895.2 689.536C896.191 689.195 897.041 688.724 897.74 688.123C898.439 687.532 898.977 686.821 899.355 686.019C899.732 685.218 899.921 684.346 899.921 683.424C899.921 682.612 899.789 681.861 899.534 681.18C899.279 680.498 898.92 679.897 898.448 679.386C897.976 678.875 897.409 678.454 896.748 678.124C896.087 677.793 895.341 677.563 894.52 677.422V677.352C895.351 676.931 896.031 676.521 896.569 676.12C897.107 675.719 897.542 675.298 897.863 674.847C898.184 674.396 898.42 673.906 898.543 673.375C898.665 672.843 898.731 672.242 898.731 671.561C898.731 670.679 898.524 669.868 898.118 669.126C897.712 668.385 897.135 667.754 896.399 667.223C895.662 666.691 894.784 666.281 893.755 665.99C892.725 665.7 891.592 665.559 890.365 665.559ZM889.892 676.591H884.944V667.182H888.145C889.307 667.182 890.298 667.293 891.13 667.513C891.961 667.734 892.65 668.054 893.188 668.475C893.726 668.896 894.123 669.397 894.378 669.978C894.633 670.569 894.765 671.22 894.765 671.932C894.765 672.593 894.661 673.214 894.444 673.785C894.227 674.366 893.906 674.857 893.49 675.268C893.075 675.679 892.565 676.01 891.961 676.24C891.366 676.471 890.667 676.591 889.892 676.591ZM889.137 688.273H884.944H884.935V678.114H889.014C890.261 678.114 891.309 678.254 892.159 678.535C893.018 678.815 893.708 679.206 894.236 679.687C894.765 680.168 895.143 680.749 895.379 681.41C895.615 682.081 895.728 682.803 895.728 683.574C895.728 684.266 895.596 684.897 895.332 685.478C895.077 686.059 894.671 686.56 894.133 686.971C893.585 687.382 892.905 687.702 892.074 687.933C891.243 688.163 890.261 688.273 889.137 688.273ZM916.34 690.641C914.555 690.641 912.883 690.3 911.335 689.629C909.786 688.948 908.435 688.026 907.293 686.844C906.15 685.671 905.253 684.299 904.592 682.726C903.94 681.153 903.61 679.479 903.61 677.686C903.61 676.513 903.761 675.391 904.054 674.299C904.346 673.207 904.771 672.205 905.319 671.263C905.867 670.331 906.528 669.47 907.293 668.708C908.067 667.937 908.917 667.276 909.861 666.734C910.806 666.193 911.826 665.763 912.921 665.462C914.016 665.161 915.159 665.011 916.34 665.011C917.539 665.011 918.682 665.161 919.768 665.462C920.863 665.763 921.873 666.193 922.827 666.734C923.772 667.286 924.631 667.947 925.396 668.708C926.161 669.47 926.822 670.331 927.369 671.263C927.917 672.195 928.342 673.207 928.644 674.299C928.947 675.391 929.088 676.513 929.088 677.686C929.088 678.878 928.937 680.03 928.644 681.122C928.352 682.215 927.927 683.247 927.369 684.208C926.812 685.17 926.161 686.042 925.396 686.834C924.631 687.625 923.772 688.296 922.827 688.868C921.883 689.439 920.863 689.87 919.768 690.18C918.682 690.491 917.539 690.641 916.34 690.641ZM916.34 689.419C917.662 689.419 918.833 689.128 919.852 688.537C920.872 687.946 921.722 687.134 922.421 686.092C923.12 685.05 923.639 683.808 923.998 682.375C924.357 680.942 924.527 679.379 924.527 677.686C924.527 676.003 924.348 674.449 923.998 673.047C923.639 671.644 923.12 670.432 922.421 669.42C921.722 668.408 920.872 667.616 919.852 667.055C918.833 666.494 917.671 666.214 916.34 666.214C914.989 666.214 913.809 666.494 912.798 667.055C911.778 667.616 910.928 668.408 910.239 669.42C909.55 670.432 909.03 671.644 908.681 673.047C908.332 674.449 908.162 676.003 908.162 677.686C908.162 679.389 908.332 680.952 908.681 682.375C909.03 683.808 909.55 685.04 910.239 686.092C910.928 687.144 911.788 687.956 912.798 688.537C913.809 689.128 914.989 689.419 916.34 689.419ZM937.848 665.559H933.976V681.36C933.976 682.643 934.184 683.855 934.609 684.977C935.034 686.099 935.657 687.081 936.488 687.923C937.31 688.754 938.339 689.416 939.567 689.907C940.785 690.398 942.201 690.638 943.788 690.638C945.573 690.638 947.112 690.398 948.387 689.907C949.662 689.426 950.71 688.764 951.531 687.933C952.353 687.101 952.948 686.129 953.335 685.017C953.722 683.905 953.911 682.723 953.911 681.47V665.559H952.202V681.47C952.202 682.512 952.032 683.494 951.701 684.416C951.371 685.338 950.899 686.139 950.276 686.831C949.652 687.522 948.897 688.063 948.019 688.464C947.14 688.865 946.149 689.065 945.044 689.065C943.958 689.065 942.966 688.865 942.079 688.464C941.191 688.063 940.426 687.522 939.803 686.831C939.18 686.139 938.698 685.338 938.358 684.416C938.018 683.504 937.848 682.522 937.848 681.47V665.559ZM959.809 665.559H967.817C969.196 665.559 970.414 665.72 971.453 666.03C972.492 666.341 973.37 666.782 974.069 667.353C974.768 667.924 975.287 668.595 975.646 669.377C976.005 670.158 976.175 671.01 976.175 671.932C976.175 672.693 976.042 673.415 975.769 674.076C975.495 674.737 975.117 675.338 974.617 675.879C974.125 676.42 973.53 676.881 972.832 677.262C972.133 677.653 971.368 677.953 970.537 678.174L978.951 690.057H974.437L966.41 678.545H963.69V690.057H959.809V665.559ZM963.7 677.312H965.947C966.816 677.312 967.619 677.192 968.355 676.941C969.092 676.691 969.734 676.35 970.273 675.899C970.811 675.449 971.236 674.907 971.538 674.266C971.84 673.625 971.991 672.904 971.991 672.102C971.991 671.361 971.868 670.689 971.632 670.068C971.396 669.447 971.056 668.926 970.622 668.485C970.188 668.044 969.668 667.703 969.073 667.463C968.478 667.213 967.817 667.092 967.109 667.092H963.7V677.312ZM993.307 665.559H989.425V690.067H1004.94V688.474H993.307V665.559ZM1008.41 665.559H1012.29V690.067H1008.41V665.559ZM1027.85 667.545C1029.02 667.024 1030.31 666.763 1031.7 666.763C1033.25 666.763 1034.62 667.224 1035.83 668.136C1037.02 669.048 1038.11 670.501 1039.08 672.485L1040.75 671.302C1040.27 670.481 1039.7 669.689 1039.04 668.928C1038.38 668.176 1037.62 667.505 1036.77 666.924C1035.91 666.353 1034.96 665.882 1033.92 665.531C1032.88 665.18 1031.75 665 1030.53 665C1029.25 665 1028.04 665.16 1026.91 665.481C1025.76 665.802 1024.72 666.252 1023.75 666.834C1022.79 667.415 1021.92 668.106 1021.16 668.908C1020.38 669.709 1019.74 670.601 1019.2 671.563C1018.66 672.535 1018.26 673.557 1017.97 674.649C1017.69 675.741 1017.55 676.863 1017.55 678.005C1017.55 679.148 1017.7 680.26 1018 681.342C1018.3 682.414 1018.74 683.426 1019.29 684.358C1019.83 685.289 1020.5 686.141 1021.3 686.913C1022.08 687.684 1022.97 688.345 1023.95 688.896C1024.92 689.448 1025.99 689.878 1027.14 690.179C1028.29 690.48 1029.5 690.63 1030.78 690.63C1031.99 690.63 1033.06 690.57 1034.02 690.47C1034.97 690.369 1035.85 690.219 1036.64 690.019C1037.44 689.818 1038.17 689.568 1038.86 689.277C1039.55 688.987 1040.23 688.646 1040.9 688.265V677.494H1032.65V678.957H1037.02V687.554C1036.37 688.095 1035.64 688.506 1034.83 688.796C1034.01 689.087 1033.1 689.227 1032.09 689.227C1030.69 689.227 1029.4 688.967 1028.17 688.446C1026.95 687.925 1025.89 687.173 1024.99 686.201C1024.09 685.229 1023.38 684.047 1022.87 682.664C1022.35 681.272 1022.09 679.719 1022.09 677.995C1022.09 676.282 1022.34 674.729 1022.81 673.346C1023.28 671.964 1023.94 670.781 1024.8 669.799C1025.66 668.817 1026.68 668.066 1027.85 667.545ZM1050.71 678.314V690.067H1046.83V665.559H1050.71V676.721H1062.31V665.559H1066.19V690.067H1062.31V678.314H1050.71ZM1090.63 667.152V665.559H1070.04V667.152H1078.39V690.067H1082.27V667.152H1090.63ZM1101.98 689.087C1102.55 689.087 1103.12 689.007 1103.67 688.836C1104.23 688.666 1104.73 688.426 1105.17 688.095C1105.62 687.764 1105.97 687.364 1106.23 686.893C1106.5 686.422 1106.63 685.871 1106.63 685.239C1106.63 684.488 1106.45 683.817 1106.08 683.235C1105.71 682.654 1105.24 682.113 1104.65 681.632C1104.05 681.151 1103.38 680.69 1102.62 680.26C1101.85 679.829 1101.08 679.398 1100.29 678.967C1099.5 678.536 1098.72 678.085 1097.97 677.604C1097.2 677.134 1096.53 676.603 1095.94 676.011C1095.34 675.43 1094.87 674.769 1094.5 674.048C1094.14 673.326 1093.96 672.495 1093.96 671.563C1093.96 670.631 1094.13 669.759 1094.46 668.958C1094.79 668.156 1095.27 667.465 1095.91 666.874C1096.55 666.293 1097.34 665.832 1098.27 665.501C1099.21 665.17 1100.27 665 1101.48 665C1102.58 665 1103.55 665.12 1104.41 665.371C1105.27 665.621 1106.02 665.982 1106.68 666.463C1107.33 666.944 1107.88 667.535 1108.33 668.236C1108.78 668.938 1109.15 669.749 1109.42 670.671L1107.44 671.633C1107.2 670.881 1106.91 670.19 1106.55 669.569C1106.19 668.948 1105.76 668.417 1105.26 667.976C1104.76 667.535 1104.18 667.194 1103.53 666.954C1102.88 666.713 1102.13 666.593 1101.31 666.593C1100.58 666.593 1099.94 666.703 1099.4 666.914C1098.85 667.124 1098.39 667.415 1098.03 667.765C1097.66 668.116 1097.38 668.507 1097.2 668.948C1097.02 669.389 1096.93 669.829 1096.93 670.29C1096.93 670.932 1097.12 671.523 1097.49 672.054C1097.86 672.585 1098.36 673.096 1098.97 673.567C1099.58 674.038 1100.28 674.498 1101.07 674.939L1101.82 675.361C1102.36 675.666 1102.91 675.977 1103.47 676.292C1104.28 676.753 1105.08 677.224 1105.86 677.715C1106.65 678.206 1107.35 678.747 1107.96 679.328C1108.57 679.909 1109.07 680.55 1109.44 681.252C1109.81 681.953 1110 682.724 1110 683.586C1110 684.558 1109.83 685.47 1109.48 686.331C1109.13 687.183 1108.61 687.935 1107.91 688.566C1107.21 689.197 1106.35 689.698 1105.32 690.069C1104.29 690.439 1103.08 690.62 1101.71 690.62C1100.59 690.62 1099.6 690.49 1098.73 690.229C1097.87 689.969 1097.09 689.598 1096.43 689.107C1095.77 688.616 1095.19 688.015 1094.71 687.303C1094.24 686.592 1093.84 685.78 1093.54 684.869L1095.62 683.967C1095.86 684.768 1096.19 685.48 1096.6 686.111C1097.02 686.742 1097.49 687.273 1098.04 687.714C1098.58 688.155 1099.19 688.486 1099.86 688.716C1100.52 688.977 1101.23 689.087 1101.98 689.087ZM955.226 727.214C955.426 727.304 955.371 727.484 955.39 727.732L955.417 728.059C955.417 728.137 955.39 728.216 955.326 728.216C955.265 728.216 955.233 728.125 955.188 727.998C955.084 727.706 954.914 727.225 954.178 727.225C953.704 727.225 953.276 727.417 952.975 727.901C952.693 728.34 952.547 728.993 952.547 729.545C952.547 730.131 952.674 730.66 952.975 731.11C953.321 731.617 953.759 731.797 954.269 731.797C954.478 731.797 954.788 731.763 954.952 731.583C955.063 731.468 955.062 731.165 955.062 730.979V730.978L955.062 730.941V730.3C955.062 729.872 954.998 729.804 954.651 729.804C954.63 729.804 954.607 729.805 954.585 729.803C954.542 729.799 954.506 729.781 954.506 729.714C954.506 729.613 954.588 729.613 954.642 729.613C954.751 729.613 954.857 729.621 954.964 729.629L954.966 729.63L954.968 729.63C955.074 729.638 955.181 729.646 955.289 729.646C955.49 729.646 955.69 729.613 955.9 729.613C955.926 729.613 955.955 729.616 955.975 729.634C955.99 729.648 956 729.669 956 729.703C956 729.793 955.945 729.804 955.891 729.804L955.781 729.815C955.727 729.815 955.645 729.815 955.599 729.872C955.578 729.894 955.564 729.929 955.554 729.97L955.553 729.975C955.534 730.062 955.535 730.174 955.535 730.254L955.535 730.288V731.167C955.535 731.198 955.536 731.226 955.537 731.253C955.539 731.344 955.54 731.409 955.512 731.469C955.495 731.504 955.469 731.537 955.426 731.572C955.052 731.887 954.588 732 954.15 732C953.613 732 953.112 731.842 952.693 731.403C952.255 730.941 952 730.333 952 729.601C952 728.059 953.121 727 954.269 727C954.569 727 954.943 727.068 955.226 727.214ZM958.006 727.621C958.006 727.603 958.006 727.585 958.005 727.567C958.004 727.439 958.001 727.299 958.098 727.258C958.198 727.211 958.454 727.211 958.555 727.211C958.756 727.211 959.012 727.211 959.213 727.293C959.415 727.375 959.497 727.515 959.588 727.761L959.68 727.984C959.698 728.042 959.726 728.148 959.781 728.148C959.845 728.148 959.835 728.03 959.835 727.984V727.293C959.835 727.276 959.836 727.257 959.837 727.238C959.841 727.133 959.845 727 959.753 727C959.241 727 958.738 727.035 958.226 727.035C958.107 727.035 957.989 727.032 957.87 727.027L957.79 727.023L957.663 727.018C957.576 727.013 957.489 727.009 957.402 727.006C957.301 727.003 957.201 727 957.101 727C957.096 727 957.091 727 957.087 727.001L957.081 727.002L957.077 727.002L957.073 727.003C957.065 727.005 957.058 727.008 957.052 727.011C957.043 727.016 957.035 727.022 957.028 727.029C957.011 727.048 957 727.077 957 727.117C957 727.211 957.091 727.211 957.155 727.211C957.55 727.211 957.55 727.361 957.549 727.806L957.549 727.867V731.122L957.549 731.211C957.55 731.655 957.551 731.789 957.155 731.789C957.091 731.789 957 731.801 957 731.883C957 731.887 957 731.891 957 731.895L957.001 731.901L957.001 731.907C957.003 731.918 957.005 731.928 957.008 731.937C957.01 731.943 957.013 731.948 957.016 731.954C957.017 731.956 957.019 731.959 957.021 731.961C957.022 731.963 957.024 731.966 957.026 731.968L957.029 731.971C957.047 731.991 957.073 732 957.101 732C957.159 732 957.219 731.992 957.281 731.983C957.345 731.974 957.41 731.965 957.476 731.965H959.817L959.826 731.965L959.837 731.965C959.868 731.967 959.881 731.967 959.881 731.918L959.973 731.075C959.976 731.054 959.98 731.032 959.985 731.009L959.991 730.975C959.993 730.964 959.994 730.953 959.996 730.943C959.998 730.924 960 730.905 960 730.888C960 730.853 959.994 730.83 959.979 730.818C959.975 730.815 959.97 730.812 959.965 730.81C959.957 730.807 959.947 730.806 959.936 730.806C959.863 730.806 959.826 731.016 959.799 731.075C959.598 731.778 959.268 731.789 958.747 731.789C958.271 731.789 958.006 731.778 958.006 731.052V729.658C958.006 729.389 958.061 729.389 958.308 729.389C958.491 729.389 958.802 729.389 959.031 729.459C959.159 729.494 959.213 729.74 959.241 729.974C959.25 730.021 959.268 730.115 959.323 730.115C959.331 730.115 959.339 730.114 959.348 730.11C959.368 730.099 959.387 730.067 959.387 729.974C959.383 729.853 959.379 729.737 959.374 729.621L959.373 729.6L959.369 729.482L959.36 729.225C959.363 729.154 959.366 729.081 959.37 729.008C959.374 728.939 959.378 728.87 959.381 728.801C959.384 728.71 959.387 728.62 959.387 728.534C959.387 728.501 959.375 728.479 959.36 728.466C959.349 728.456 959.335 728.452 959.323 728.452C959.268 728.452 959.25 728.534 959.241 728.593C959.213 728.827 959.177 729.119 959.031 729.143C958.793 729.178 958.482 729.178 958.308 729.178C958.061 729.178 958.006 729.178 958.006 728.803V727.621ZM968.341 727.567V727.568L968.341 727.604L968.341 727.621H968.354V728.803C968.354 729.178 968.427 729.178 968.756 729.178H968.83L968.916 729.178C969.041 729.177 969.188 729.175 969.337 729.169C969.468 729.164 969.601 729.156 969.72 729.143C969.915 729.119 969.963 728.827 970 728.593C970.005 728.57 970.011 728.545 970.021 728.521C970.038 728.483 970.064 728.452 970.11 728.452C970.135 728.452 970.167 728.464 970.184 728.491C970.191 728.502 970.195 728.516 970.195 728.534C970.195 728.596 970.193 728.659 970.19 728.723C970.188 728.765 970.186 728.807 970.183 728.849C970.18 728.899 970.177 728.948 970.173 728.998L970.173 729.009C970.169 729.06 970.166 729.11 970.162 729.159L970.159 729.225C970.171 729.482 970.183 729.717 970.195 729.974C970.195 730.103 970.146 730.115 970.11 730.115C970.037 730.115 970.012 730.021 970 729.974C969.963 729.74 969.89 729.494 969.72 729.459C969.415 729.389 969 729.389 968.756 729.389C968.439 729.389 968.354 729.389 968.354 729.658V731.052C968.354 731.778 968.707 731.789 969.341 731.789C970.037 731.789 970.476 731.778 970.744 731.075C970.768 731.016 970.817 730.806 970.915 730.806C970.976 730.806 971 730.829 971 730.888C971 730.946 970.976 731.016 970.963 731.075L970.841 731.918C970.841 731.967 970.824 731.967 970.782 731.965L970.772 731.965L970.756 731.965H967.634C967.599 731.965 967.563 731.967 967.526 731.969C967.494 731.972 967.463 731.974 967.431 731.978L967.384 731.982C967.299 731.991 967.213 732 967.134 732C967.061 732 967 731.965 967 731.883C967 731.801 967.122 731.789 967.207 731.789C967.735 731.789 967.734 731.655 967.732 731.211L967.732 731.122V727.867L967.732 727.806C967.733 727.361 967.733 727.211 967.207 727.211C967.155 727.211 967.07 727.211 967.027 727.176C967.011 727.162 967 727.143 967 727.117C967 727.035 967.061 727 967.134 727C967.384 727 967.634 727.009 967.884 727.018L968.006 727.022C968.087 727.025 968.168 727.027 968.249 727.029C968.289 727.03 968.329 727.031 968.369 727.032C968.457 727.034 968.546 727.035 968.634 727.035C968.976 727.035 969.314 727.026 969.652 727.018C969.991 727.009 970.329 727 970.671 727C970.817 727 970.781 727.187 970.781 727.293V727.984C970.781 728.03 970.793 728.148 970.707 728.148C970.69 728.148 970.675 728.142 970.662 728.133C970.659 728.13 970.656 728.128 970.653 728.125C970.65 728.122 970.646 728.119 970.643 728.115L970.638 728.109C970.635 728.106 970.633 728.103 970.63 728.1C970.625 728.093 970.62 728.085 970.616 728.077C970.611 728.068 970.606 728.06 970.602 728.051C970.59 728.027 970.581 728.003 970.573 727.984L970.451 727.761C970.329 727.515 970.219 727.375 969.951 727.293C969.683 727.211 969.341 727.211 969.073 727.211C968.985 727.211 968.807 727.211 968.657 727.224C968.579 727.231 968.509 727.242 968.463 727.258C968.335 727.299 968.338 727.439 968.341 727.567ZM973.167 731.009L972.083 727.668C972.078 727.649 972.071 727.629 972.064 727.609L972.056 727.584L972.047 727.555C972.038 727.524 972.029 727.493 972.022 727.462C972.014 727.426 972.009 727.391 972.009 727.357C972.009 727.219 972.268 727.23 972.315 727.219C972.361 727.207 972.435 727.207 972.435 727.104C972.435 727.069 972.426 727.047 972.412 727.033C972.389 727.012 972.353 727.012 972.324 727.012C972.231 727.012 972.139 727.02 972.046 727.029C972.008 727.032 971.969 727.036 971.931 727.039C971.898 727.041 971.866 727.044 971.833 727.045C971.811 727.046 971.79 727.046 971.768 727.046C971.656 727.046 971.549 727.037 971.442 727.029C971.338 727.02 971.235 727.012 971.13 727.012C971.102 727.012 971.07 727.014 971.045 727.027C971.039 727.03 971.033 727.034 971.028 727.038C971.025 727.04 971.022 727.043 971.019 727.046C971.017 727.049 971.014 727.052 971.012 727.055C971.005 727.068 971 727.084 971 727.104C971 727.219 971.102 727.219 971.167 727.219C971.441 727.219 971.516 727.455 971.607 727.737L971.611 727.749L972.917 731.781C972.923 731.796 972.93 731.825 972.939 731.857L972.942 731.868L972.947 731.884C972.965 731.942 972.99 732 973.028 732C973.074 732 973.111 731.827 973.13 731.781L974.37 727.841C974.378 727.815 974.387 727.786 974.396 727.756C974.401 727.739 974.407 727.721 974.413 727.703L974.42 727.684L974.427 727.664C974.453 727.59 974.484 727.515 974.518 727.45C974.544 727.4 974.572 727.356 974.602 727.323C974.61 727.314 974.619 727.305 974.627 727.298C974.635 727.291 974.642 727.285 974.65 727.279C974.655 727.276 974.66 727.272 974.665 727.269C974.696 727.25 974.728 727.237 974.76 727.229C974.777 727.225 974.793 727.223 974.81 727.221C974.824 727.219 974.838 727.219 974.852 727.219C974.907 727.219 975 727.207 975 727.104C975 727.072 974.992 727.048 974.98 727.031C974.964 727.01 974.942 727 974.917 727C974.75 727 974.574 727.035 974.407 727.035C974.365 727.035 974.322 727.032 974.278 727.029C974.235 727.026 974.193 727.022 974.15 727.017L974.148 727.017L974.146 727.017C974.121 727.015 974.096 727.012 974.071 727.01C974.041 727.007 974.012 727.005 973.983 727.003C973.951 727.001 973.92 727 973.889 727C973.824 727 973.759 727.023 973.759 727.115C973.759 727.23 973.972 727.207 974.028 727.207C974.139 727.207 974.287 727.242 974.287 727.426C974.287 727.459 974.282 727.497 974.275 727.537C974.263 727.603 974.244 727.675 974.227 727.74C974.218 727.772 974.21 727.802 974.204 727.829L973.167 731.009ZM976.341 727.567V727.568V727.569L976.341 727.597L976.341 727.621V728.803C976.341 729.178 976.415 729.178 976.744 729.178C976.976 729.178 977.39 729.178 977.707 729.143C977.902 729.119 977.951 728.827 977.988 728.593C978 728.534 978.024 728.452 978.098 728.452C978.134 728.452 978.183 728.475 978.183 728.534C978.183 728.756 978.159 729.002 978.146 729.225C978.152 729.354 978.159 729.477 978.165 729.599C978.171 729.722 978.177 729.845 978.183 729.974C978.183 730.103 978.134 730.115 978.098 730.115C978.024 730.115 978 730.021 977.988 729.974C977.951 729.74 977.878 729.494 977.707 729.459C977.402 729.389 976.988 729.389 976.744 729.389C976.427 729.389 976.341 729.389 976.341 729.658V731.052C976.341 731.778 976.695 731.789 977.329 731.789C978.024 731.789 978.463 731.778 978.732 731.075C978.742 731.059 978.752 731.033 978.765 731.002C978.798 730.918 978.843 730.806 978.915 730.806C978.976 730.806 979 730.829 979 730.888C979 730.928 978.988 730.975 978.977 731.019L978.976 731.022L978.969 731.049C978.967 731.058 978.965 731.067 978.963 731.075L978.841 731.918C978.841 731.967 978.824 731.967 978.782 731.965H978.78L978.763 731.965L978.756 731.965H975.634C975.555 731.965 975.469 731.974 975.384 731.982C975.299 731.991 975.213 732 975.134 732C975.061 732 975 731.965 975 731.883C975 731.801 975.122 731.789 975.207 731.789C975.735 731.789 975.734 731.655 975.732 731.211L975.732 731.122V727.867L975.732 727.806C975.733 727.361 975.733 727.211 975.207 727.211H975.193L975.177 727.211C975.161 727.21 975.144 727.21 975.127 727.208C975.089 727.204 975.052 727.196 975.028 727.176C975.011 727.162 975 727.143 975 727.117C975 727.035 975.061 727 975.134 727C975.377 727 975.625 727.009 975.875 727.017C975.971 727.021 976.066 727.024 976.162 727.027L976.272 727.03C976.344 727.032 976.416 727.033 976.488 727.034L976.547 727.035L976.574 727.035L976.634 727.035C976.976 727.035 977.314 727.026 977.652 727.018C977.805 727.014 977.957 727.01 978.109 727.006C978.296 727.003 978.483 727 978.671 727C978.794 727 978.787 727.133 978.782 727.238C978.781 727.257 978.78 727.276 978.78 727.293V727.984L978.781 728C978.781 728.028 978.782 728.067 978.772 728.098C978.769 728.106 978.766 728.113 978.761 728.12C978.758 728.125 978.754 728.13 978.749 728.134C978.739 728.142 978.725 728.148 978.707 728.148C978.634 728.148 978.598 728.042 978.573 727.984L978.451 727.761C978.329 727.515 978.219 727.375 977.951 727.293C977.683 727.211 977.341 727.211 977.073 727.211C976.939 727.211 976.598 727.211 976.463 727.258C976.335 727.299 976.338 727.439 976.341 727.567ZM962.443 727.287L965.1 730.87V727.874L965.1 727.793C965.102 727.362 965.102 727.218 964.601 727.218C964.576 727.218 964.543 727.218 964.512 727.213C964.49 727.21 964.47 727.204 964.453 727.193C964.431 727.18 964.417 727.159 964.417 727.126C964.417 727.034 964.471 727 964.547 727C964.661 727 964.769 727.009 964.877 727.017C964.986 727.026 965.094 727.034 965.208 727.034C965.323 727.034 965.435 727.026 965.546 727.017H965.546H965.547H965.547L965.549 727.017C965.657 727.008 965.763 727 965.87 727C965.903 727 965.936 727.012 965.961 727.034C965.984 727.056 966 727.087 966 727.126C966 727.165 965.979 727.187 965.949 727.2L965.944 727.202L965.935 727.206L965.927 727.208C965.91 727.213 965.892 727.215 965.873 727.217C965.849 727.218 965.825 727.218 965.805 727.218C965.314 727.218 965.315 727.372 965.316 727.793L965.317 727.874V731.851L965.317 731.864C965.317 731.878 965.318 731.896 965.317 731.915C965.314 731.957 965.302 732 965.262 732C965.187 732 965.121 731.885 965.078 731.816L961.911 727.54V731.08C961.911 731.117 961.911 731.151 961.911 731.184C961.908 731.598 961.907 731.736 962.399 731.736C962.464 731.736 962.583 731.713 962.583 731.816C962.583 731.834 962.581 731.849 962.576 731.863C962.573 731.869 962.57 731.876 962.567 731.881C962.563 731.887 962.559 731.892 962.555 731.897C962.532 731.92 962.496 731.931 962.453 731.931C962.339 731.931 962.231 731.922 962.123 731.914C962.064 731.909 962.005 731.904 961.945 731.901C961.895 731.898 961.844 731.897 961.792 731.897C961.575 731.897 961.347 731.931 961.13 731.931C961.098 731.931 961.066 731.925 961.042 731.909C961.017 731.892 961 731.863 961 731.816C961 731.713 961.13 731.736 961.195 731.736C961.688 731.736 961.687 731.588 961.684 731.182C961.684 731.15 961.683 731.116 961.683 731.08V727.885C961.683 727.849 961.684 727.814 961.684 727.781C961.687 727.368 961.688 727.23 961.195 727.23C961.176 727.23 961.151 727.23 961.127 727.227C961.115 727.226 961.104 727.225 961.093 727.222L961.085 727.22C961.08 727.219 961.075 727.217 961.07 727.215C961.036 727.203 961.011 727.18 961.011 727.138C961.011 727.023 961.108 727.011 961.195 727.011H962.128C962.284 727.056 962.35 727.152 962.432 727.272L962.443 727.287ZM933.82 708.783C933.82 708.815 933.82 708.848 933.821 708.881C933.822 708.958 933.825 709.039 933.832 709.125L933.879 710.188C933.879 710.425 933.808 710.65 933.572 710.65C933.357 710.65 933.243 710.374 933.085 709.99C932.724 709.114 932.131 707.675 929.566 707.675C927.916 707.675 926.431 708.25 925.37 709.7C924.392 711.013 923.874 712.963 923.874 714.625C923.874 716.375 924.31 717.987 925.37 719.325C926.561 720.85 928.093 721.375 929.884 721.375C930.591 721.375 931.675 721.25 932.264 720.725C932.675 720.37 932.669 719.498 932.666 718.932C932.665 718.881 932.665 718.833 932.665 718.787V716.875C932.665 715.575 932.465 715.375 931.251 715.375L931.208 715.375C931.011 715.377 930.756 715.379 930.756 715.1C930.756 714.8 931.05 714.8 931.239 714.8H935.646C935.811 714.8 936 714.85 936 715.075C936 715.35 935.788 715.375 935.599 715.375L935.199 715.425C935.166 715.429 935.129 715.433 935.09 715.437C934.905 715.455 934.667 715.478 934.551 715.612C934.312 715.833 934.32 716.372 934.325 716.737C934.326 716.786 934.327 716.833 934.327 716.875V719.537C934.327 719.585 934.327 719.629 934.328 719.672L934.33 719.728L934.332 719.808C934.346 720.223 934.353 720.445 933.949 720.737C932.653 721.65 931.027 722 929.507 722C927.633 722 925.877 721.513 924.416 720.2C922.872 718.8 922 717 922 714.787C922 710.175 925.924 707 929.931 707C930.992 707 932.288 707.213 933.29 707.65C933.83 707.879 933.827 708.174 933.821 708.641C933.821 708.687 933.82 708.734 933.82 708.783ZM937.753 719.418C937.753 719.518 937.753 719.613 937.753 719.704C937.759 720.985 937.761 721.403 936.485 721.403L936.447 721.403C936.268 721.401 936 721.399 936 721.689C936 721.948 936.154 722 936.331 722C936.7 722 937.072 721.977 937.444 721.955C937.816 721.932 938.188 721.909 938.557 721.909C938.926 721.909 939.287 721.932 939.648 721.955C940.009 721.977 940.37 722 940.739 722C940.916 722 941.07 721.948 941.07 721.689C941.07 721.398 940.783 721.401 940.601 721.403L940.563 721.403C939.29 721.379 939.291 720.994 939.295 719.654C939.295 719.578 939.296 719.5 939.296 719.418V715.733C939.296 715.707 939.295 715.676 939.295 715.642V715.641C939.292 715.383 939.288 714.921 939.395 714.773C939.481 714.649 939.625 714.652 939.763 714.655C939.783 714.655 939.804 714.656 939.825 714.656C941.216 714.656 941.287 714.826 941.867 716.217C941.907 716.313 941.95 716.416 941.996 716.524L943.914 721.182C943.935 721.231 943.955 721.282 943.975 721.333C944.106 721.66 944.241 722 944.575 722H946.647C946.802 722 947 721.974 947 721.74C947 721.403 946.647 721.403 946.493 721.403C945.694 721.403 945.38 720.618 945.066 719.83L945.06 719.817L945.039 719.763C945.024 719.726 945.009 719.688 944.994 719.651L943.418 715.927C943.388 715.86 943.358 715.79 943.327 715.719C943.076 715.133 942.788 714.46 942.227 714.344C943.848 714.085 945.314 712.813 945.314 710.633C945.314 708.116 943.473 707 941.621 707C941.067 707 940.519 707.022 939.968 707.045H939.967H939.966C939.41 707.068 938.852 707.091 938.282 707.091C937.967 707.091 937.645 707.068 937.323 707.045C937 707.023 936.678 707 936.364 707C936.154 707 936.011 707.091 936.011 707.363C936.011 707.649 936.32 707.649 936.496 707.649C937.772 707.649 937.77 708.045 937.764 709.343C937.764 709.412 937.764 709.483 937.764 709.556L937.763 709.634V719.418H937.753ZM939.296 709.414C939.296 707.74 939.329 707.506 940.817 707.506C942.547 707.506 943.627 708.7 943.627 710.906C943.627 711.866 943.374 712.748 942.734 713.345C941.996 714.033 941.191 714.137 940.299 714.137C940.244 714.137 940.179 714.141 940.111 714.146L940.109 714.146C939.765 714.172 939.307 714.205 939.307 713.708V709.414H939.296ZM949.728 719.532L949.728 719.418V709.608C949.728 709.508 949.729 709.413 949.729 709.322C949.735 708.045 949.737 707.649 948.478 707.649C948.304 707.649 948 707.649 948 707.337C948 707.065 948.13 707 948.326 707H952.674C952.848 707 953 707.078 953 707.337C953 707.649 952.674 707.649 952.5 707.649C951.242 707.649 951.243 708.045 951.249 709.322C951.25 709.413 951.25 709.508 951.25 709.608V719.418C951.25 719.5 951.25 719.578 951.25 719.654C951.246 720.994 951.245 721.379 952.5 721.403L952.538 721.403C952.717 721.401 953 721.398 953 721.689C953 721.948 952.848 722 952.674 722H948.326C948.152 722 948 721.948 948 721.689C948 721.399 948.264 721.401 948.441 721.403L948.478 721.403C949.737 721.403 949.735 720.985 949.729 719.704L949.728 719.532ZM958.161 715.131C959.54 715.818 960.644 716.717 960.644 718.565C960.644 720.389 959.138 721.563 957.609 721.563C955.759 721.563 954.816 720.326 954.621 718.341C954.617 718.313 954.614 718.277 954.611 718.235C954.592 717.996 954.558 717.579 954.333 717.579C954.103 717.579 954.046 717.853 954.023 718.041C953.986 718.43 954.002 718.835 954.017 719.236C954.026 719.452 954.034 719.667 954.034 719.877C954.034 719.962 954.029 720.053 954.023 720.147C954.002 720.507 953.979 720.902 954.253 721.101C955.103 721.675 956.333 722 957.322 722C958.506 722 959.667 721.65 960.575 720.801C961.448 719.977 962 718.828 962 717.529C962 716.542 961.609 715.53 961.023 714.794C960.54 714.194 959.678 713.707 959.011 713.37C958.929 713.329 958.843 713.288 958.754 713.246C958.685 713.213 958.614 713.18 958.542 713.146L958.54 713.146C957.218 712.527 955.448 711.7 955.448 709.935C955.448 708.249 956.724 707.475 958.069 707.475C959.655 707.475 960.264 708.324 960.713 709.91C960.718 709.925 960.723 709.942 960.729 709.961C960.734 709.981 960.74 710.002 960.746 710.024C960.795 710.201 960.859 710.435 961.034 710.435C961.172 710.435 961.253 710.322 961.253 710.16C961.241 709.86 961.25 709.57 961.259 709.279C961.264 709.097 961.269 708.915 961.27 708.73C961.27 708.62 961.269 708.51 961.264 708.399C961.241 707.987 961.195 707.674 960.805 707.512C960.057 707.162 958.874 707 958.08 707C956.08 707 954.149 708.474 954.149 710.884C954.149 712.933 955.609 713.882 957.103 714.619L958.161 715.131ZM970.011 722C966.392 722 963 718.675 963 714.487C963 710.287 966.392 707 970.011 707C973.823 707 977 710.037 977 714.487C977 718.938 973.823 722 970.011 722ZM973.925 719.138C974.867 717.763 975.173 716.213 975.173 714.487C975.173 712.713 974.856 711.125 973.857 709.725C972.893 708.412 971.566 707.625 970.057 707.625C968.48 707.625 967.039 708.388 966.075 709.787C965.144 711.1 964.804 712.825 964.804 714.487C964.804 716.213 965.167 717.963 966.154 719.3C967.118 720.638 968.514 721.35 970.045 721.35C971.6 721.35 972.961 720.5 973.925 719.138ZM988.907 708.828L988.907 708.825C988.887 708.273 988.873 707.898 988.29 707.65C987.288 707.213 985.992 707 984.931 707C980.924 707 977 710.175 977 714.787C977 717 977.872 718.8 979.416 720.2C980.877 721.513 982.633 722 984.507 722C986.027 722 987.653 721.65 988.95 720.737C989.353 720.445 989.346 720.223 989.332 719.808C989.331 719.775 989.33 719.74 989.329 719.704C989.328 719.651 989.327 719.596 989.327 719.537V716.875C989.327 716.833 989.326 716.786 989.325 716.737C989.32 716.372 989.312 715.833 989.551 715.612C989.667 715.478 989.905 715.455 990.09 715.437L990.117 715.434L990.156 715.43L990.17 715.428L990.199 715.425L990.599 715.375C990.788 715.375 991 715.35 991 715.075C991 714.838 990.811 714.8 990.646 714.8H986.239C986.051 714.8 985.756 714.8 985.756 715.1C985.756 715.4 986.051 715.375 986.263 715.375C987.476 715.375 987.677 715.588 987.677 716.875V718.787C987.677 718.833 987.677 718.881 987.677 718.932C987.681 719.499 987.687 720.37 987.276 720.725C986.687 721.25 985.603 721.375 984.896 721.375C983.104 721.375 981.572 720.85 980.382 719.325C979.322 717.987 978.885 716.375 978.885 714.625C978.885 712.963 979.404 711.013 980.382 709.7C981.443 708.25 982.928 707.675 984.577 707.675C987.152 707.675 987.741 709.115 988.1 709.992C988.257 710.375 988.369 710.65 988.584 710.65C988.82 710.65 988.902 710.425 988.902 710.188L988.926 709.2C988.924 709.175 988.922 709.15 988.921 709.125C988.919 709.096 988.917 709.067 988.916 709.038C988.914 709.007 988.913 708.976 988.911 708.946L988.909 708.892L988.907 708.834L988.907 708.828ZM998.011 722C994.392 722 991 718.675 991 714.487C991 710.287 994.392 707 998.011 707C1001.82 707 1005 710.037 1005 714.487C1005 718.938 1001.83 722 998.011 722ZM1001.93 719.138C1002.87 717.763 1003.17 716.213 1003.17 714.487C1003.17 712.713 1002.84 711.125 1001.86 709.725C1000.89 708.412 999.566 707.625 998.057 707.625C996.491 707.625 995.039 708.388 994.075 709.787C993.144 711.1 992.804 712.825 992.804 714.487C992.804 716.213 993.167 717.963 994.154 719.3C995.107 720.638 996.514 721.35 998.045 721.35C999.6 721.35 1000.96 720.5 1001.93 719.138ZM1008.74 707.831L1015.66 718.605V709.594L1015.66 709.407L1015.66 709.368C1015.67 708.063 1015.67 707.639 1014.37 707.639C1014.19 707.639 1013.88 707.639 1013.88 707.383C1013.88 707.115 1014.04 707 1014.24 707H1017.67C1017.84 707 1018 707.128 1018 707.383C1018 707.639 1017.69 707.639 1017.49 707.639C1016.21 707.639 1016.21 708.085 1016.22 709.369L1016.22 709.487L1016.22 709.594V721.553C1016.22 721.668 1016.26 722 1016.08 722C1015.89 722 1015.72 721.674 1015.62 721.475L1015.6 721.438L1007.36 708.584V719.227C1007.36 719.324 1007.36 719.416 1007.36 719.504C1007.35 720.748 1007.35 721.182 1008.63 721.182C1008.66 721.182 1008.68 721.181 1008.71 721.18C1008.89 721.172 1009.12 721.161 1009.12 721.425C1009.12 721.693 1008.99 721.783 1008.79 721.783H1005.35C1005.16 721.783 1005 721.681 1005 721.425C1005 721.154 1005.24 721.168 1005.42 721.179L1005.46 721.181C1005.48 721.182 1005.49 721.182 1005.51 721.182C1006.79 721.182 1006.79 720.748 1006.78 719.504C1006.78 719.416 1006.78 719.324 1006.78 719.227V709.594L1006.78 709.434L1006.78 709.312C1006.79 708.051 1006.79 707.639 1005.51 707.639C1005.33 707.639 1005.02 707.639 1005.02 707.383C1005.02 707.026 1005.28 707 1005.5 707H1007.93C1008.3 707.112 1008.47 707.382 1008.66 707.697C1008.69 707.741 1008.71 707.785 1008.74 707.831ZM1024.51 722C1021.15 722 1018 718.675 1018 714.487C1018 710.287 1021.15 707 1024.51 707C1028.05 707 1031 710.037 1031 714.487C1031 718.938 1028.05 722 1024.51 722ZM1028.15 719.138C1029.02 717.763 1029.3 716.213 1029.3 714.487C1029.3 712.713 1029.01 711.125 1028.08 709.725C1027.19 708.412 1025.95 707.625 1024.55 707.625C1023.09 707.625 1021.75 708.388 1020.85 709.787C1019.99 711.1 1019.68 712.825 1019.68 714.487C1019.68 716.213 1020.01 717.963 1020.93 719.3C1021.82 720.638 1023.12 721.35 1024.54 721.35C1025.99 721.35 1027.25 720.5 1028.15 719.138ZM916.778 715.881C916.967 715.881 917 715.684 917 715.51C917 714.794 916.723 713.867 916.346 713.335C915.693 712.408 914.673 712 913.676 712C912.413 712 911.26 712.494 910.341 713.446C909.355 714.435 909 715.585 909 717.043C909 719.738 910.795 722 913.233 722C914.385 722 915.294 721.654 916.169 720.789C916.302 720.665 916.889 720.072 916.889 719.824C916.889 719.738 916.834 719.651 916.745 719.651C916.701 719.651 916.641 719.698 916.563 719.774C916.527 719.81 916.486 719.852 916.44 719.899C916.052 720.3 915.327 721.048 913.997 721.048C911.748 721.048 910.396 718.959 910.396 716.549C910.396 715.877 910.561 715.878 911.056 715.881C911.089 715.881 911.124 715.881 911.161 715.881H916.778ZM911.092 715.376H911.09C910.874 715.384 910.54 715.394 910.54 715.09C910.54 714.744 910.839 714.077 911.006 713.842C911.56 712.939 912.468 712.396 913.421 712.396C914.019 712.396 914.629 712.569 915.039 713.063C915.305 713.384 915.526 713.879 915.526 714.336C915.526 714.855 915.249 715.09 914.839 715.201C914.296 715.35 913.266 715.375 912.69 715.375H911.172C911.148 715.375 911.121 715.375 911.092 715.376ZM906.422 719.179C906.421 719.115 906.42 719.048 906.42 718.978H906.41V715.08C906.41 715.029 906.41 714.978 906.41 714.926C906.413 714.292 906.416 713.56 906 713.081C905.58 712.588 904.792 712.329 904.229 712.391C902.365 712.613 901.249 714.549 901.249 716.696C901.249 718.842 902.314 721.062 904.218 721.062C904.925 721.062 905.765 720.766 906.246 720.051C906.434 719.762 906.429 719.507 906.422 719.179ZM907.581 707.131C907.587 707.162 907.587 707.203 907.587 707.259L907.618 719.743C907.618 719.977 907.567 721.05 907.894 721.05H908.652C908.775 721.05 909 721.346 909 721.346C908.979 721.63 908.826 721.852 908.826 721.852C908.734 721.914 906.809 721.852 906.706 721.852C906.533 721.852 906.469 721.448 906.444 721.298L906.44 721.272C906.44 721.186 906.42 720.359 906.348 720.557C906.205 720.976 905.099 722 903.706 722C901.526 722 900 719.607 900 717.029C900 715.672 900.43 714.488 901.198 713.562C901.966 712.65 903.031 711.959 904.126 712.021C904.761 712.07 905.396 712.193 905.959 712.477C905.974 712.484 905.991 712.492 906.011 712.501C906.098 712.542 906.22 712.6 906.287 712.6C906.461 712.6 906.435 712.111 906.424 711.888C906.421 711.848 906.42 711.817 906.42 711.799V709.751C906.42 709.646 906.424 709.53 906.428 709.41C906.457 708.629 906.493 707.636 905.437 707.765C905.283 707.789 905.089 707.691 905.089 707.407C905.089 707.259 905.16 707.074 905.263 707.049C905.744 706.938 907.29 707.049 907.413 707.049C907.531 707.049 907.569 707.066 907.581 707.131Z" fill="white"/>
</svg>
