<svg width="375" height="667" viewBox="0 0 375 667" fill="none" xmlns="http://www.w3.org/2000/svg">
<path fill-rule="evenodd" clip-rule="evenodd" d="M0 0H375V667H0V0ZM37.0013 321.946V333.36H32.9992V309.559H37.0013V320.399H48.9686V309.559H52.9706V333.36H48.9686V321.946H37.0013ZM79.9901 333.352L68.7824 309.015H67.7794L56.299 333.352H58.3147L62.0636 325.422H72.2781L75.9102 333.352H79.9901ZM71.5478 323.874H62.7647L67.2147 314.455L71.5478 323.874ZM83.2838 309.559H91.5411C92.9627 309.559 94.2189 309.714 95.29 310.016C96.3611 310.318 97.2667 310.746 97.9872 311.3C98.7078 311.855 99.2434 312.507 99.6134 313.266C99.9834 314.025 100.159 314.852 100.159 315.747C100.159 316.487 100.022 317.188 99.74 317.83C99.4576 318.472 99.0681 319.056 98.552 319.581C98.0457 320.107 97.4322 320.555 96.7116 320.924C95.9911 321.304 95.2023 321.596 94.3455 321.81L103.021 333.351H98.367L90.0902 322.17H87.2858V333.351H83.2838V309.559ZM87.2858 320.973H89.6033C90.4992 320.973 91.3269 320.856 92.0864 320.613C92.8459 320.37 93.508 320.039 94.0631 319.601C94.6181 319.163 95.0563 318.638 95.3679 318.015C95.6795 317.392 95.8353 316.691 95.8353 315.913C95.8353 315.193 95.7087 314.541 95.4653 313.938C95.2218 313.334 94.8713 312.828 94.4234 312.4C93.9754 311.972 93.4399 311.641 92.8264 311.408C92.213 311.164 91.5313 311.047 90.8108 311.047H87.2858V320.973ZM115.861 309.559H106.27V333.351H117.409C118.675 333.351 119.824 333.175 120.847 332.845C121.869 332.514 122.745 332.056 123.466 331.473C124.187 330.898 124.742 330.208 125.131 329.429C125.521 328.651 125.715 327.804 125.715 326.909C125.715 326.121 125.579 325.391 125.316 324.729C125.053 324.067 124.683 323.484 124.196 322.987C123.709 322.491 123.125 322.082 122.444 321.761C121.762 321.44 120.993 321.216 120.146 321.08V321.012C121.002 320.603 121.704 320.204 122.259 319.815C122.814 319.426 123.262 319.017 123.593 318.579C123.924 318.141 124.167 317.664 124.294 317.149C124.42 316.633 124.488 316.049 124.488 315.387C124.488 314.531 124.274 313.743 123.856 313.023C123.437 312.303 122.843 311.69 122.083 311.174C121.324 310.658 120.418 310.259 119.357 309.977C118.295 309.695 117.127 309.559 115.861 309.559ZM115.374 320.272H110.272V311.135H113.573C114.771 311.135 115.793 311.242 116.65 311.456C117.507 311.67 118.218 311.982 118.773 312.39C119.328 312.799 119.737 313.286 120 313.85C120.262 314.424 120.399 315.057 120.399 315.747C120.399 316.39 120.292 316.993 120.068 317.548C119.844 318.112 119.513 318.589 119.084 318.988C118.656 319.387 118.13 319.708 117.507 319.932C116.893 320.156 116.173 320.272 115.374 320.272ZM114.595 331.618H110.272H110.262V321.751H114.469C115.754 321.751 116.835 321.888 117.711 322.16C118.597 322.433 119.308 322.812 119.853 323.279C120.399 323.746 120.788 324.311 121.032 324.953C121.275 325.605 121.392 326.305 121.392 327.055C121.392 327.726 121.256 328.339 120.983 328.904C120.72 329.468 120.301 329.955 119.746 330.353C119.182 330.752 118.48 331.064 117.624 331.288C116.767 331.511 115.754 331.618 114.595 331.618ZM142.642 333.907C140.802 333.907 139.078 333.576 137.481 332.924C135.884 332.262 134.492 331.367 133.314 330.219C132.135 329.08 131.21 327.747 130.529 326.219C129.857 324.692 129.516 323.067 129.516 321.325C129.516 320.186 129.672 319.096 129.974 318.036C130.276 316.975 130.714 316.002 131.278 315.087C131.843 314.182 132.525 313.346 133.314 312.606C134.112 311.857 134.988 311.214 135.962 310.689C136.936 310.164 137.988 309.745 139.117 309.453C140.247 309.161 141.425 309.015 142.642 309.015C143.879 309.015 145.057 309.161 146.177 309.453C147.306 309.745 148.348 310.164 149.332 310.689C150.305 311.224 151.191 311.866 151.98 312.606C152.769 313.346 153.451 314.182 154.015 315.087C154.58 315.992 155.018 316.975 155.33 318.036C155.641 319.096 155.788 320.186 155.788 321.325C155.788 322.483 155.632 323.602 155.33 324.663C155.028 325.723 154.59 326.725 154.015 327.66C153.441 328.594 152.769 329.44 151.98 330.209C151.191 330.978 150.305 331.63 149.332 332.184C148.358 332.739 147.306 333.158 146.177 333.459C145.057 333.761 143.879 333.907 142.642 333.907ZM142.642 332.72C144.005 332.72 145.213 332.437 146.264 331.863C147.316 331.289 148.192 330.501 148.913 329.489C149.633 328.477 150.169 327.27 150.539 325.879C150.909 324.487 151.084 322.969 151.084 321.325C151.084 319.69 150.899 318.182 150.539 316.819C150.169 315.457 149.633 314.28 148.913 313.297C148.192 312.314 147.316 311.545 146.264 311C145.213 310.455 144.015 310.183 142.642 310.183C141.25 310.183 140.032 310.455 138.99 311C137.939 311.545 137.062 312.314 136.352 313.297C135.641 314.28 135.105 315.457 134.745 316.819C134.385 318.182 134.209 319.69 134.209 321.325C134.209 322.979 134.385 324.497 134.745 325.879C135.105 327.27 135.641 328.467 136.352 329.489C137.062 330.511 137.949 331.299 138.99 331.863C140.032 332.437 141.25 332.72 142.642 332.72ZM164.815 309.559H160.823V324.904C160.823 326.15 161.037 327.327 161.475 328.417C161.914 329.507 162.556 330.461 163.413 331.278C164.26 332.086 165.322 332.728 166.588 333.205C167.844 333.681 169.304 333.915 170.94 333.915C172.781 333.915 174.368 333.681 175.682 333.205C176.997 332.738 178.078 332.095 178.925 331.288C179.772 330.48 180.385 329.536 180.785 328.456C181.184 327.376 181.379 326.228 181.379 325.011V309.559H179.616V325.011C179.616 326.023 179.441 326.977 179.1 327.872C178.759 328.767 178.272 329.546 177.63 330.217C176.987 330.889 176.208 331.414 175.302 331.803C174.397 332.193 173.374 332.387 172.235 332.387C171.115 332.387 170.093 332.193 169.178 331.803C168.262 331.414 167.474 330.889 166.831 330.217C166.188 329.546 165.692 328.767 165.341 327.872C164.991 326.987 164.815 326.033 164.815 325.011V309.559ZM187.461 309.559H195.719C197.14 309.559 198.396 309.714 199.467 310.016C200.539 310.318 201.444 310.746 202.165 311.3C202.885 311.855 203.421 312.507 203.791 313.266C204.161 314.025 204.336 314.852 204.336 315.747C204.336 316.487 204.2 317.188 203.917 317.83C203.635 318.472 203.246 319.056 202.73 319.581C202.223 320.107 201.61 320.555 200.889 320.924C200.169 321.304 199.38 321.596 198.523 321.81L207.199 333.351H202.544L194.268 322.17H191.463V333.351H187.461V309.559ZM191.473 320.973H193.791C194.686 320.973 195.514 320.856 196.274 320.613C197.033 320.37 197.695 320.039 198.25 319.601C198.805 319.163 199.244 318.638 199.555 318.015C199.867 317.392 200.022 316.691 200.022 315.913C200.022 315.193 199.896 314.541 199.652 313.938C199.409 313.334 199.059 312.828 198.611 312.4C198.163 311.972 197.627 311.641 197.014 311.408C196.4 311.164 195.719 311.047 194.988 311.047H191.473V320.973ZM222.018 309.559H218.016V333.36H234.015V331.813H222.018V309.559ZM237.585 309.559H241.587V333.36H237.585V309.559ZM257.63 311.472C258.837 310.966 260.161 310.713 261.602 310.713C263.199 310.713 264.611 311.16 265.858 312.046C267.085 312.931 268.204 314.342 269.207 316.269L270.931 315.121C270.434 314.323 269.85 313.554 269.168 312.814C268.487 312.085 267.698 311.433 266.822 310.868C265.936 310.314 264.962 309.856 263.891 309.516C262.82 309.175 261.651 309 260.395 309C259.071 309 257.824 309.156 256.656 309.467C255.478 309.778 254.397 310.216 253.403 310.781C252.41 311.345 251.514 312.017 250.726 312.795C249.927 313.573 249.265 314.44 248.71 315.374C248.155 316.318 247.736 317.31 247.444 318.371C247.152 319.431 247.006 320.521 247.006 321.631C247.006 322.74 247.162 323.82 247.473 324.871C247.785 325.912 248.233 326.895 248.798 327.8C249.362 328.705 250.054 329.532 250.872 330.281C251.68 331.031 252.595 331.673 253.608 332.208C254.611 332.743 255.711 333.162 256.899 333.454C258.077 333.746 259.334 333.891 260.648 333.891C261.895 333.891 263.005 333.833 263.988 333.736C264.972 333.638 265.877 333.493 266.695 333.298C267.513 333.103 268.273 332.86 268.983 332.578C269.694 332.296 270.395 331.965 271.087 331.595V321.134H262.576V322.555H267.085V330.904C266.413 331.43 265.663 331.829 264.825 332.111C263.978 332.393 263.044 332.529 262.002 332.529C260.56 332.529 259.226 332.276 257.961 331.77C256.695 331.264 255.604 330.534 254.679 329.59C253.754 328.647 253.024 327.498 252.488 326.155C251.953 324.803 251.69 323.295 251.69 321.621C251.69 319.957 251.943 318.449 252.43 317.106C252.917 315.763 253.598 314.615 254.484 313.661C255.37 312.707 256.422 311.978 257.63 311.472ZM281.199 321.946V333.36H277.197V309.559H281.199V320.399H293.157V309.559H297.159V333.36H293.157V321.946H281.199ZM322.366 311.106V309.559H301.129V311.106H309.746V333.36H313.748V311.106H322.366ZM334.063 332.393C334.648 332.393 335.232 332.315 335.806 332.15C336.381 331.984 336.897 331.751 337.355 331.43C337.812 331.108 338.173 330.719 338.445 330.262C338.718 329.805 338.854 329.269 338.854 328.656C338.854 327.926 338.669 327.275 338.289 326.71C337.91 326.146 337.423 325.62 336.809 325.153C336.196 324.686 335.505 324.238 334.716 323.82C333.927 323.402 333.129 322.983 332.32 322.565C331.503 322.146 330.704 321.708 329.925 321.241C329.136 320.784 328.445 320.268 327.832 319.694C327.218 319.13 326.731 318.488 326.351 317.787C325.972 317.086 325.787 316.279 325.787 315.374C325.787 314.469 325.962 313.622 326.303 312.844C326.644 312.065 327.14 311.394 327.802 310.82C328.464 310.255 329.273 309.808 330.237 309.487C331.201 309.165 332.301 309 333.547 309C334.677 309 335.68 309.117 336.566 309.36C337.452 309.603 338.231 309.954 338.903 310.421C339.575 310.888 340.14 311.462 340.607 312.143C341.074 312.824 341.454 313.612 341.737 314.508L339.692 315.442C339.448 314.712 339.146 314.041 338.776 313.437C338.406 312.834 337.958 312.318 337.442 311.89C336.926 311.462 336.332 311.131 335.66 310.898C334.988 310.664 334.219 310.547 333.372 310.547C332.622 310.547 331.96 310.654 331.395 310.859C330.831 311.063 330.363 311.345 329.983 311.686C329.604 312.026 329.321 312.406 329.136 312.834C328.951 313.262 328.854 313.69 328.854 314.138C328.854 314.761 329.049 315.335 329.428 315.851C329.808 316.366 330.324 316.863 330.957 317.32C331.59 317.777 332.311 318.225 333.119 318.653C333.927 319.081 334.755 319.519 335.592 319.967C336.43 320.414 337.257 320.872 338.066 321.348C338.874 321.825 339.594 322.351 340.227 322.915C340.86 323.479 341.366 324.102 341.756 324.783C342.136 325.465 342.331 326.214 342.331 327.051C342.331 327.995 342.155 328.88 341.795 329.717C341.435 330.544 340.899 331.274 340.179 331.887C339.458 332.5 338.572 332.987 337.501 333.347C336.439 333.707 335.193 333.882 333.781 333.882C332.632 333.882 331.61 333.755 330.714 333.502C329.818 333.249 329.019 332.889 328.338 332.412C327.656 331.936 327.062 331.352 326.566 330.661C326.079 329.97 325.67 329.182 325.358 328.296L327.5 327.421C327.754 328.199 328.094 328.89 328.513 329.503C328.942 330.116 329.428 330.632 329.993 331.06C330.558 331.488 331.181 331.809 331.873 332.033C332.554 332.286 333.284 332.393 334.063 332.393ZM159.734 346.352C159.732 346.464 159.731 346.589 159.742 346.729L159.781 347.556C159.781 347.741 159.723 347.916 159.528 347.916C159.35 347.916 159.256 347.701 159.126 347.402C158.827 346.72 158.337 345.6 156.217 345.6C154.854 345.6 153.627 346.048 152.751 347.176C151.943 348.198 151.514 349.716 151.514 351.01C151.514 352.372 151.875 353.628 152.751 354.669C153.734 355.856 155 356.264 156.48 356.264C157.065 356.264 157.96 356.167 158.447 355.758C158.787 355.482 158.782 354.804 158.779 354.363C158.779 354.323 158.778 354.286 158.778 354.25V352.762C158.778 351.75 158.613 351.594 157.61 351.594L157.574 351.594C157.411 351.595 157.201 351.597 157.201 351.38C157.201 351.146 157.444 351.146 157.6 351.146H161.242C161.378 351.146 161.534 351.185 161.534 351.36C161.534 351.574 161.359 351.594 161.203 351.594L160.872 351.633C160.845 351.636 160.815 351.639 160.782 351.642C160.629 351.656 160.433 351.674 160.336 351.779C160.139 351.95 160.146 352.37 160.15 352.654C160.151 352.693 160.151 352.729 160.151 352.762V354.834C160.151 354.884 160.152 354.93 160.154 354.974L160.156 355.045C160.167 355.368 160.173 355.541 159.84 355.768C158.769 356.478 157.425 356.751 156.169 356.751C154.62 356.751 153.17 356.371 151.962 355.35C150.687 354.26 149.966 352.859 149.966 351.137C149.966 347.546 153.209 345.075 156.519 345.075C157.396 345.075 158.467 345.24 159.294 345.581C159.741 345.759 159.738 345.989 159.734 346.352ZM163.438 354.639L163.438 354.761L163.438 354.853C163.444 355.814 163.445 356.128 162.318 356.128L162.284 356.128C162.126 356.126 161.889 356.124 161.889 356.342C161.889 356.536 162.026 356.575 162.182 356.575C162.508 356.575 162.836 356.558 163.165 356.541C163.494 356.524 163.822 356.507 164.149 356.507C164.475 356.507 164.794 356.524 165.113 356.541C165.431 356.558 165.75 356.575 166.077 356.575C166.232 356.575 166.369 356.536 166.369 356.342C166.369 356.124 166.115 356.126 165.954 356.128L165.921 356.128C164.796 356.109 164.797 355.821 164.801 354.816L164.801 354.697L164.801 354.639V351.876C164.801 351.856 164.801 351.833 164.8 351.807C164.798 351.614 164.794 351.267 164.889 351.156C164.965 351.063 165.092 351.065 165.213 351.067H165.214H165.214C165.232 351.068 165.251 351.068 165.268 351.068C166.498 351.068 166.56 351.196 167.073 352.239C167.108 352.311 167.146 352.388 167.187 352.469L168.881 355.962C168.899 355.999 168.917 356.037 168.935 356.075C169.05 356.32 169.17 356.575 169.465 356.575H171.296C171.432 356.575 171.607 356.556 171.607 356.381C171.607 356.128 171.296 356.128 171.159 356.128C170.453 356.128 170.176 355.539 169.899 354.948C169.877 354.903 169.856 354.859 169.835 354.814L168.443 352.022C168.426 351.989 168.409 351.955 168.391 351.921L168.363 351.865C168.141 351.426 167.886 350.921 167.391 350.835C168.823 350.64 170.118 349.686 170.118 348.052C170.118 346.164 168.491 345.327 166.856 345.327C166.367 345.327 165.883 345.344 165.397 345.361L165.395 345.361C164.903 345.378 164.409 345.395 163.905 345.395C163.628 345.395 163.343 345.378 163.058 345.361C162.773 345.344 162.488 345.327 162.211 345.327C162.026 345.327 161.899 345.395 161.899 345.6C161.899 345.814 162.172 345.814 162.328 345.814C163.455 345.814 163.453 346.111 163.448 347.084C163.448 347.154 163.447 347.226 163.447 347.302V354.639H163.438ZM164.801 347.137C164.801 345.882 164.83 345.707 166.145 345.707C167.673 345.707 168.628 346.602 168.628 348.256C168.628 348.976 168.404 349.638 167.839 350.085C167.187 350.601 166.476 350.679 165.687 350.679C165.638 350.679 165.581 350.682 165.52 350.686C165.215 350.705 164.811 350.73 164.811 350.358V347.137H164.801ZM174.348 354.853C174.348 354.785 174.347 354.714 174.347 354.639V347.283C174.347 347.208 174.348 347.137 174.348 347.069C174.353 346.111 174.355 345.814 173.227 345.814C173.072 345.814 172.799 345.814 172.799 345.58C172.799 345.376 172.916 345.327 173.091 345.327H176.986C177.142 345.327 177.278 345.386 177.278 345.58C177.278 345.814 176.986 345.814 176.83 345.814C175.703 345.814 175.705 346.111 175.71 347.069C175.71 347.137 175.71 347.208 175.71 347.283V354.639C175.71 354.694 175.71 354.746 175.71 354.797L175.71 354.804V354.81V354.816C175.707 355.821 175.706 356.109 176.83 356.128L176.864 356.128C177.025 356.126 177.278 356.124 177.278 356.342C177.278 356.536 177.142 356.575 176.986 356.575H173.091C172.935 356.575 172.799 356.536 172.799 356.342C172.799 356.124 173.035 356.126 173.194 356.128L173.227 356.128C174.355 356.128 174.353 355.814 174.348 354.853ZM181.352 351.394C182.52 351.929 183.455 352.629 183.455 354.07C183.455 355.49 182.18 356.405 180.884 356.405C179.317 356.405 178.518 355.441 178.353 353.894C178.35 353.873 178.347 353.845 178.345 353.812C178.328 353.626 178.3 353.301 178.109 353.301C177.915 353.301 177.866 353.515 177.846 353.661C177.815 353.964 177.828 354.28 177.842 354.592C177.849 354.76 177.856 354.927 177.856 355.091C177.856 355.157 177.852 355.229 177.847 355.302C177.829 355.582 177.809 355.89 178.041 356.045C178.762 356.492 179.804 356.745 180.641 356.745C181.644 356.745 182.627 356.473 183.397 355.811C184.137 355.169 184.604 354.274 184.604 353.262C184.604 352.493 184.273 351.705 183.776 351.131C183.367 350.664 182.637 350.284 182.072 350.022C181.948 349.965 181.813 349.908 181.673 349.847C180.553 349.366 179.054 348.721 179.054 347.346C179.054 346.032 180.135 345.429 181.274 345.429C182.618 345.429 183.134 346.091 183.514 347.326L183.519 347.343L183.524 347.358L183.53 347.375L183.542 347.415L183.542 347.415L183.542 347.415L183.542 347.416C183.583 347.553 183.637 347.735 183.786 347.735C183.903 347.735 183.971 347.648 183.971 347.521C183.961 347.288 183.969 347.061 183.976 346.835C183.983 346.609 183.991 346.383 183.981 346.149C183.961 345.828 183.923 345.585 183.591 345.458C182.959 345.186 181.956 345.059 181.284 345.059C179.589 345.059 177.954 346.207 177.954 348.085C177.954 349.681 179.19 350.421 180.456 350.995L181.352 351.394ZM191.406 356.751C188.3 356.751 185.388 354.163 185.388 350.903C185.388 347.634 188.3 345.075 191.406 345.075C194.678 345.075 197.404 347.439 197.404 350.903C197.404 354.367 194.678 356.751 191.406 356.751ZM194.765 354.523C195.574 353.452 195.836 352.246 195.836 350.903C195.836 349.521 195.564 348.286 194.707 347.196C193.879 346.174 192.74 345.561 191.445 345.561C190.091 345.561 188.855 346.155 188.027 347.244C187.229 348.266 186.937 349.609 186.937 350.903C186.937 352.246 187.248 353.608 188.095 354.649C188.923 355.69 190.121 356.245 191.435 356.245C192.769 356.245 193.938 355.583 194.765 354.523ZM207.786 346.787C207.777 346.683 207.774 346.586 207.77 346.495C207.754 346.065 207.742 345.773 207.26 345.581C206.432 345.24 205.361 345.075 204.485 345.075C201.174 345.075 197.932 347.546 197.932 351.137C197.932 352.859 198.652 354.26 199.928 355.35C201.135 356.371 202.586 356.751 204.134 356.751C205.39 356.751 206.734 356.478 207.805 355.768C208.139 355.541 208.133 355.368 208.122 355.045L208.121 355.044L208.121 355.043C208.12 355.014 208.119 354.984 208.119 354.953L208.117 354.899L208.117 354.878L208.117 354.834V352.762C208.117 352.745 208.117 352.728 208.117 352.71L208.116 352.656L208.116 352.654C208.111 352.37 208.105 351.95 208.302 351.779C208.399 351.674 208.595 351.656 208.748 351.642L208.749 351.642L208.75 351.642C208.782 351.639 208.811 351.636 208.838 351.633L209.169 351.594C209.324 351.594 209.5 351.574 209.5 351.36C209.5 351.175 209.344 351.146 209.208 351.146H205.566C205.41 351.146 205.167 351.146 205.167 351.38C205.167 351.597 205.377 351.595 205.547 351.594L205.585 351.594C206.588 351.594 206.754 351.759 206.754 352.762V354.25C206.754 354.286 206.754 354.323 206.754 354.363C206.757 354.804 206.762 355.482 206.423 355.758C205.936 356.167 205.04 356.264 204.456 356.264C202.976 356.264 201.71 355.856 200.726 354.669C199.85 353.628 199.49 352.372 199.49 351.01C199.49 349.716 199.918 348.198 200.726 347.176C201.603 346.048 202.83 345.6 204.193 345.6C206.32 345.6 206.807 346.721 207.103 347.403C207.233 347.702 207.326 347.916 207.503 347.916C207.698 347.916 207.766 347.741 207.766 347.556L207.786 346.787ZM216.095 356.751C212.989 356.751 210.077 354.163 210.077 350.903C210.077 347.634 212.989 345.075 216.095 345.075C219.367 345.075 222.093 347.439 222.093 350.903C222.093 354.367 219.376 356.751 216.095 356.751ZM219.454 354.523C220.262 353.452 220.525 352.246 220.525 350.903C220.525 349.521 220.243 348.286 219.396 347.196C218.568 346.174 217.429 345.561 216.134 345.561C214.79 345.561 213.544 346.155 212.716 347.244C211.917 348.266 211.625 349.609 211.625 350.903C211.625 352.246 211.937 353.608 212.784 354.649C213.602 355.69 214.809 356.245 216.124 356.245C217.458 356.245 218.627 355.583 219.454 354.523ZM225.33 345.96L231.416 354.165V347.302C231.416 347.243 231.416 347.186 231.416 347.131C231.42 346.137 231.421 345.814 230.277 345.814C230.121 345.814 229.848 345.814 229.848 345.619C229.848 345.415 229.985 345.327 230.16 345.327H233.178C233.334 345.327 233.471 345.424 233.471 345.619C233.471 345.814 233.198 345.814 233.023 345.814C231.898 345.814 231.899 346.154 231.902 347.131L231.902 347.138C231.903 347.191 231.903 347.246 231.903 347.302V356.41C231.903 356.423 231.904 356.439 231.905 356.457C231.91 356.565 231.919 356.75 231.786 356.75C231.612 356.75 231.464 356.502 231.374 356.351L231.358 356.322L224.113 346.534V354.639C224.113 354.712 224.113 354.783 224.112 354.85C224.107 355.797 224.105 356.128 225.233 356.128L225.244 356.128C225.25 356.128 225.256 356.127 225.262 356.127L225.282 356.127L225.304 356.126C225.459 356.12 225.661 356.112 225.661 356.313C225.661 356.517 225.544 356.585 225.369 356.585H222.35C222.175 356.585 222.039 356.507 222.039 356.313C222.039 356.106 222.249 356.117 222.408 356.125L222.448 356.127C222.462 356.127 222.475 356.128 222.487 356.128C223.614 356.128 223.612 355.797 223.607 354.85C223.607 354.783 223.607 354.712 223.607 354.639V347.302C223.607 347.228 223.607 347.156 223.607 347.088C223.613 346.128 223.614 345.814 222.487 345.814C222.331 345.814 222.058 345.814 222.058 345.619C222.058 345.347 222.282 345.327 222.477 345.327H224.619C224.944 345.413 225.089 345.618 225.258 345.858C225.281 345.891 225.305 345.925 225.33 345.96ZM238.878 356.751C235.772 356.751 232.86 354.163 232.86 350.903C232.86 347.634 235.772 345.075 238.878 345.075C242.15 345.075 244.876 347.439 244.876 350.903C244.876 354.367 242.15 356.751 238.878 356.751ZM242.237 354.523C243.046 353.452 243.309 352.246 243.309 350.903C243.309 349.521 243.036 348.286 242.179 347.196C241.351 346.174 240.212 345.561 238.917 345.561C237.563 345.561 236.327 346.155 235.499 347.244C234.701 348.266 234.409 349.609 234.409 350.903C234.409 352.246 234.72 353.608 235.567 354.649C236.395 355.69 237.593 356.245 238.907 356.245C240.241 356.245 241.41 355.583 242.237 354.523ZM145.735 352.132C145.901 352.132 145.93 351.977 145.93 351.841C145.93 351.276 145.687 350.546 145.356 350.128C144.781 349.398 143.885 349.077 143.009 349.077C141.899 349.077 140.886 349.466 140.078 350.216C139.211 350.994 138.9 351.899 138.9 353.047C138.9 355.168 140.477 356.949 142.619 356.949C143.632 356.949 144.43 356.676 145.2 355.995C145.317 355.898 145.833 355.431 145.833 355.236C145.833 355.168 145.784 355.1 145.706 355.1C145.649 355.1 145.563 355.179 145.438 355.295C145.097 355.611 144.46 356.2 143.291 356.2C141.315 356.2 140.127 354.555 140.127 352.658C140.127 352.129 140.272 352.13 140.706 352.132L140.753 352.132L140.798 352.132H145.735ZM140.808 351.733C140.787 351.733 140.763 351.734 140.737 351.735C140.547 351.741 140.253 351.749 140.253 351.51C140.253 351.237 140.516 350.712 140.662 350.527C141.149 349.817 141.947 349.389 142.785 349.389C143.311 349.389 143.846 349.525 144.207 349.914C144.44 350.167 144.635 350.556 144.635 350.916C144.635 351.325 144.392 351.51 144.031 351.597C143.554 351.714 142.649 351.733 142.142 351.733H140.808ZM136.57 354.773C136.569 354.723 136.567 354.67 136.567 354.615H136.558V351.54C136.558 351.5 136.558 351.459 136.558 351.418C136.561 350.918 136.564 350.341 136.168 349.963C135.769 349.574 135.019 349.37 134.484 349.419C132.711 349.594 131.65 351.121 131.65 352.814C131.65 354.507 132.663 356.259 134.474 356.259C135.146 356.259 135.944 356.025 136.402 355.461C136.581 355.233 136.576 355.032 136.57 354.773ZM137.512 345.205C137.678 345.205 137.678 345.235 137.678 345.371L137.707 355.218C137.707 355.235 137.706 355.259 137.706 355.287C137.701 355.556 137.688 356.249 137.97 356.249H138.69C138.807 356.249 139.021 356.483 139.021 356.483C139.002 356.707 138.856 356.882 138.856 356.882C138.783 356.922 137.502 356.895 137.019 356.885C136.921 356.883 136.856 356.882 136.84 356.882C136.675 356.882 136.614 356.563 136.591 356.444L136.587 356.424C136.587 356.356 136.567 355.704 136.499 355.86C136.363 356.191 135.311 356.998 133.987 356.998C131.913 356.998 130.462 355.111 130.462 353.077C130.462 352.007 130.871 351.073 131.601 350.343C132.332 349.623 133.344 349.078 134.386 349.127C134.99 349.166 135.594 349.263 136.129 349.487C136.143 349.492 136.16 349.499 136.178 349.506C136.261 349.538 136.377 349.584 136.441 349.584C136.606 349.584 136.582 349.198 136.571 349.022C136.569 348.991 136.567 348.966 136.567 348.952V347.336C136.567 347.253 136.571 347.163 136.576 347.068C136.603 346.452 136.637 345.669 135.633 345.77C135.487 345.789 135.302 345.711 135.302 345.488C135.302 345.371 135.37 345.225 135.467 345.205C135.843 345.133 136.902 345.18 137.333 345.198C137.427 345.203 137.491 345.205 137.512 345.205Z" fill="black"/>
</svg>
