<svg width="1920" height="1080" viewBox="0 0 1920 1080" fill="none" xmlns="http://www.w3.org/2000/svg">
<path fill-rule="evenodd" clip-rule="evenodd" d="M0 0H1920V1080H0V0ZM417.402 500.584V541.684H403V455.979H417.402V495.012H460.467V455.979H474.869V541.684H460.467V500.584H417.402ZM572.074 541.685L531.742 454.052H528.133L486.82 541.685H494.073L507.564 513.128H544.322L557.392 541.685H572.074ZM541.694 507.557H510.087L526.1 473.639L541.694 507.557ZM583.945 455.979H613.66C618.776 455.979 623.296 456.54 627.151 457.626C631.005 458.712 634.264 460.254 636.857 462.251C639.45 464.248 641.377 466.596 642.709 469.329C644.04 472.062 644.671 475.04 644.671 478.264C644.671 480.927 644.181 483.449 643.164 485.762C642.148 488.075 640.747 490.177 638.889 492.069C637.067 493.961 634.86 495.573 632.267 496.904C629.674 498.271 626.835 499.322 623.752 500.093L654.973 541.649H638.224L608.439 501.389H598.347V541.649H583.945V455.979ZM598.347 497.08H606.687C609.911 497.08 612.889 496.659 615.622 495.783C618.355 494.907 620.738 493.716 622.736 492.139C624.733 490.562 626.31 488.67 627.431 486.428C628.552 484.185 629.113 481.663 629.113 478.859C629.113 476.267 628.657 473.919 627.781 471.746C626.905 469.574 625.644 467.752 624.032 466.21C622.42 464.669 620.493 463.477 618.285 462.636C616.078 461.76 613.625 461.34 611.032 461.34H598.347V497.08ZM701.213 455.979H666.697V541.649H706.784C711.339 541.649 715.474 541.018 719.154 539.827C722.833 538.636 725.986 536.989 728.579 534.887C731.172 532.819 733.17 530.332 734.571 527.529C735.973 524.725 736.674 521.677 736.674 518.453C736.674 515.615 736.183 512.987 735.237 510.605C734.291 508.222 732.96 506.12 731.208 504.333C729.456 502.546 727.353 501.074 724.9 499.918C722.447 498.762 719.679 497.956 716.631 497.465V497.22C719.714 495.748 722.237 494.312 724.234 492.91C726.232 491.508 727.844 490.037 729.035 488.46C730.226 486.883 731.102 485.166 731.558 483.309C732.013 481.452 732.259 479.35 732.259 476.967C732.259 473.884 731.488 471.046 729.981 468.453C728.474 465.86 726.337 463.652 723.604 461.795C720.87 459.938 717.612 458.502 713.792 457.486C709.973 456.47 705.768 455.979 701.213 455.979ZM699.461 494.557H681.099V461.655H692.978C697.288 461.655 700.967 462.041 704.051 462.812C707.134 463.582 709.692 464.704 711.69 466.175C713.687 467.647 715.159 469.399 716.105 471.431C717.051 473.498 717.542 475.776 717.542 478.264C717.542 480.576 717.156 482.749 716.35 484.746C715.544 486.778 714.353 488.495 712.811 489.932C711.269 491.368 709.377 492.525 707.134 493.331C704.927 494.136 702.334 494.557 699.461 494.557ZM696.657 535.412H681.099H681.064V499.883H696.202C700.827 499.883 704.717 500.373 707.87 501.354C711.059 502.336 713.617 503.702 715.579 505.384C717.542 507.066 718.943 509.098 719.819 511.411C720.695 513.758 721.116 516.281 721.116 518.979C721.116 521.397 720.625 523.604 719.644 525.636C718.698 527.669 717.191 529.421 715.194 530.857C713.161 532.294 710.639 533.415 707.555 534.221C704.471 535.027 700.827 535.412 696.657 535.412ZM797.596 543.682C790.973 543.682 784.771 542.49 779.024 540.143C773.278 537.76 768.267 534.537 764.027 530.402C759.787 526.302 756.458 521.502 754.005 516.001C751.587 510.5 750.361 504.648 750.361 498.376C750.361 494.277 750.921 490.352 752.008 486.533C753.094 482.714 754.671 479.21 756.703 475.916C758.736 472.658 761.188 469.644 764.027 466.981C766.9 464.283 770.054 461.971 773.558 460.079C777.062 458.187 780.846 456.68 784.911 455.629C788.976 454.578 793.216 454.052 797.596 454.052C802.046 454.052 806.286 454.578 810.316 455.629C814.38 456.68 818.13 458.187 821.669 460.079C825.173 462.006 828.362 464.318 831.2 466.981C834.038 469.644 836.491 472.658 838.524 475.916C840.556 479.175 842.133 482.714 843.254 486.533C844.375 490.352 844.901 494.277 844.901 498.376C844.901 502.546 844.34 506.575 843.254 510.395C842.168 514.214 840.591 517.823 838.524 521.187C836.456 524.55 834.038 527.599 831.2 530.367C828.362 533.135 825.173 535.483 821.669 537.48C818.165 539.477 814.38 540.984 810.316 542.07C806.286 543.156 802.046 543.682 797.596 543.682ZM797.596 539.407C802.502 539.407 806.847 538.391 810.631 536.324C814.415 534.256 817.569 531.418 820.162 527.774C822.755 524.13 824.682 519.785 826.014 514.775C827.346 509.764 827.976 504.298 827.976 498.376C827.976 492.49 827.31 487.059 826.014 482.153C824.682 477.248 822.755 473.008 820.162 469.469C817.569 465.93 814.415 463.162 810.631 461.2C806.847 459.238 802.537 458.257 797.596 458.257C792.585 458.257 788.205 459.238 784.456 461.2C780.671 463.162 777.517 465.93 774.959 469.469C772.401 473.008 770.474 477.248 769.178 482.153C767.881 487.059 767.25 492.49 767.25 498.376C767.25 504.333 767.881 509.799 769.178 514.775C770.474 519.785 772.401 524.095 774.959 527.774C777.517 531.453 780.706 534.291 784.456 536.324C788.205 538.391 792.585 539.407 797.596 539.407ZM877.381 455.979H863.015V511.235C863.015 515.72 863.786 519.96 865.362 523.884C866.939 527.809 869.252 531.243 872.336 534.186C875.384 537.094 879.203 539.407 883.759 541.124C888.279 542.841 893.535 543.681 899.422 543.681C906.045 543.681 911.756 542.841 916.487 541.124C921.217 539.442 925.107 537.129 928.156 534.221C931.204 531.313 933.412 527.914 934.848 524.025C936.285 520.135 936.986 516.001 936.986 511.621V455.979H930.643V511.621C930.643 515.265 930.013 518.699 928.786 521.922C927.56 525.146 925.808 527.949 923.495 530.367C921.182 532.784 918.379 534.676 915.12 536.078C911.862 537.48 908.182 538.18 904.083 538.18C900.053 538.18 896.374 537.48 893.08 536.078C889.786 534.676 886.948 532.784 884.635 530.367C882.322 527.949 880.535 525.146 879.274 521.922C878.012 518.734 877.381 515.3 877.381 511.621V455.979ZM958.881 455.979H988.596C993.712 455.979 998.232 456.54 1002.09 457.626C1005.94 458.712 1009.2 460.254 1011.79 462.251C1014.39 464.248 1016.31 466.596 1017.64 469.329C1018.98 472.062 1019.61 475.04 1019.61 478.264C1019.61 480.927 1019.12 483.449 1018.1 485.762C1017.08 488.075 1015.68 490.177 1013.83 492.069C1012 493.961 1009.8 495.573 1007.2 496.904C1004.61 498.271 1001.77 499.322 998.688 500.093L1029.91 541.649H1013.16L983.375 501.389H973.283V541.649H958.881V455.979ZM973.318 497.08H981.658C984.882 497.08 987.86 496.659 990.593 495.783C993.327 494.907 995.709 493.716 997.707 492.139C999.704 490.562 1001.28 488.67 1002.4 486.428C1003.52 484.185 1004.08 481.663 1004.08 478.859C1004.08 476.267 1003.63 473.919 1002.75 471.746C1001.88 469.574 1000.61 467.752 999.003 466.21C997.391 464.669 995.464 463.477 993.256 462.636C991.049 461.76 988.596 461.34 985.968 461.34H973.318V497.08ZM1083.19 455.979H1068.79V541.684H1126.36V536.113H1083.19V455.979ZM1139.23 455.979H1153.63V541.684H1139.23V455.979ZM1211.36 462.9C1215.71 461.078 1220.47 460.167 1225.66 460.167C1231.4 460.167 1236.48 461.779 1240.97 464.967C1245.38 468.156 1249.41 473.236 1253.02 480.174L1259.23 476.039C1257.44 473.166 1255.34 470.398 1252.88 467.735C1250.43 465.107 1247.59 462.76 1244.44 460.727C1241.25 458.73 1237.75 457.083 1233.89 455.857C1230.04 454.631 1225.83 454 1221.31 454C1216.55 454 1212.06 454.561 1207.86 455.682C1203.62 456.803 1199.73 458.38 1196.15 460.412C1192.58 462.444 1189.35 464.862 1186.52 467.665C1183.64 470.468 1181.26 473.587 1179.26 476.951C1177.27 480.349 1175.76 483.923 1174.71 487.743C1173.66 491.562 1173.13 495.486 1173.13 499.481C1173.13 503.475 1173.69 507.364 1174.81 511.149C1175.93 514.898 1177.55 518.437 1179.58 521.695C1181.61 524.954 1184.1 527.932 1187.04 530.63C1189.95 533.328 1193.24 535.641 1196.89 537.568C1200.5 539.495 1204.46 541.002 1208.73 542.053C1212.97 543.104 1217.49 543.63 1222.22 543.63C1226.71 543.63 1230.7 543.419 1234.24 543.069C1237.78 542.719 1241.04 542.193 1243.98 541.492C1246.93 540.792 1249.66 539.916 1252.22 538.899C1254.78 537.883 1257.3 536.692 1259.79 535.36V497.694H1229.16V502.809H1245.38V532.873C1242.97 534.765 1240.27 536.201 1237.26 537.218C1234.21 538.234 1230.84 538.724 1227.09 538.724C1221.91 538.724 1217.11 537.813 1212.55 535.991C1208 534.169 1204.07 531.541 1200.74 528.142C1197.41 524.744 1194.79 520.609 1192.86 515.774C1190.93 510.903 1189.99 505.472 1189.99 499.446C1189.99 493.454 1190.9 488.023 1192.65 483.187C1194.4 478.352 1196.85 474.217 1200.04 470.784C1203.23 467.35 1207.02 464.722 1211.36 462.9ZM1296.17 500.584V541.684H1281.77V455.979H1296.17V495.012H1339.2V455.979H1353.6V541.684H1339.2V500.584H1296.17ZM1444.33 461.55V455.979H1367.9V461.55H1398.91V541.684H1413.32V461.55H1444.33ZM1486.43 538.234C1488.54 538.234 1490.64 537.953 1492.71 537.358C1494.77 536.762 1496.63 535.921 1498.28 534.765C1499.92 533.609 1501.22 532.207 1502.2 530.56C1503.18 528.913 1503.67 526.986 1503.67 524.779C1503.67 522.151 1503.01 519.803 1501.64 517.771C1500.27 515.739 1498.52 513.847 1496.32 512.165C1494.11 510.483 1491.62 508.871 1488.78 507.364C1485.94 505.858 1483.07 504.351 1480.16 502.844C1477.22 501.338 1474.34 499.761 1471.54 498.079C1468.7 496.432 1466.22 494.575 1464.01 492.508C1461.8 490.476 1460.05 488.163 1458.68 485.64C1457.31 483.117 1456.65 480.209 1456.65 476.951C1456.65 473.692 1457.28 470.643 1458.51 467.84C1459.73 465.037 1461.52 462.62 1463.9 460.552C1466.29 458.52 1469.19 456.908 1472.66 455.752C1476.13 454.596 1480.09 454 1484.58 454C1488.64 454 1492.25 454.42 1495.44 455.296C1498.63 456.172 1501.43 457.434 1503.85 459.116C1506.27 460.798 1508.3 462.865 1509.98 465.318C1511.66 467.77 1513.03 470.608 1514.05 473.832L1506.69 477.196C1505.81 474.568 1504.73 472.15 1503.39 469.978C1502.06 467.805 1500.45 465.948 1498.59 464.407C1496.74 462.865 1494.6 461.674 1492.18 460.833C1489.76 459.992 1486.99 459.571 1483.95 459.571C1481.25 459.571 1478.86 459.957 1476.83 460.692C1474.8 461.428 1473.12 462.444 1471.75 463.671C1470.39 464.897 1469.37 466.264 1468.7 467.805C1468.04 469.347 1467.69 470.889 1467.69 472.501C1467.69 474.743 1468.39 476.81 1469.75 478.667C1471.12 480.525 1472.98 482.311 1475.26 483.958C1477.53 485.605 1480.13 487.217 1483.03 488.759C1485.94 490.3 1488.92 491.877 1491.94 493.489C1494.95 495.101 1497.93 496.748 1500.84 498.464C1503.74 500.181 1506.34 502.073 1508.61 504.106C1510.89 506.138 1512.71 508.38 1514.12 510.833C1515.48 513.286 1516.18 515.984 1516.18 518.997C1516.18 522.396 1515.55 525.585 1514.26 528.598C1512.96 531.576 1511.03 534.204 1508.44 536.412C1505.85 538.619 1502.66 540.371 1498.8 541.667C1494.98 542.964 1490.5 543.595 1485.42 543.595C1481.28 543.595 1477.6 543.139 1474.38 542.228C1471.16 541.317 1468.28 540.021 1465.83 538.304C1463.38 536.587 1461.24 534.484 1459.45 531.997C1457.7 529.509 1456.23 526.671 1455.11 523.482L1462.82 520.329C1463.73 523.132 1464.95 525.62 1466.46 527.827C1468 530.035 1469.75 531.892 1471.79 533.433C1473.82 534.975 1476.06 536.131 1478.55 536.937C1481 537.848 1483.63 538.234 1486.43 538.234ZM859.042 588.428C859.037 588.831 859.032 589.281 859.073 589.785L859.213 592.763C859.213 593.429 859.003 594.059 858.302 594.059C857.662 594.059 857.324 593.286 856.854 592.211C855.78 589.754 854.016 585.72 846.388 585.72C841.483 585.72 837.068 587.332 833.914 591.396C831.005 595.075 829.464 600.542 829.464 605.202C829.464 610.107 830.76 614.627 833.914 618.376C837.453 622.651 842.008 624.123 847.334 624.123C849.437 624.123 852.661 623.772 854.413 622.301C855.634 621.304 855.617 618.862 855.606 617.276L855.606 617.257C855.605 617.152 855.604 617.051 855.604 616.954L855.604 616.87V611.509C855.604 607.865 855.008 607.304 851.399 607.304L851.348 607.304L851.271 607.305C850.686 607.309 849.928 607.315 849.928 606.533C849.928 605.692 850.804 605.692 851.364 605.692H864.469C864.96 605.692 865.521 605.832 865.521 606.463C865.521 607.234 864.89 607.304 864.329 607.304L863.138 607.444C863.041 607.456 862.932 607.466 862.816 607.477C862.265 607.528 861.558 607.593 861.211 607.97C860.502 608.586 860.525 610.099 860.541 611.121C860.543 611.261 860.545 611.391 860.545 611.509V618.972C860.545 619.057 860.546 619.139 860.547 619.219L860.548 619.273L860.55 619.347L860.552 619.419L860.554 619.504L860.557 619.584L860.561 619.731V619.732C860.601 620.893 860.623 621.517 859.424 622.336C855.569 624.894 850.733 625.875 846.213 625.875C840.642 625.875 835.421 624.508 831.076 620.829C826.485 616.905 823.892 611.859 823.892 605.657C823.892 592.728 835.561 583.828 847.475 583.828C850.628 583.828 854.483 584.424 857.461 585.65C859.068 586.293 859.058 587.12 859.042 588.428ZM872.428 618.35C872.428 618.619 872.43 618.876 872.431 619.122C872.449 622.58 872.456 623.711 868.398 623.711C868.36 623.711 868.319 623.71 868.277 623.71C867.708 623.705 866.857 623.698 866.857 624.482C866.857 625.182 867.347 625.323 867.908 625.323C869.082 625.323 870.264 625.261 871.447 625.2C872.63 625.139 873.812 625.077 874.986 625.077C876.159 625.077 877.305 625.138 878.452 625.2L878.455 625.2C879.603 625.261 880.75 625.323 881.924 625.323C882.485 625.323 882.975 625.182 882.975 624.482C882.975 623.698 882.063 623.705 881.485 623.71C881.442 623.71 881.402 623.711 881.364 623.711C877.317 623.644 877.32 622.605 877.332 618.988C877.333 618.783 877.334 618.571 877.334 618.35V608.399L877.333 608.325L877.333 608.263L877.332 608.152C877.324 607.455 877.309 606.208 877.649 605.806C877.965 605.42 878.525 605.49 879.016 605.49C883.439 605.49 883.665 605.95 885.51 609.706L885.52 609.728C885.645 609.982 885.777 610.251 885.919 610.536L892.016 623.115C892.043 623.169 892.069 623.223 892.095 623.277C892.13 623.35 892.165 623.423 892.199 623.497L892.201 623.5L892.209 623.518L892.211 623.521C892.625 624.404 893.057 625.323 894.118 625.323H900.706C901.197 625.323 901.827 625.252 901.827 624.622C901.827 623.711 900.706 623.711 900.215 623.711C897.675 623.711 896.678 621.591 895.678 619.463C895.602 619.302 895.526 619.141 895.45 618.98L890.439 608.924C890.39 608.831 890.341 608.735 890.292 608.638C890.246 608.547 890.199 608.454 890.152 608.361C889.353 606.779 888.436 604.962 886.655 604.649C891.806 603.949 896.466 600.515 896.466 594.628C896.466 587.831 890.614 584.817 884.727 584.817C882.967 584.817 881.223 584.878 879.471 584.939C877.702 585.001 875.923 585.063 874.11 585.063C873.111 585.063 872.086 585.001 871.062 584.94C870.037 584.879 869.012 584.817 868.013 584.817C867.347 584.817 866.892 585.063 866.892 585.799C866.892 586.569 867.873 586.569 868.433 586.569C872.49 586.569 872.484 587.638 872.466 591.145C872.465 591.394 872.463 591.656 872.463 591.93V618.35H872.428ZM877.334 591.335C877.334 586.815 877.439 586.184 882.169 586.184C887.671 586.184 891.105 589.408 891.105 595.364C891.105 597.957 890.299 600.34 888.267 601.951C885.919 603.809 883.361 604.089 880.523 604.089C880.465 604.089 880.405 604.09 880.343 604.093C880.211 604.097 880.069 604.106 879.92 604.115C878.825 604.183 877.369 604.274 877.369 602.933V591.335H877.334ZM911.671 619.066L911.67 618.697C911.669 618.583 911.669 618.468 911.669 618.35V591.86C911.669 591.591 911.67 591.333 911.672 591.088C911.69 587.638 911.696 586.569 907.639 586.569C907.079 586.569 906.097 586.569 906.097 585.728C906.097 584.993 906.518 584.817 907.149 584.817H921.165C921.726 584.817 922.216 585.028 922.216 585.728C922.216 586.569 921.165 586.569 920.604 586.569C916.548 586.569 916.553 587.638 916.572 591.088C916.573 591.224 916.573 591.363 916.574 591.506C916.574 591.622 916.575 591.74 916.575 591.86V618.35C916.575 618.571 916.574 618.783 916.573 618.988C916.561 622.605 916.558 623.644 920.604 623.711C920.643 623.711 920.683 623.71 920.726 623.71C921.304 623.705 922.216 623.698 922.216 624.482C922.216 625.182 921.726 625.323 921.165 625.323H907.149C906.588 625.323 906.097 625.182 906.097 624.482C906.097 623.698 906.948 623.705 907.518 623.71L907.579 623.71L907.639 623.711C911.696 623.711 911.69 622.58 911.672 619.122L911.671 619.066ZM936.905 606.586C941.11 608.513 944.474 611.036 944.474 616.222C944.474 621.338 939.883 624.631 935.223 624.631C929.581 624.631 926.708 621.162 926.112 615.591C926.102 615.513 926.093 615.412 926.083 615.295C926.025 614.623 925.923 613.454 925.236 613.454C924.536 613.454 924.36 614.225 924.29 614.75C924.177 615.842 924.225 616.979 924.273 618.102L924.274 618.105C924.3 618.711 924.325 619.312 924.325 619.901C924.325 620.139 924.309 620.396 924.292 620.658C924.227 621.67 924.157 622.779 924.991 623.335C927.584 624.947 931.333 625.858 934.347 625.858C937.956 625.858 941.495 624.877 944.264 622.494C946.927 620.181 948.609 616.958 948.609 613.314C948.609 610.546 947.417 607.708 945.63 605.64C944.158 603.958 941.53 602.592 939.498 601.646C939.296 601.554 939.086 601.462 938.871 601.368C938.611 601.254 938.343 601.139 938.069 601.021L938.06 601.017C934.031 599.283 928.635 596.961 928.635 592.01C928.635 587.28 932.525 585.107 936.625 585.107C941.46 585.107 943.318 587.49 944.684 591.94C944.69 591.955 944.696 591.971 944.701 591.987L944.711 592.014L944.719 592.039C944.724 592.055 944.73 592.072 944.735 592.089L944.752 592.143C944.763 592.179 944.774 592.216 944.786 592.255L944.787 592.258L944.787 592.261C944.934 592.755 945.13 593.412 945.665 593.412C946.086 593.412 946.331 593.096 946.331 592.641C946.296 591.8 946.322 590.985 946.349 590.17C946.375 589.356 946.401 588.541 946.366 587.7C946.296 586.544 946.156 585.668 944.964 585.212C942.687 584.231 939.078 583.776 936.66 583.776C930.563 583.776 924.676 587.91 924.676 594.673C924.676 600.419 929.126 603.082 933.681 605.15L936.905 606.586ZM973.035 625.875C961.857 625.875 951.379 616.554 951.379 604.816C951.379 593.043 961.857 583.828 973.035 583.828C984.808 583.828 994.62 592.342 994.62 604.816C994.62 617.29 984.808 625.875 973.035 625.875ZM985.124 617.851C988.032 613.997 988.978 609.652 988.978 604.816C988.978 599.841 987.997 595.391 984.913 591.466C981.935 587.787 977.835 585.58 973.175 585.58C968.304 585.58 963.854 587.717 960.875 591.642C958.002 595.321 956.951 600.156 956.951 604.816C956.951 609.652 958.072 614.557 961.121 618.306C964.099 622.055 968.409 624.053 973.14 624.053C977.94 624.053 982.145 621.67 985.124 617.851ZM1031.99 589.995C1031.98 589.834 1031.97 589.678 1031.96 589.525C1031.95 589.324 1031.94 589.13 1031.94 588.944C1031.88 587.396 1031.84 586.344 1030.1 585.65C1027.12 584.424 1023.27 583.828 1020.11 583.828C1008.2 583.828 996.531 592.728 996.531 605.657C996.531 611.859 999.124 616.905 1003.71 620.829C1008.06 624.508 1013.28 625.875 1018.85 625.875C1023.37 625.875 1028.21 624.894 1032.06 622.336C1033.26 621.517 1033.24 620.893 1033.2 619.732L1033.2 619.681L1033.2 619.646C1033.2 619.595 1033.19 619.542 1033.19 619.488L1033.19 619.418C1033.19 619.311 1033.19 619.199 1033.18 619.082V619.059C1033.18 619.03 1033.18 619.001 1033.18 618.972V611.509C1033.18 611.395 1033.18 611.268 1033.18 611.134V611.13V611.126V611.121C1033.16 610.099 1033.14 608.586 1033.85 607.97C1034.2 607.593 1034.9 607.528 1035.46 607.477C1035.54 607.47 1035.61 607.462 1035.69 607.454L1035.71 607.452L1035.75 607.448L1035.78 607.444L1036.97 607.304C1037.53 607.304 1038.16 607.234 1038.16 606.463C1038.16 605.797 1037.6 605.692 1037.11 605.692H1024C1023.44 605.692 1022.57 605.692 1022.57 606.533C1022.57 607.315 1023.32 607.309 1023.94 607.305C1023.98 607.304 1024.03 607.304 1024.07 607.304C1027.68 607.304 1028.28 607.9 1028.28 611.509V616.87C1028.28 616.98 1028.28 617.096 1028.28 617.218V617.236V617.255V617.276C1028.29 618.863 1028.31 621.304 1027.09 622.301C1025.33 623.772 1022.11 624.123 1020.01 624.123C1014.68 624.123 1010.13 622.651 1006.59 618.376C1003.43 614.627 1002.14 610.107 1002.14 605.202C1002.14 600.542 1003.68 595.075 1006.59 591.396C1009.74 587.332 1014.16 585.72 1019.06 585.72C1026.72 585.72 1028.47 589.758 1029.54 592.214C1030 593.288 1030.34 594.059 1030.98 594.059C1031.68 594.059 1031.92 593.429 1031.92 592.763L1031.99 589.995ZM1061.91 625.875C1050.73 625.875 1040.25 616.554 1040.25 604.816C1040.25 593.043 1050.73 583.828 1061.91 583.828C1073.68 583.828 1083.49 592.342 1083.49 604.816C1083.49 617.29 1073.71 625.875 1061.91 625.875ZM1073.99 617.851C1076.9 613.997 1077.85 609.652 1077.85 604.816C1077.85 599.841 1076.83 595.391 1073.78 591.466C1070.81 587.787 1066.71 585.58 1062.05 585.58C1057.21 585.58 1052.73 587.717 1049.75 591.642C1046.87 595.321 1045.82 600.156 1045.82 604.816C1045.82 609.652 1046.94 614.557 1049.99 618.306C1052.94 622.055 1057.28 624.053 1062.01 624.053C1066.81 624.053 1071.02 621.67 1073.99 617.851ZM1095.08 587.095L1116.99 616.643V591.93C1116.99 591.741 1116.99 591.559 1116.99 591.381L1116.99 591.312C1117 587.733 1117 586.569 1112.89 586.569C1112.32 586.569 1111.34 586.569 1111.34 585.869C1111.34 585.133 1111.83 584.817 1112.47 584.817H1123.33C1123.89 584.817 1124.38 585.168 1124.38 585.869C1124.38 586.569 1123.4 586.569 1122.77 586.569C1118.72 586.569 1118.72 587.794 1118.74 591.314L1118.74 591.623L1118.74 591.93V624.727C1118.74 624.772 1118.74 624.829 1118.74 624.893V624.896C1118.76 625.286 1118.8 625.953 1118.32 625.953C1117.69 625.953 1117.16 625.058 1116.84 624.513L1116.78 624.411L1090.7 589.162V618.35C1090.7 618.614 1090.7 618.867 1090.7 619.109C1090.68 622.519 1090.68 623.711 1094.73 623.711C1094.81 623.711 1094.9 623.707 1094.99 623.704C1095.55 623.682 1096.28 623.653 1096.28 624.376C1096.28 625.112 1095.86 625.357 1095.22 625.357H1084.36C1083.73 625.357 1083.24 625.077 1083.24 624.376C1083.24 623.634 1084 623.672 1084.57 623.701C1084.67 623.706 1084.77 623.711 1084.85 623.711C1088.91 623.711 1088.9 622.519 1088.89 619.108C1088.88 618.867 1088.88 618.614 1088.88 618.35V591.93C1088.88 591.661 1088.88 591.404 1088.89 591.159C1088.9 587.7 1088.91 586.569 1084.85 586.569C1084.29 586.569 1083.31 586.569 1083.31 585.869C1083.31 584.888 1084.12 584.817 1084.82 584.817H1092.53C1093.7 585.125 1094.22 585.865 1094.82 586.729C1094.91 586.849 1095 586.971 1095.08 587.095ZM1143.85 625.875C1132.67 625.875 1122.2 616.554 1122.2 604.816C1122.2 593.043 1132.67 583.828 1143.85 583.828C1155.62 583.828 1165.44 592.342 1165.44 604.816C1165.44 617.29 1155.62 625.875 1143.85 625.875ZM1155.94 617.851C1158.85 613.997 1159.79 609.652 1159.79 604.816C1159.79 599.841 1158.81 595.391 1155.73 591.466C1152.75 587.787 1148.65 585.58 1143.99 585.58C1139.12 585.58 1134.67 587.717 1131.69 591.642C1128.82 595.321 1127.77 600.156 1127.77 604.816C1127.77 609.652 1128.89 614.557 1131.94 618.306C1134.92 622.055 1139.23 624.053 1143.96 624.053C1148.76 624.053 1152.96 621.67 1155.94 617.851ZM808.677 609.308C809.273 609.308 809.378 608.747 809.378 608.257C809.378 606.224 808.502 603.597 807.311 602.09C805.243 599.462 802.019 598.306 798.866 598.306C794.871 598.306 791.227 599.707 788.318 602.405C785.2 605.208 784.078 608.467 784.078 612.602C784.078 620.24 789.755 626.652 797.464 626.652C801.108 626.652 803.982 625.671 806.75 623.218C807.17 622.868 809.028 621.186 809.028 620.485C809.028 620.24 808.852 619.995 808.572 619.995C808.365 619.995 808.058 620.279 807.608 620.696C806.38 621.833 804.088 623.954 799.882 623.954C792.769 623.954 788.494 618.033 788.494 611.2C788.494 609.296 789.016 609.299 790.58 609.307C790.686 609.307 790.796 609.308 790.911 609.308H808.677ZM790.947 607.871C790.87 607.871 790.783 607.874 790.689 607.877C790.005 607.897 788.949 607.928 788.949 607.065C788.949 606.084 789.895 604.192 790.421 603.526C792.173 600.969 795.046 599.427 798.06 599.427C799.952 599.427 801.879 599.917 803.176 601.319C804.017 602.23 804.718 603.632 804.718 604.928C804.718 606.4 803.842 607.065 802.545 607.381C800.828 607.801 797.569 607.871 795.747 607.871H790.947ZM775.697 618.682C775.692 618.5 775.688 618.311 775.688 618.111H775.653V607.039C775.653 606.895 775.653 606.749 775.654 606.601C775.664 604.8 775.676 602.722 774.251 601.363C772.814 599.961 770.116 599.225 768.189 599.4C761.811 600.031 757.992 605.532 757.992 611.629C757.992 617.726 761.636 624.033 768.154 624.033C770.572 624.033 773.445 623.192 775.092 621.16C775.737 620.338 775.72 619.615 775.697 618.682ZM779.087 584.229C779.682 584.229 779.682 584.334 779.682 584.824L779.787 620.284C779.787 620.347 779.786 620.432 779.784 620.534C779.766 621.503 779.719 623.998 780.734 623.998H783.327C783.747 623.998 784.518 624.839 784.518 624.839C784.448 625.645 783.922 626.275 783.922 626.275C783.66 626.421 779.051 626.324 777.312 626.288C776.961 626.28 776.727 626.275 776.669 626.275C776.075 626.275 775.854 625.128 775.772 624.7C775.766 624.673 775.762 624.649 775.758 624.628C775.758 624.383 775.688 622.036 775.442 622.596C774.952 623.787 771.167 626.696 766.402 626.696C758.938 626.696 753.717 619.898 753.717 612.575C753.717 608.721 755.189 605.357 757.817 602.729C760.445 600.136 764.089 598.174 767.838 598.349C770.011 598.489 772.184 598.84 774.111 599.646C774.161 599.665 774.221 599.688 774.287 599.714C774.585 599.831 775.002 599.996 775.232 599.996C775.827 599.996 775.74 598.606 775.7 597.972C775.693 597.86 775.688 597.771 775.688 597.719V591.902C775.688 591.603 775.702 591.276 775.717 590.935C775.814 588.717 775.938 585.896 772.324 586.261C771.798 586.331 771.132 586.051 771.132 585.245C771.132 584.824 771.378 584.299 771.728 584.229C773.08 583.97 776.89 584.136 778.443 584.204C778.781 584.218 779.011 584.229 779.087 584.229Z" fill="black"/>
</svg>
